M48
;GenerationSoftware,Autodesk,EAGLE,9.7.0*%
;CreationDate,2023-09-11T09:21:23Z*%
FMAT,2
ICI,OFF
METRIC,TZ,000.000
T2C0.350
T1C1.016
%
G90
M71
T1
X-2108Y-6350
X1778Y3785
X1778Y1245
X1778Y-1295
X1778Y-3835
X1778Y-6375
X1778Y-8915
X1778Y-11455
X-2108Y16510
X-2108Y13970
X-2108Y11430
X-2108Y8890
X-2108Y6350
X-2108Y3810
X-2108Y1270
X-2108Y-1270
X-2108Y-3810
X1778Y-13995
X-2108Y-8890
X-2108Y-11430
X-2108Y-13970
X1778Y16485
X1778Y13945
X1778Y11405
X1778Y8865
X1778Y6325
T2
X-10160Y-13970
X-7112Y-20828
X4826Y15748
X-17526Y-9144
X6330Y6416
X13462Y-762
X-8382Y-14478
X9144Y-14986
M30