G04 EAGLE Gerber RS-274X export*
G75*
%MOMM*%
%FSLAX34Y34*%
%LPD*%
%INTop Copper*%
%IPPOS*%
%AMOC8*
5,1,8,0,0,1.08239X$1,22.5*%
G01*
G04 Define Apertures*
%ADD10R,2.080000X3.810000*%
%ADD11R,11.430000X8.890000*%
%ADD12R,3.810000X2.080000*%
%ADD13R,8.890000X11.430000*%
%ADD14C,0.502400*%
%ADD15C,1.016000*%
%ADD16C,0.508000*%
D10*
X-30400Y140700D03*
D11*
X-5000Y255000D03*
D10*
X20400Y140700D03*
X25400Y-145700D03*
D11*
X0Y-260000D03*
D10*
X-25400Y-145700D03*
D12*
X-138510Y-44450D03*
D13*
X-252810Y-19050D03*
D12*
X-138510Y6350D03*
X148510Y6350D03*
D13*
X262810Y-19050D03*
D12*
X148510Y-44450D03*
G36*
X116261Y123765D02*
X83267Y104716D01*
X72867Y122729D01*
X105861Y141778D01*
X116261Y123765D01*
G37*
D11*
G36*
X196331Y86682D02*
X139181Y185668D01*
X216169Y230118D01*
X273319Y131132D01*
X196331Y86682D01*
G37*
D12*
G36*
X141661Y79771D02*
X108667Y60722D01*
X98267Y78735D01*
X131261Y97784D01*
X141661Y79771D01*
G37*
G36*
X129294Y-109910D02*
X110245Y-76916D01*
X128258Y-66516D01*
X147307Y-99510D01*
X129294Y-109910D01*
G37*
D11*
G36*
X92211Y-189981D02*
X191197Y-132831D01*
X235647Y-209819D01*
X136661Y-266969D01*
X92211Y-189981D01*
G37*
D12*
G36*
X85300Y-135310D02*
X66251Y-102316D01*
X84264Y-91916D01*
X103313Y-124910D01*
X85300Y-135310D01*
G37*
G36*
X-119221Y97427D02*
X-90819Y72033D01*
X-104683Y56527D01*
X-133085Y81921D01*
X-119221Y97427D01*
G37*
D11*
G36*
X-109002Y185073D02*
X-185185Y99866D01*
X-251458Y159121D01*
X-175275Y244328D01*
X-109002Y185073D01*
G37*
D12*
G36*
X-85361Y135297D02*
X-56959Y109903D01*
X-70823Y94397D01*
X-99225Y119791D01*
X-85361Y135297D01*
G37*
G36*
X-104847Y-133507D02*
X-71853Y-114458D01*
X-61453Y-132471D01*
X-94447Y-151520D01*
X-104847Y-133507D01*
G37*
D11*
G36*
X-184917Y-96424D02*
X-127767Y-195410D01*
X-204755Y-239860D01*
X-261905Y-140874D01*
X-184917Y-96424D01*
G37*
D12*
G36*
X-130247Y-89513D02*
X-97253Y-70464D01*
X-86853Y-88477D01*
X-119847Y-107526D01*
X-130247Y-89513D01*
G37*
D14*
X0Y140000D03*
D15*
X-5000Y145000D02*
X-5000Y255000D01*
X-5000Y145000D02*
X0Y140000D01*
X20400Y140700D02*
X80000Y200300D01*
X80000Y235000D01*
D14*
X80000Y235000D03*
D15*
X148510Y-44450D02*
X209060Y-105000D01*
X210000Y-105000D01*
D14*
X210000Y-105000D03*
X-70000Y-195000D03*
D15*
X-70000Y-190000D01*
X-25700Y-145700D01*
X-25400Y-145700D01*
X-138510Y6350D02*
X-177160Y45000D01*
X-190000Y45000D01*
D14*
X-190000Y45000D03*
D15*
X-78092Y114847D02*
X-78092Y143092D01*
X-80000Y145000D01*
D14*
X-80000Y145000D03*
D15*
X119964Y79253D02*
X145747Y79253D01*
X155000Y70000D01*
D14*
X155000Y70000D03*
D15*
X84782Y-113613D02*
X84782Y-140218D01*
X80000Y-145000D01*
D14*
X80000Y-145000D03*
D15*
X-108550Y-88995D02*
X-121005Y-88995D01*
X-130000Y-80000D01*
D14*
X-130000Y-80000D03*
X-110000Y100000D03*
D15*
X-180230Y170230D01*
X-180230Y172097D01*
D14*
X105000Y-110000D03*
D15*
X150000Y-185971D02*
X163929Y-199900D01*
X150000Y-185971D02*
X150000Y-150000D01*
X110000Y-110000D01*
X105000Y-110000D01*
D14*
X115000Y100000D03*
D15*
X115000Y105000D02*
X175000Y165000D01*
X115000Y105000D02*
X115000Y100000D01*
X175000Y165000D02*
X212850Y165000D01*
X206250Y158400D01*
D14*
X-105000Y-110000D03*
D15*
X-110923Y-110000D01*
X-115537Y-114614D01*
X-144614Y-114614D01*
X-194836Y-164836D02*
X-194836Y-168142D01*
X-194836Y-164836D02*
X-144614Y-114614D01*
D16*
X25400Y-145700D02*
X70000Y-190300D01*
X70000Y-280000D01*
D14*
X70000Y-280000D03*
D16*
X-138510Y-44450D02*
X-184060Y-90000D01*
X-290000Y-90000D01*
D14*
X-290000Y-90000D03*
D16*
X148510Y6350D02*
X192160Y50000D01*
X280000Y50000D01*
D14*
X280000Y50000D03*
D16*
X94564Y123247D02*
X94564Y174564D01*
X160000Y240000D01*
X170000Y240000D01*
D14*
X170000Y240000D03*
D16*
X153213Y-88213D02*
X128776Y-88213D01*
X153213Y-88213D02*
X245000Y-180000D01*
D14*
X245000Y-180000D03*
D16*
X-111952Y76977D02*
X-196977Y76977D01*
X-255000Y135000D01*
D14*
X-255000Y135000D03*
D16*
X-83150Y-132989D02*
X-90000Y-139840D01*
X-90000Y-190000D01*
X-145000Y-245000D01*
X-185000Y-245000D01*
D14*
X-185000Y-245000D03*
X0Y-150000D03*
D15*
X0Y-260000D01*
D14*
X145000Y-15000D03*
D15*
X150000Y-20000D01*
X150950Y-19050D02*
X262810Y-19050D01*
X150950Y-19050D02*
X150000Y-20000D01*
D14*
X-150000Y-15000D03*
D15*
X-154050Y-19050D02*
X-252810Y-19050D01*
X-154050Y-19050D02*
X-150000Y-15000D01*
D14*
X-67456Y295000D03*
D16*
X-67428Y294972D01*
X-30400Y173053D02*
X-30400Y140700D01*
X-30400Y173053D02*
X-67428Y210081D01*
X-67428Y294972D01*
M02*
