G04 EAGLE Gerber RS-274X export*
G75*
%MOMM*%
%FSLAX34Y34*%
%LPD*%
%INBottom Copper*%
%IPPOS*%
%AMOC8*
5,1,8,0,0,1.08239X$1,22.5*%
G01*
G04 Define Apertures*
%ADD10R,6.451600X3.251200*%
%ADD11R,3.500000X2.000000*%
%ADD12C,1.016000*%
%ADD13C,0.502400*%
%ADD14C,0.508000*%
D10*
X-1000Y297500D03*
X-5200Y-296800D03*
G36*
X-313213Y-49034D02*
X-313776Y15478D01*
X-281267Y15762D01*
X-280704Y-48750D01*
X-313213Y-49034D01*
G37*
G36*
X312660Y16754D02*
X313448Y-47756D01*
X280940Y-48154D01*
X280152Y16356D01*
X312660Y16754D01*
G37*
G36*
X241627Y204656D02*
X277422Y150983D01*
X250373Y132944D01*
X214578Y186617D01*
X241627Y204656D01*
G37*
G36*
X230999Y-216433D02*
X180862Y-257033D01*
X160401Y-231767D01*
X210538Y-191167D01*
X230999Y-216433D01*
G37*
G36*
X-186738Y214119D02*
X-228120Y164626D01*
X-253062Y185481D01*
X-211680Y234974D01*
X-186738Y214119D01*
G37*
G36*
X-225494Y-222867D02*
X-264139Y-171208D01*
X-238106Y-151733D01*
X-199461Y-203392D01*
X-225494Y-222867D01*
G37*
X-2000Y118256D03*
G36*
X-37071Y-102001D02*
X27405Y-104252D01*
X26271Y-136743D01*
X-38205Y-134492D01*
X-37071Y-102001D01*
G37*
G36*
X-139843Y-34063D02*
X-136467Y30364D01*
X-104001Y28663D01*
X-107377Y-35764D01*
X-139843Y-34063D01*
G37*
G36*
X136411Y22741D02*
X134497Y-41746D01*
X102001Y-40781D01*
X103915Y23706D01*
X136411Y22741D01*
G37*
G36*
X88191Y109344D02*
X127910Y58506D01*
X102291Y38490D01*
X62572Y89328D01*
X88191Y109344D01*
G37*
G36*
X116628Y-80280D02*
X68534Y-123281D01*
X46864Y-99044D01*
X94958Y-56043D01*
X116628Y-80280D01*
G37*
G36*
X-119820Y67469D02*
X-77495Y116159D01*
X-52958Y94829D01*
X-95283Y46139D01*
X-119820Y67469D01*
G37*
G36*
X-80761Y-115925D02*
X-121361Y-65788D01*
X-96095Y-45327D01*
X-55495Y-95464D01*
X-80761Y-115925D01*
G37*
D11*
X-98507Y274198D03*
X-98507Y184198D03*
D12*
X-2000Y138000D02*
X0Y140000D01*
D13*
X0Y140000D03*
D12*
X-2000Y138000D02*
X-2000Y118256D01*
X240000Y-105000D02*
X240000Y-110000D01*
X130000Y-220000D01*
X-80000Y-220000D01*
X-100000Y-220000D01*
X-215000Y-105000D01*
X-215000Y45000D01*
X-215000Y170000D01*
X-115000Y270000D01*
D13*
X80000Y235000D03*
D12*
X75000Y240000D01*
D13*
X210000Y-105000D03*
D12*
X240000Y-105000D01*
X-80000Y-205000D02*
X-80000Y-220000D01*
X-80000Y-205000D02*
X-70000Y-195000D01*
D13*
X-70000Y-195000D03*
X-190000Y45000D03*
D12*
X-215000Y45000D01*
X-98507Y274198D02*
X75000Y274198D01*
X75000Y240000D01*
X75000Y274198D02*
X118394Y274198D01*
X208890Y183702D01*
X240000Y137054D01*
X240000Y-105000D01*
X90802Y184198D02*
X-98507Y184198D01*
X90802Y184198D02*
X185000Y90000D01*
X185000Y75000D01*
X185000Y-95000D01*
X105000Y-175000D01*
X80000Y-175000D01*
X-75000Y-175000D01*
X-162500Y-87500D01*
X-170000Y-80000D01*
X-170000Y120000D01*
X-105000Y185000D01*
D13*
X-80000Y145000D03*
D12*
X-90000Y155000D01*
X-90000Y165000D01*
X-98507Y173507D01*
X-98507Y184198D01*
D13*
X155000Y70000D03*
D12*
X160000Y75000D01*
X185000Y75000D01*
D13*
X80000Y-145000D03*
D12*
X80000Y-175000D01*
D13*
X-130000Y-80000D03*
D12*
X-137500Y-87500D01*
X-162500Y-87500D01*
X-86389Y81149D02*
X-105240Y100000D01*
X-110000Y100000D01*
D13*
X-110000Y100000D03*
X105000Y-110000D03*
D12*
X84662Y-89662D01*
X81746Y-89662D01*
D13*
X115000Y100000D03*
D12*
X95241Y80241D01*
X95241Y73917D01*
D13*
X-105000Y-110000D03*
D12*
X-88428Y-93428D01*
X-88428Y-80626D01*
D13*
X70000Y-280000D03*
D14*
X58000Y-280000D01*
X41200Y-296800D01*
X-5200Y-296800D01*
D13*
X-290000Y-90000D03*
D14*
X-297240Y-82760D01*
X-297240Y-16636D01*
D13*
X280000Y50000D03*
D14*
X296800Y33200D02*
X296800Y-15700D01*
X296800Y33200D02*
X280000Y50000D01*
D13*
X170000Y240000D03*
D14*
X174800Y240000D01*
X246000Y168800D01*
D13*
X245000Y-180000D03*
D14*
X239800Y-180000D01*
X195700Y-224100D01*
D13*
X-255000Y135000D03*
D14*
X-255000Y164700D01*
X-219900Y199800D01*
X-231800Y-187300D02*
X-185000Y-234100D01*
X-185000Y-245000D01*
D13*
X-185000Y-245000D03*
X0Y-150000D03*
D12*
X0Y-124772D01*
X-5400Y-119372D01*
D13*
X145000Y-15000D03*
D12*
X125186Y-15000D01*
X119206Y-9020D01*
X-121922Y-2700D02*
X-134222Y-15000D01*
X-150000Y-15000D01*
D13*
X-150000Y-15000D03*
D14*
X-65000Y295000D02*
X-62500Y297500D01*
X-1000Y297500D01*
D13*
X-67456Y295000D03*
D14*
X-65000Y295000D01*
M02*
