G04 EAGLE Gerber RS-274X export*
G75*
%MOMM*%
%FSLAX34Y34*%
%LPD*%
%IN*%
%IPPOS*%
%AMOC8*
5,1,8,0,0,1.08239X$1,22.5*%
G01*
G04 Define Apertures*
%ADD10C,0.254000*%
D10*
X320000Y-3927D02*
X320000Y3927D01*
X319807Y11779D01*
X319422Y19624D01*
X318844Y27457D01*
X318074Y35274D01*
X317113Y43069D01*
X315960Y50838D01*
X314617Y58577D01*
X313085Y66281D01*
X311364Y73944D01*
X309456Y81563D01*
X307361Y89133D01*
X305081Y96649D01*
X302617Y104107D01*
X299971Y111502D01*
X297144Y118830D01*
X294139Y126087D01*
X290956Y133268D01*
X287598Y140368D01*
X284066Y147384D01*
X280364Y154310D01*
X276492Y161144D01*
X272454Y167881D01*
X268252Y174517D01*
X263888Y181048D01*
X259366Y187469D01*
X254687Y193778D01*
X249855Y199970D01*
X244872Y206042D01*
X239742Y211989D01*
X234467Y217809D01*
X229051Y223497D01*
X223497Y229051D01*
X217809Y234467D01*
X211989Y239742D01*
X206042Y244872D01*
X199970Y249855D01*
X193778Y254687D01*
X187469Y259366D01*
X181048Y263888D01*
X174517Y268252D01*
X167881Y272454D01*
X161144Y276492D01*
X154310Y280364D01*
X147384Y284066D01*
X140368Y287598D01*
X133268Y290956D01*
X126087Y294139D01*
X118830Y297144D01*
X111502Y299971D01*
X104107Y302617D01*
X96649Y305081D01*
X89133Y307361D01*
X81563Y309456D01*
X73944Y311364D01*
X66281Y313085D01*
X58577Y314617D01*
X50838Y315960D01*
X43069Y317113D01*
X35274Y318074D01*
X27457Y318844D01*
X19624Y319422D01*
X11779Y319807D01*
X3927Y320000D01*
X-3927Y320000D01*
X-11779Y319807D01*
X-19624Y319422D01*
X-27457Y318844D01*
X-35274Y318074D01*
X-43069Y317113D01*
X-50838Y315960D01*
X-58577Y314617D01*
X-66281Y313085D01*
X-73944Y311364D01*
X-81563Y309456D01*
X-89133Y307361D01*
X-96649Y305081D01*
X-104107Y302617D01*
X-111502Y299971D01*
X-118830Y297144D01*
X-126087Y294139D01*
X-133268Y290956D01*
X-140368Y287598D01*
X-147384Y284066D01*
X-154310Y280364D01*
X-161144Y276492D01*
X-167881Y272454D01*
X-174517Y268252D01*
X-181048Y263888D01*
X-187469Y259366D01*
X-193778Y254687D01*
X-199970Y249855D01*
X-206042Y244872D01*
X-211989Y239742D01*
X-217809Y234467D01*
X-223497Y229051D01*
X-229051Y223497D01*
X-234467Y217809D01*
X-239742Y211989D01*
X-244872Y206042D01*
X-249855Y199970D01*
X-254687Y193778D01*
X-259366Y187469D01*
X-263888Y181048D01*
X-268252Y174517D01*
X-272454Y167881D01*
X-276492Y161144D01*
X-280364Y154310D01*
X-284066Y147384D01*
X-287598Y140368D01*
X-290956Y133268D01*
X-294139Y126087D01*
X-297144Y118830D01*
X-299971Y111502D01*
X-302617Y104107D01*
X-305081Y96649D01*
X-307361Y89133D01*
X-309456Y81563D01*
X-311364Y73944D01*
X-313085Y66281D01*
X-314617Y58577D01*
X-315960Y50838D01*
X-317113Y43069D01*
X-318074Y35274D01*
X-318844Y27457D01*
X-319422Y19624D01*
X-319807Y11779D01*
X-320000Y3927D01*
X-320000Y-3927D01*
X-319807Y-11779D01*
X-319422Y-19624D01*
X-318844Y-27457D01*
X-318074Y-35274D01*
X-317113Y-43069D01*
X-315960Y-50838D01*
X-314617Y-58577D01*
X-313085Y-66281D01*
X-311364Y-73944D01*
X-309456Y-81563D01*
X-307361Y-89133D01*
X-305081Y-96649D01*
X-302617Y-104107D01*
X-299971Y-111502D01*
X-297144Y-118830D01*
X-294139Y-126087D01*
X-290956Y-133268D01*
X-287598Y-140368D01*
X-284066Y-147384D01*
X-280364Y-154310D01*
X-276492Y-161144D01*
X-272454Y-167881D01*
X-268252Y-174517D01*
X-263888Y-181048D01*
X-259366Y-187469D01*
X-254687Y-193778D01*
X-249855Y-199970D01*
X-244872Y-206042D01*
X-239742Y-211989D01*
X-234467Y-217809D01*
X-229051Y-223497D01*
X-223497Y-229051D01*
X-217809Y-234467D01*
X-211989Y-239742D01*
X-206042Y-244872D01*
X-199970Y-249855D01*
X-193778Y-254687D01*
X-187469Y-259366D01*
X-181048Y-263888D01*
X-174517Y-268252D01*
X-167881Y-272454D01*
X-161144Y-276492D01*
X-154310Y-280364D01*
X-147384Y-284066D01*
X-140368Y-287598D01*
X-133268Y-290956D01*
X-126087Y-294139D01*
X-118830Y-297144D01*
X-111502Y-299971D01*
X-104107Y-302617D01*
X-96649Y-305081D01*
X-89133Y-307361D01*
X-81563Y-309456D01*
X-73944Y-311364D01*
X-66281Y-313085D01*
X-58577Y-314617D01*
X-50838Y-315960D01*
X-43069Y-317113D01*
X-35274Y-318074D01*
X-27457Y-318844D01*
X-19624Y-319422D01*
X-11779Y-319807D01*
X-3927Y-320000D01*
X3927Y-320000D01*
X11779Y-319807D01*
X19624Y-319422D01*
X27457Y-318844D01*
X35274Y-318074D01*
X43069Y-317113D01*
X50838Y-315960D01*
X58577Y-314617D01*
X66281Y-313085D01*
X73944Y-311364D01*
X81563Y-309456D01*
X89133Y-307361D01*
X96649Y-305081D01*
X104107Y-302617D01*
X111502Y-299971D01*
X118830Y-297144D01*
X126087Y-294139D01*
X133268Y-290956D01*
X140368Y-287598D01*
X147384Y-284066D01*
X154310Y-280364D01*
X161144Y-276492D01*
X167881Y-272454D01*
X174517Y-268252D01*
X181048Y-263888D01*
X187469Y-259366D01*
X193778Y-254687D01*
X199970Y-249855D01*
X206042Y-244872D01*
X211989Y-239742D01*
X217809Y-234467D01*
X223497Y-229051D01*
X229051Y-223497D01*
X234467Y-217809D01*
X239742Y-211989D01*
X244872Y-206042D01*
X249855Y-199970D01*
X254687Y-193778D01*
X259366Y-187469D01*
X263888Y-181048D01*
X268252Y-174517D01*
X272454Y-167881D01*
X276492Y-161144D01*
X280364Y-154310D01*
X284066Y-147384D01*
X287598Y-140368D01*
X290956Y-133268D01*
X294139Y-126087D01*
X297144Y-118830D01*
X299971Y-111502D01*
X302617Y-104107D01*
X305081Y-96649D01*
X307361Y-89133D01*
X309456Y-81563D01*
X311364Y-73944D01*
X313085Y-66281D01*
X314617Y-58577D01*
X315960Y-50838D01*
X317113Y-43069D01*
X318074Y-35274D01*
X318844Y-27457D01*
X319422Y-19624D01*
X319807Y-11779D01*
X320000Y-3927D01*
M02*
