G04 EAGLE Gerber RS-274X export*
G75*
%MOMM*%
%FSLAX34Y34*%
%LPD*%
%INSilkscreen Top*%
%IPPOS*%
%AMOC8*
5,1,8,0,0,1.08239X$1,22.5*%
G01*
G04 Define Apertures*
%ADD10C,0.100000*%
%ADD11C,0.200000*%
G36*
X-86960Y218310D02*
X-87283Y218322D01*
X-87592Y218357D01*
X-87886Y218416D01*
X-88165Y218498D01*
X-88430Y218603D01*
X-88680Y218732D01*
X-88915Y218884D01*
X-89136Y219059D01*
X-89345Y219262D01*
X-89544Y219496D01*
X-89733Y219762D01*
X-89912Y220059D01*
X-90082Y220387D01*
X-90242Y220747D01*
X-90393Y221138D01*
X-90533Y221560D01*
X-90959Y221593D01*
X-91370Y221648D01*
X-91767Y221725D01*
X-92148Y221824D01*
X-92514Y221945D01*
X-92866Y222088D01*
X-93203Y222253D01*
X-93524Y222440D01*
X-93829Y222648D01*
X-94115Y222875D01*
X-94383Y223122D01*
X-94632Y223388D01*
X-94863Y223674D01*
X-95074Y223979D01*
X-95268Y224303D01*
X-95442Y224647D01*
X-95597Y225008D01*
X-95732Y225383D01*
X-95845Y225772D01*
X-95938Y226175D01*
X-96011Y226592D01*
X-96062Y227023D01*
X-96093Y227468D01*
X-96104Y227927D01*
X-96097Y228292D01*
X-96078Y228647D01*
X-96047Y228992D01*
X-96002Y229327D01*
X-95945Y229651D01*
X-95876Y229966D01*
X-95793Y230270D01*
X-95698Y230565D01*
X-95591Y230849D01*
X-95471Y231123D01*
X-95338Y231387D01*
X-95192Y231641D01*
X-94863Y232119D01*
X-94483Y232556D01*
X-94058Y232947D01*
X-93831Y233123D01*
X-93594Y233286D01*
X-93347Y233436D01*
X-93089Y233573D01*
X-92822Y233697D01*
X-92545Y233808D01*
X-92259Y233905D01*
X-91962Y233990D01*
X-91655Y234062D01*
X-91338Y234120D01*
X-91012Y234166D01*
X-90675Y234199D01*
X-90329Y234218D01*
X-89973Y234225D01*
X-89510Y234213D01*
X-89062Y234178D01*
X-88630Y234119D01*
X-88214Y234038D01*
X-87814Y233932D01*
X-87429Y233803D01*
X-87059Y233651D01*
X-86706Y233476D01*
X-86370Y233278D01*
X-86055Y233059D01*
X-85760Y232819D01*
X-85485Y232557D01*
X-85231Y232275D01*
X-84997Y231971D01*
X-84784Y231646D01*
X-84590Y231299D01*
X-84419Y230934D01*
X-84271Y230553D01*
X-84145Y230156D01*
X-84042Y229743D01*
X-83962Y229313D01*
X-83905Y228867D01*
X-83871Y228405D01*
X-83859Y227927D01*
X-83880Y227289D01*
X-83941Y226680D01*
X-84044Y226100D01*
X-84188Y225549D01*
X-84372Y225027D01*
X-84598Y224534D01*
X-84865Y224071D01*
X-85173Y223636D01*
X-85517Y223237D01*
X-85894Y222881D01*
X-86302Y222568D01*
X-86743Y222298D01*
X-87215Y222071D01*
X-87720Y221887D01*
X-88257Y221746D01*
X-88825Y221647D01*
X-88632Y221134D01*
X-88410Y220697D01*
X-88289Y220508D01*
X-88161Y220337D01*
X-88026Y220186D01*
X-87884Y220053D01*
X-87733Y219938D01*
X-87573Y219839D01*
X-87403Y219755D01*
X-87224Y219686D01*
X-87034Y219632D01*
X-86835Y219594D01*
X-86626Y219571D01*
X-86408Y219563D01*
X-86164Y219570D01*
X-85915Y219591D01*
X-85401Y219677D01*
X-85401Y218503D01*
X-85804Y218419D01*
X-86198Y218359D01*
X-86583Y218323D01*
X-86960Y218310D01*
G37*
%LPC*%
G36*
X-89990Y222882D02*
X-89471Y222903D01*
X-88984Y222965D01*
X-88527Y223068D01*
X-88102Y223212D01*
X-87707Y223397D01*
X-87344Y223624D01*
X-87011Y223892D01*
X-86710Y224201D01*
X-86442Y224547D01*
X-86210Y224928D01*
X-86014Y225343D01*
X-85853Y225791D01*
X-85728Y226274D01*
X-85638Y226791D01*
X-85585Y227342D01*
X-85567Y227927D01*
X-85585Y228488D01*
X-85639Y229017D01*
X-85729Y229516D01*
X-85855Y229983D01*
X-86017Y230420D01*
X-86215Y230826D01*
X-86449Y231201D01*
X-86719Y231545D01*
X-87022Y231853D01*
X-87354Y232119D01*
X-87716Y232345D01*
X-88108Y232530D01*
X-88530Y232674D01*
X-88981Y232776D01*
X-89462Y232838D01*
X-89973Y232858D01*
X-90487Y232838D01*
X-90972Y232777D01*
X-91427Y232676D01*
X-91851Y232534D01*
X-92246Y232352D01*
X-92610Y232129D01*
X-92944Y231866D01*
X-93248Y231562D01*
X-93519Y231222D01*
X-93754Y230849D01*
X-93953Y230443D01*
X-94115Y230005D01*
X-94242Y229535D01*
X-94332Y229031D01*
X-94386Y228496D01*
X-94404Y227927D01*
X-94386Y227362D01*
X-94331Y226827D01*
X-94240Y226321D01*
X-94112Y225846D01*
X-93948Y225401D01*
X-93747Y224985D01*
X-93509Y224600D01*
X-93235Y224244D01*
X-92929Y223925D01*
X-92594Y223649D01*
X-92231Y223414D01*
X-91839Y223223D01*
X-91419Y223074D01*
X-90971Y222968D01*
X-90495Y222904D01*
X-89990Y222882D01*
G37*
%LPD*%
G36*
X-73916Y221700D02*
X-81649Y221700D01*
X-81649Y223040D01*
X-78505Y223040D01*
X-78505Y232534D01*
X-81290Y230546D01*
X-81290Y232035D01*
X-78374Y234041D01*
X-76920Y234041D01*
X-76920Y223040D01*
X-73916Y223040D01*
X-73916Y221700D01*
G37*
G36*
X78040Y-272790D02*
X77717Y-272778D01*
X77408Y-272743D01*
X77114Y-272684D01*
X76835Y-272602D01*
X76570Y-272497D01*
X76320Y-272368D01*
X76085Y-272216D01*
X75864Y-272041D01*
X75655Y-271838D01*
X75456Y-271604D01*
X75267Y-271338D01*
X75088Y-271041D01*
X74918Y-270713D01*
X74758Y-270353D01*
X74608Y-269962D01*
X74467Y-269540D01*
X74041Y-269507D01*
X73630Y-269452D01*
X73233Y-269375D01*
X72852Y-269276D01*
X72486Y-269155D01*
X72134Y-269012D01*
X71798Y-268847D01*
X71476Y-268660D01*
X71171Y-268452D01*
X70885Y-268225D01*
X70617Y-267978D01*
X70368Y-267712D01*
X70137Y-267426D01*
X69926Y-267121D01*
X69732Y-266797D01*
X69558Y-266453D01*
X69403Y-266092D01*
X69268Y-265717D01*
X69155Y-265328D01*
X69062Y-264926D01*
X68989Y-264508D01*
X68938Y-264077D01*
X68907Y-263632D01*
X68896Y-263173D01*
X68903Y-262808D01*
X68922Y-262453D01*
X68953Y-262108D01*
X68998Y-261773D01*
X69055Y-261449D01*
X69124Y-261134D01*
X69207Y-260830D01*
X69302Y-260535D01*
X69409Y-260251D01*
X69529Y-259977D01*
X69662Y-259713D01*
X69808Y-259459D01*
X70137Y-258981D01*
X70517Y-258544D01*
X70942Y-258153D01*
X71169Y-257977D01*
X71406Y-257814D01*
X71654Y-257664D01*
X71911Y-257527D01*
X72178Y-257403D01*
X72455Y-257292D01*
X72741Y-257195D01*
X73038Y-257110D01*
X73345Y-257038D01*
X73662Y-256980D01*
X73988Y-256934D01*
X74325Y-256901D01*
X74671Y-256882D01*
X75027Y-256875D01*
X75490Y-256887D01*
X75938Y-256922D01*
X76370Y-256981D01*
X76786Y-257063D01*
X77186Y-257168D01*
X77571Y-257297D01*
X77941Y-257449D01*
X78294Y-257624D01*
X78630Y-257822D01*
X78946Y-258041D01*
X79241Y-258281D01*
X79515Y-258543D01*
X79769Y-258825D01*
X80003Y-259129D01*
X80217Y-259454D01*
X80410Y-259801D01*
X80581Y-260166D01*
X80730Y-260547D01*
X80855Y-260944D01*
X80958Y-261357D01*
X81038Y-261787D01*
X81095Y-262233D01*
X81129Y-262695D01*
X81141Y-263173D01*
X81120Y-263811D01*
X81059Y-264420D01*
X80956Y-265000D01*
X80812Y-265551D01*
X80628Y-266073D01*
X80402Y-266566D01*
X80135Y-267029D01*
X79827Y-267464D01*
X79483Y-267863D01*
X79106Y-268219D01*
X78698Y-268532D01*
X78257Y-268802D01*
X77785Y-269029D01*
X77280Y-269213D01*
X76743Y-269354D01*
X76175Y-269453D01*
X76368Y-269966D01*
X76590Y-270403D01*
X76711Y-270593D01*
X76839Y-270763D01*
X76974Y-270914D01*
X77116Y-271047D01*
X77267Y-271162D01*
X77427Y-271261D01*
X77597Y-271345D01*
X77777Y-271414D01*
X77966Y-271468D01*
X78165Y-271506D01*
X78374Y-271529D01*
X78592Y-271537D01*
X78836Y-271530D01*
X79085Y-271509D01*
X79599Y-271423D01*
X79599Y-272597D01*
X79197Y-272681D01*
X78802Y-272741D01*
X78417Y-272778D01*
X78040Y-272790D01*
G37*
%LPC*%
G36*
X75010Y-268218D02*
X75529Y-268197D01*
X76016Y-268135D01*
X76473Y-268032D01*
X76898Y-267888D01*
X77293Y-267703D01*
X77656Y-267476D01*
X77989Y-267208D01*
X78290Y-266899D01*
X78558Y-266553D01*
X78790Y-266172D01*
X78987Y-265758D01*
X79147Y-265309D01*
X79272Y-264826D01*
X79362Y-264309D01*
X79415Y-263758D01*
X79433Y-263173D01*
X79415Y-262612D01*
X79361Y-262083D01*
X79271Y-261584D01*
X79145Y-261117D01*
X78983Y-260680D01*
X78785Y-260274D01*
X78551Y-259899D01*
X78281Y-259555D01*
X77978Y-259248D01*
X77646Y-258981D01*
X77284Y-258755D01*
X76892Y-258570D01*
X76470Y-258426D01*
X76019Y-258324D01*
X75538Y-258262D01*
X75027Y-258242D01*
X74513Y-258262D01*
X74028Y-258323D01*
X73573Y-258424D01*
X73149Y-258566D01*
X72754Y-258748D01*
X72390Y-258971D01*
X72056Y-259234D01*
X71752Y-259538D01*
X71481Y-259878D01*
X71246Y-260251D01*
X71047Y-260657D01*
X70885Y-261095D01*
X70758Y-261565D01*
X70668Y-262069D01*
X70614Y-262604D01*
X70596Y-263173D01*
X70614Y-263738D01*
X70669Y-264273D01*
X70760Y-264779D01*
X70888Y-265254D01*
X71052Y-265699D01*
X71253Y-266115D01*
X71491Y-266500D01*
X71765Y-266856D01*
X72071Y-267175D01*
X72406Y-267452D01*
X72769Y-267686D01*
X73161Y-267877D01*
X73581Y-268026D01*
X74029Y-268133D01*
X74505Y-268196D01*
X75010Y-268218D01*
G37*
%LPD*%
G36*
X91058Y-269400D02*
X82887Y-269400D01*
X82887Y-268288D01*
X83122Y-267790D01*
X83382Y-267323D01*
X83667Y-266886D01*
X83977Y-266479D01*
X84303Y-266096D01*
X84637Y-265732D01*
X84980Y-265387D01*
X85330Y-265060D01*
X86036Y-264448D01*
X86736Y-263882D01*
X87398Y-263339D01*
X87993Y-262796D01*
X88260Y-262521D01*
X88500Y-262240D01*
X88713Y-261952D01*
X88899Y-261657D01*
X89051Y-261350D01*
X89159Y-261022D01*
X89224Y-260675D01*
X89245Y-260309D01*
X89236Y-260062D01*
X89208Y-259829D01*
X89161Y-259611D01*
X89096Y-259407D01*
X89013Y-259217D01*
X88910Y-259041D01*
X88789Y-258879D01*
X88650Y-258732D01*
X88493Y-258601D01*
X88323Y-258487D01*
X88138Y-258391D01*
X87938Y-258312D01*
X87724Y-258250D01*
X87495Y-258207D01*
X87252Y-258180D01*
X86994Y-258172D01*
X86748Y-258180D01*
X86513Y-258206D01*
X86289Y-258249D01*
X86076Y-258308D01*
X85874Y-258385D01*
X85683Y-258479D01*
X85503Y-258591D01*
X85335Y-258719D01*
X85180Y-258863D01*
X85042Y-259020D01*
X84921Y-259192D01*
X84817Y-259377D01*
X84729Y-259576D01*
X84659Y-259789D01*
X84605Y-260016D01*
X84568Y-260256D01*
X82957Y-260107D01*
X83015Y-259747D01*
X83101Y-259405D01*
X83215Y-259082D01*
X83358Y-258778D01*
X83530Y-258493D01*
X83729Y-258227D01*
X83957Y-257980D01*
X84213Y-257751D01*
X84493Y-257546D01*
X84793Y-257368D01*
X85112Y-257217D01*
X85449Y-257094D01*
X85807Y-256998D01*
X86183Y-256930D01*
X86579Y-256889D01*
X86994Y-256875D01*
X87447Y-256889D01*
X87873Y-256930D01*
X88272Y-256999D01*
X88644Y-257095D01*
X88989Y-257219D01*
X89307Y-257370D01*
X89598Y-257549D01*
X89863Y-257756D01*
X90098Y-257987D01*
X90301Y-258242D01*
X90474Y-258520D01*
X90615Y-258821D01*
X90725Y-259145D01*
X90803Y-259492D01*
X90850Y-259863D01*
X90866Y-260256D01*
X90845Y-260615D01*
X90783Y-260972D01*
X90681Y-261328D01*
X90537Y-261684D01*
X90353Y-262038D01*
X90129Y-262393D01*
X89865Y-262748D01*
X89561Y-263103D01*
X89163Y-263506D01*
X88617Y-264007D01*
X87923Y-264605D01*
X87082Y-265301D01*
X86604Y-265703D01*
X86178Y-266084D01*
X85803Y-266445D01*
X85479Y-266786D01*
X85202Y-267113D01*
X84967Y-267435D01*
X84773Y-267750D01*
X84621Y-268060D01*
X91058Y-268060D01*
X91058Y-269400D01*
G37*
G36*
X-275737Y-115154D02*
X-276102Y-115147D01*
X-276457Y-115128D01*
X-276802Y-115097D01*
X-277137Y-115052D01*
X-277461Y-114995D01*
X-277776Y-114926D01*
X-278080Y-114843D01*
X-278375Y-114748D01*
X-278659Y-114641D01*
X-278933Y-114521D01*
X-279197Y-114388D01*
X-279451Y-114242D01*
X-279929Y-113913D01*
X-280366Y-113533D01*
X-280757Y-113108D01*
X-280933Y-112881D01*
X-281096Y-112644D01*
X-281246Y-112397D01*
X-281383Y-112139D01*
X-281507Y-111872D01*
X-281618Y-111595D01*
X-281715Y-111309D01*
X-281800Y-111012D01*
X-281872Y-110705D01*
X-281930Y-110388D01*
X-281976Y-110062D01*
X-282009Y-109725D01*
X-282028Y-109379D01*
X-282035Y-109023D01*
X-282023Y-108560D01*
X-281988Y-108112D01*
X-281929Y-107680D01*
X-281848Y-107264D01*
X-281742Y-106864D01*
X-281613Y-106479D01*
X-281461Y-106109D01*
X-281286Y-105756D01*
X-281088Y-105420D01*
X-280869Y-105105D01*
X-280629Y-104810D01*
X-280367Y-104535D01*
X-280085Y-104281D01*
X-279781Y-104047D01*
X-279456Y-103834D01*
X-279109Y-103640D01*
X-278744Y-103469D01*
X-278363Y-103321D01*
X-277966Y-103195D01*
X-277553Y-103092D01*
X-277123Y-103012D01*
X-276677Y-102955D01*
X-276215Y-102921D01*
X-275737Y-102909D01*
X-275099Y-102930D01*
X-274490Y-102991D01*
X-273910Y-103094D01*
X-273359Y-103238D01*
X-272837Y-103422D01*
X-272344Y-103648D01*
X-271881Y-103915D01*
X-271446Y-104223D01*
X-271047Y-104567D01*
X-270691Y-104944D01*
X-270378Y-105352D01*
X-270108Y-105793D01*
X-269881Y-106265D01*
X-269697Y-106770D01*
X-269556Y-107307D01*
X-269457Y-107875D01*
X-268944Y-107682D01*
X-268507Y-107460D01*
X-268318Y-107339D01*
X-268147Y-107211D01*
X-267996Y-107076D01*
X-267863Y-106934D01*
X-267748Y-106783D01*
X-267649Y-106623D01*
X-267565Y-106453D01*
X-267496Y-106274D01*
X-267442Y-106084D01*
X-267404Y-105885D01*
X-267381Y-105676D01*
X-267373Y-105458D01*
X-267380Y-105214D01*
X-267401Y-104965D01*
X-267487Y-104451D01*
X-266313Y-104451D01*
X-266229Y-104854D01*
X-266169Y-105248D01*
X-266133Y-105633D01*
X-266120Y-106010D01*
X-266132Y-106333D01*
X-266167Y-106642D01*
X-266226Y-106936D01*
X-266308Y-107215D01*
X-266413Y-107480D01*
X-266542Y-107730D01*
X-266694Y-107965D01*
X-266869Y-108186D01*
X-267072Y-108395D01*
X-267306Y-108594D01*
X-267572Y-108783D01*
X-267869Y-108962D01*
X-268197Y-109132D01*
X-268557Y-109292D01*
X-268948Y-109443D01*
X-269370Y-109583D01*
X-269403Y-110009D01*
X-269458Y-110420D01*
X-269535Y-110817D01*
X-269634Y-111198D01*
X-269755Y-111564D01*
X-269898Y-111916D01*
X-270063Y-112253D01*
X-270250Y-112574D01*
X-270458Y-112879D01*
X-270685Y-113165D01*
X-270932Y-113433D01*
X-271198Y-113682D01*
X-271484Y-113913D01*
X-271789Y-114124D01*
X-272113Y-114318D01*
X-272457Y-114492D01*
X-272818Y-114647D01*
X-273193Y-114782D01*
X-273582Y-114895D01*
X-273985Y-114988D01*
X-274402Y-115061D01*
X-274833Y-115112D01*
X-275278Y-115143D01*
X-275737Y-115154D01*
G37*
%LPC*%
G36*
X-275737Y-113454D02*
X-275172Y-113436D01*
X-274637Y-113381D01*
X-274131Y-113290D01*
X-273656Y-113162D01*
X-273211Y-112998D01*
X-272795Y-112797D01*
X-272410Y-112559D01*
X-272054Y-112285D01*
X-271735Y-111979D01*
X-271459Y-111644D01*
X-271224Y-111281D01*
X-271033Y-110889D01*
X-270884Y-110469D01*
X-270778Y-110021D01*
X-270714Y-109545D01*
X-270692Y-109040D01*
X-270713Y-108521D01*
X-270775Y-108034D01*
X-270878Y-107577D01*
X-271022Y-107152D01*
X-271207Y-106757D01*
X-271434Y-106394D01*
X-271702Y-106061D01*
X-272011Y-105760D01*
X-272357Y-105492D01*
X-272738Y-105260D01*
X-273153Y-105064D01*
X-273601Y-104903D01*
X-274084Y-104778D01*
X-274601Y-104688D01*
X-275152Y-104635D01*
X-275737Y-104617D01*
X-276298Y-104635D01*
X-276827Y-104689D01*
X-277326Y-104779D01*
X-277793Y-104905D01*
X-278230Y-105067D01*
X-278636Y-105265D01*
X-279011Y-105499D01*
X-279355Y-105769D01*
X-279663Y-106072D01*
X-279929Y-106404D01*
X-280155Y-106766D01*
X-280340Y-107158D01*
X-280484Y-107580D01*
X-280586Y-108031D01*
X-280648Y-108512D01*
X-280668Y-109023D01*
X-280648Y-109537D01*
X-280587Y-110022D01*
X-280486Y-110477D01*
X-280344Y-110901D01*
X-280162Y-111296D01*
X-279939Y-111660D01*
X-279676Y-111994D01*
X-279372Y-112298D01*
X-279032Y-112569D01*
X-278659Y-112804D01*
X-278253Y-113003D01*
X-277815Y-113165D01*
X-277345Y-113292D01*
X-276841Y-113382D01*
X-276306Y-113436D01*
X-275737Y-113454D01*
G37*
%LPD*%
G36*
X-272681Y-101382D02*
X-272829Y-99753D01*
X-272564Y-99706D01*
X-272316Y-99642D01*
X-272085Y-99563D01*
X-271872Y-99467D01*
X-271675Y-99355D01*
X-271495Y-99227D01*
X-271333Y-99084D01*
X-271187Y-98924D01*
X-271059Y-98747D01*
X-270948Y-98555D01*
X-270854Y-98347D01*
X-270777Y-98123D01*
X-270717Y-97882D01*
X-270674Y-97626D01*
X-270648Y-97353D01*
X-270640Y-97065D01*
X-270649Y-96775D01*
X-270677Y-96501D01*
X-270722Y-96243D01*
X-270787Y-96001D01*
X-270869Y-95776D01*
X-270970Y-95566D01*
X-271089Y-95372D01*
X-271227Y-95195D01*
X-271382Y-95035D01*
X-271556Y-94898D01*
X-271747Y-94781D01*
X-271956Y-94685D01*
X-272183Y-94611D01*
X-272427Y-94558D01*
X-272689Y-94526D01*
X-272970Y-94516D01*
X-273215Y-94528D01*
X-273446Y-94564D01*
X-273663Y-94625D01*
X-273866Y-94710D01*
X-274056Y-94819D01*
X-274232Y-94952D01*
X-274394Y-95109D01*
X-274542Y-95291D01*
X-274674Y-95495D01*
X-274789Y-95721D01*
X-274886Y-95969D01*
X-274965Y-96238D01*
X-275027Y-96528D01*
X-275071Y-96840D01*
X-275098Y-97174D01*
X-275107Y-97529D01*
X-275107Y-98422D01*
X-276473Y-98422D01*
X-276473Y-97564D01*
X-276482Y-97249D01*
X-276508Y-96952D01*
X-276552Y-96673D01*
X-276614Y-96413D01*
X-276694Y-96171D01*
X-276791Y-95947D01*
X-276906Y-95741D01*
X-277038Y-95554D01*
X-277186Y-95386D01*
X-277348Y-95241D01*
X-277523Y-95119D01*
X-277711Y-95018D01*
X-277913Y-94940D01*
X-278129Y-94884D01*
X-278359Y-94851D01*
X-278601Y-94840D01*
X-278842Y-94849D01*
X-279070Y-94876D01*
X-279285Y-94922D01*
X-279487Y-94985D01*
X-279676Y-95067D01*
X-279852Y-95167D01*
X-280015Y-95286D01*
X-280165Y-95422D01*
X-280299Y-95577D01*
X-280416Y-95749D01*
X-280514Y-95939D01*
X-280595Y-96146D01*
X-280658Y-96371D01*
X-280703Y-96614D01*
X-280729Y-96874D01*
X-280738Y-97152D01*
X-280730Y-97406D01*
X-280705Y-97648D01*
X-280663Y-97878D01*
X-280605Y-98095D01*
X-280530Y-98299D01*
X-280438Y-98491D01*
X-280329Y-98671D01*
X-280204Y-98838D01*
X-280064Y-98991D01*
X-279910Y-99126D01*
X-279742Y-99245D01*
X-279560Y-99347D01*
X-279365Y-99432D01*
X-279156Y-99501D01*
X-278934Y-99552D01*
X-278698Y-99587D01*
X-278820Y-101172D01*
X-279189Y-101114D01*
X-279536Y-101028D01*
X-279863Y-100913D01*
X-280169Y-100770D01*
X-280454Y-100599D01*
X-280719Y-100400D01*
X-280962Y-100172D01*
X-281185Y-99915D01*
X-281384Y-99635D01*
X-281557Y-99336D01*
X-281703Y-99017D01*
X-281822Y-98679D01*
X-281915Y-98322D01*
X-281982Y-97946D01*
X-282021Y-97550D01*
X-282035Y-97135D01*
X-282021Y-96683D01*
X-281981Y-96258D01*
X-281913Y-95858D01*
X-281819Y-95485D01*
X-281698Y-95137D01*
X-281549Y-94815D01*
X-281374Y-94519D01*
X-281172Y-94249D01*
X-280946Y-94007D01*
X-280698Y-93798D01*
X-280430Y-93622D01*
X-280140Y-93477D01*
X-279828Y-93364D01*
X-279496Y-93284D01*
X-279143Y-93236D01*
X-278768Y-93220D01*
X-278479Y-93230D01*
X-278204Y-93261D01*
X-277943Y-93313D01*
X-277696Y-93385D01*
X-277463Y-93478D01*
X-277243Y-93591D01*
X-277037Y-93726D01*
X-276845Y-93881D01*
X-276668Y-94055D01*
X-276505Y-94249D01*
X-276357Y-94461D01*
X-276225Y-94692D01*
X-276107Y-94942D01*
X-276004Y-95210D01*
X-275916Y-95497D01*
X-275842Y-95803D01*
X-275807Y-95803D01*
X-275760Y-95467D01*
X-275694Y-95150D01*
X-275607Y-94852D01*
X-275501Y-94573D01*
X-275375Y-94313D01*
X-275229Y-94072D01*
X-275064Y-93851D01*
X-274879Y-93649D01*
X-274678Y-93468D01*
X-274464Y-93311D01*
X-274238Y-93179D01*
X-273999Y-93071D01*
X-273747Y-92986D01*
X-273483Y-92926D01*
X-273206Y-92890D01*
X-272917Y-92878D01*
X-272502Y-92895D01*
X-272111Y-92946D01*
X-271745Y-93031D01*
X-271402Y-93149D01*
X-271083Y-93302D01*
X-270789Y-93489D01*
X-270518Y-93709D01*
X-270272Y-93964D01*
X-270052Y-94250D01*
X-269862Y-94565D01*
X-269701Y-94909D01*
X-269569Y-95282D01*
X-269467Y-95684D01*
X-269393Y-96115D01*
X-269350Y-96575D01*
X-269335Y-97065D01*
X-269348Y-97521D01*
X-269388Y-97954D01*
X-269454Y-98364D01*
X-269546Y-98749D01*
X-269665Y-99111D01*
X-269810Y-99450D01*
X-269982Y-99765D01*
X-270180Y-100056D01*
X-270404Y-100321D01*
X-270653Y-100557D01*
X-270928Y-100766D01*
X-271228Y-100946D01*
X-271553Y-101097D01*
X-271904Y-101221D01*
X-272279Y-101316D01*
X-272681Y-101382D01*
G37*
G36*
X272090Y51120D02*
X271767Y51132D01*
X271458Y51167D01*
X271164Y51226D01*
X270885Y51308D01*
X270620Y51413D01*
X270370Y51542D01*
X270135Y51694D01*
X269914Y51869D01*
X269705Y52072D01*
X269506Y52306D01*
X269317Y52572D01*
X269138Y52869D01*
X268968Y53197D01*
X268808Y53557D01*
X268658Y53948D01*
X268517Y54370D01*
X268091Y54403D01*
X267680Y54458D01*
X267283Y54535D01*
X266902Y54634D01*
X266536Y54755D01*
X266184Y54898D01*
X265848Y55063D01*
X265526Y55250D01*
X265221Y55458D01*
X264935Y55685D01*
X264667Y55932D01*
X264418Y56198D01*
X264187Y56484D01*
X263976Y56789D01*
X263782Y57113D01*
X263608Y57457D01*
X263453Y57818D01*
X263318Y58193D01*
X263205Y58582D01*
X263112Y58985D01*
X263039Y59402D01*
X262988Y59833D01*
X262957Y60278D01*
X262946Y60737D01*
X262953Y61102D01*
X262972Y61457D01*
X263003Y61802D01*
X263048Y62137D01*
X263105Y62461D01*
X263174Y62776D01*
X263257Y63080D01*
X263352Y63375D01*
X263459Y63659D01*
X263579Y63933D01*
X263712Y64197D01*
X263858Y64451D01*
X264187Y64929D01*
X264567Y65366D01*
X264992Y65757D01*
X265219Y65933D01*
X265456Y66096D01*
X265704Y66246D01*
X265961Y66383D01*
X266228Y66507D01*
X266505Y66618D01*
X266791Y66715D01*
X267088Y66800D01*
X267395Y66872D01*
X267712Y66930D01*
X268038Y66976D01*
X268375Y67009D01*
X268721Y67028D01*
X269077Y67035D01*
X269540Y67023D01*
X269988Y66988D01*
X270420Y66929D01*
X270836Y66848D01*
X271236Y66742D01*
X271621Y66613D01*
X271991Y66461D01*
X272344Y66286D01*
X272680Y66088D01*
X272996Y65869D01*
X273291Y65629D01*
X273565Y65367D01*
X273819Y65085D01*
X274053Y64781D01*
X274267Y64456D01*
X274460Y64109D01*
X274631Y63744D01*
X274780Y63363D01*
X274905Y62966D01*
X275008Y62553D01*
X275088Y62123D01*
X275145Y61677D01*
X275179Y61215D01*
X275191Y60737D01*
X275170Y60099D01*
X275109Y59490D01*
X275006Y58910D01*
X274862Y58359D01*
X274678Y57837D01*
X274452Y57344D01*
X274185Y56881D01*
X273877Y56446D01*
X273533Y56047D01*
X273156Y55691D01*
X272748Y55378D01*
X272307Y55108D01*
X271835Y54881D01*
X271330Y54697D01*
X270793Y54556D01*
X270225Y54457D01*
X270418Y53944D01*
X270640Y53507D01*
X270761Y53318D01*
X270889Y53147D01*
X271024Y52996D01*
X271166Y52863D01*
X271317Y52748D01*
X271477Y52649D01*
X271647Y52565D01*
X271827Y52496D01*
X272016Y52442D01*
X272215Y52404D01*
X272424Y52381D01*
X272642Y52373D01*
X272886Y52380D01*
X273135Y52401D01*
X273649Y52487D01*
X273649Y51313D01*
X273247Y51229D01*
X272852Y51169D01*
X272467Y51133D01*
X272090Y51120D01*
G37*
%LPC*%
G36*
X269060Y55692D02*
X269579Y55713D01*
X270066Y55775D01*
X270523Y55878D01*
X270948Y56022D01*
X271343Y56207D01*
X271706Y56434D01*
X272039Y56702D01*
X272340Y57011D01*
X272608Y57357D01*
X272840Y57738D01*
X273037Y58153D01*
X273197Y58601D01*
X273322Y59084D01*
X273412Y59601D01*
X273465Y60152D01*
X273483Y60737D01*
X273465Y61298D01*
X273411Y61827D01*
X273321Y62326D01*
X273195Y62793D01*
X273033Y63230D01*
X272835Y63636D01*
X272601Y64011D01*
X272331Y64355D01*
X272028Y64663D01*
X271696Y64929D01*
X271334Y65155D01*
X270942Y65340D01*
X270520Y65484D01*
X270069Y65586D01*
X269588Y65648D01*
X269077Y65668D01*
X268563Y65648D01*
X268078Y65587D01*
X267623Y65486D01*
X267199Y65344D01*
X266804Y65162D01*
X266440Y64939D01*
X266106Y64676D01*
X265802Y64372D01*
X265531Y64032D01*
X265296Y63659D01*
X265097Y63253D01*
X264935Y62815D01*
X264808Y62345D01*
X264718Y61841D01*
X264664Y61306D01*
X264646Y60737D01*
X264664Y60172D01*
X264719Y59637D01*
X264810Y59131D01*
X264938Y58656D01*
X265102Y58211D01*
X265303Y57795D01*
X265541Y57410D01*
X265815Y57054D01*
X266121Y56735D01*
X266456Y56459D01*
X266819Y56224D01*
X267211Y56033D01*
X267631Y55884D01*
X268079Y55778D01*
X268555Y55714D01*
X269060Y55692D01*
G37*
%LPD*%
G36*
X283751Y54510D02*
X282262Y54510D01*
X282262Y57304D01*
X276446Y57304D01*
X276446Y58530D01*
X282095Y66851D01*
X283751Y66851D01*
X283751Y58548D01*
X285485Y58548D01*
X285485Y57304D01*
X283751Y57304D01*
X283751Y54510D01*
G37*
%LPC*%
G36*
X282262Y58548D02*
X282262Y65073D01*
X282016Y64609D01*
X281675Y64031D01*
X278513Y59371D01*
X278040Y58723D01*
X277900Y58548D01*
X282262Y58548D01*
G37*
%LPD*%
G36*
X132123Y210499D02*
X131848Y210805D01*
X131599Y211117D01*
X131375Y211432D01*
X131176Y211752D01*
X131025Y212038D01*
X130901Y212323D01*
X130804Y212607D01*
X130736Y212890D01*
X130694Y213172D01*
X130681Y213453D01*
X130695Y213733D01*
X130736Y214012D01*
X130808Y214294D01*
X130911Y214583D01*
X131047Y214880D01*
X131214Y215184D01*
X131413Y215495D01*
X131645Y215813D01*
X131908Y216139D01*
X132203Y216472D01*
X132019Y216857D01*
X131861Y217241D01*
X131729Y217622D01*
X131624Y218002D01*
X131546Y218380D01*
X131494Y218756D01*
X131469Y219130D01*
X131470Y219502D01*
X131498Y219870D01*
X131551Y220232D01*
X131631Y220587D01*
X131737Y220936D01*
X131869Y221278D01*
X132028Y221614D01*
X132212Y221944D01*
X132423Y222267D01*
X132657Y222581D01*
X132915Y222885D01*
X133195Y223178D01*
X133497Y223460D01*
X133822Y223731D01*
X134170Y223992D01*
X134540Y224241D01*
X134933Y224480D01*
X135252Y224657D01*
X135569Y224818D01*
X135883Y224963D01*
X136195Y225092D01*
X136505Y225205D01*
X136812Y225302D01*
X137117Y225383D01*
X137419Y225448D01*
X137719Y225496D01*
X138017Y225529D01*
X138312Y225546D01*
X138605Y225547D01*
X139183Y225501D01*
X139751Y225391D01*
X140303Y225218D01*
X140569Y225109D01*
X140828Y224985D01*
X141082Y224846D01*
X141329Y224692D01*
X141570Y224523D01*
X141804Y224338D01*
X142032Y224139D01*
X142254Y223924D01*
X142469Y223694D01*
X142679Y223449D01*
X142881Y223189D01*
X143078Y222914D01*
X143268Y222624D01*
X143452Y222319D01*
X143673Y221912D01*
X143866Y221507D01*
X144032Y221104D01*
X144169Y220702D01*
X144278Y220303D01*
X144359Y219905D01*
X144412Y219509D01*
X144437Y219115D01*
X144433Y218725D01*
X144401Y218343D01*
X144341Y217967D01*
X144252Y217599D01*
X144134Y217237D01*
X143988Y216883D01*
X143813Y216535D01*
X143609Y216195D01*
X143379Y215864D01*
X143123Y215545D01*
X142842Y215237D01*
X142535Y214942D01*
X142203Y214658D01*
X141846Y214385D01*
X141463Y214125D01*
X141055Y213876D01*
X140492Y213574D01*
X139934Y213323D01*
X139380Y213122D01*
X138831Y212971D01*
X138287Y212870D01*
X137747Y212819D01*
X137212Y212818D01*
X136681Y212868D01*
X136164Y212966D01*
X135667Y213114D01*
X135192Y213312D01*
X134738Y213558D01*
X134305Y213854D01*
X133893Y214199D01*
X133503Y214593D01*
X133133Y215036D01*
X132785Y214612D01*
X132518Y214202D01*
X132414Y214002D01*
X132330Y213806D01*
X132267Y213613D01*
X132224Y213424D01*
X132199Y213236D01*
X132193Y213048D01*
X132205Y212858D01*
X132235Y212668D01*
X132283Y212478D01*
X132350Y212286D01*
X132434Y212094D01*
X132537Y211901D01*
X132665Y211693D01*
X132808Y211488D01*
X133139Y211085D01*
X132123Y210499D01*
G37*
%LPC*%
G36*
X137282Y214412D02*
X137739Y214449D01*
X138208Y214534D01*
X138689Y214667D01*
X139181Y214849D01*
X139685Y215078D01*
X140201Y215355D01*
X140677Y215651D01*
X141109Y215962D01*
X141496Y216289D01*
X141837Y216632D01*
X142135Y216991D01*
X142387Y217365D01*
X142595Y217755D01*
X142758Y218161D01*
X142873Y218577D01*
X142938Y218998D01*
X142952Y219425D01*
X142916Y219857D01*
X142830Y220294D01*
X142693Y220736D01*
X142506Y221183D01*
X142269Y221636D01*
X141994Y222071D01*
X141699Y222461D01*
X141384Y222804D01*
X141049Y223101D01*
X140693Y223351D01*
X140318Y223555D01*
X139923Y223713D01*
X139508Y223824D01*
X139078Y223889D01*
X138637Y223906D01*
X138187Y223875D01*
X137726Y223797D01*
X137255Y223671D01*
X136774Y223498D01*
X136283Y223277D01*
X135782Y223008D01*
X135302Y222710D01*
X134866Y222395D01*
X134474Y222063D01*
X134126Y221714D01*
X133822Y221349D01*
X133563Y220967D01*
X133348Y220569D01*
X133177Y220154D01*
X133054Y219729D01*
X132982Y219301D01*
X132961Y218869D01*
X132991Y218434D01*
X133071Y217996D01*
X133203Y217555D01*
X133386Y217111D01*
X133620Y216663D01*
X133897Y216224D01*
X134195Y215832D01*
X134512Y215488D01*
X134850Y215192D01*
X135208Y214943D01*
X135586Y214742D01*
X135984Y214588D01*
X136402Y214481D01*
X136836Y214422D01*
X137282Y214412D01*
G37*
%LPD*%
G36*
X142117Y203389D02*
X141718Y203389D01*
X141324Y203433D01*
X140934Y203522D01*
X140554Y203654D01*
X140191Y203828D01*
X139844Y204044D01*
X139513Y204301D01*
X139199Y204601D01*
X138901Y204942D01*
X138619Y205325D01*
X138354Y205749D01*
X138153Y206120D01*
X137984Y206484D01*
X137845Y206842D01*
X137737Y207194D01*
X137660Y207539D01*
X137614Y207878D01*
X137598Y208211D01*
X137613Y208538D01*
X137659Y208856D01*
X137735Y209164D01*
X137842Y209461D01*
X137979Y209748D01*
X138147Y210024D01*
X138345Y210290D01*
X138573Y210545D01*
X138832Y210789D01*
X139788Y209500D01*
X139631Y209330D01*
X139491Y209157D01*
X139371Y208980D01*
X139268Y208799D01*
X139185Y208615D01*
X139120Y208428D01*
X139073Y208237D01*
X139045Y208042D01*
X139035Y207844D01*
X139044Y207643D01*
X139072Y207438D01*
X139117Y207230D01*
X139182Y207018D01*
X139265Y206803D01*
X139366Y206585D01*
X139486Y206363D01*
X139651Y206101D01*
X139828Y205867D01*
X140017Y205659D01*
X140218Y205478D01*
X140431Y205324D01*
X140657Y205197D01*
X140894Y205097D01*
X141144Y205024D01*
X141402Y204979D01*
X141664Y204961D01*
X141930Y204973D01*
X142201Y205013D01*
X142476Y205081D01*
X142756Y205177D01*
X143039Y205302D01*
X143327Y205455D01*
X143568Y205607D01*
X143785Y205772D01*
X143979Y205949D01*
X144149Y206138D01*
X144296Y206341D01*
X144420Y206555D01*
X144520Y206783D01*
X144597Y207023D01*
X144648Y207270D01*
X144672Y207520D01*
X144669Y207772D01*
X144639Y208027D01*
X144581Y208284D01*
X144496Y208543D01*
X144384Y208805D01*
X144244Y209069D01*
X144076Y209335D01*
X143892Y209579D01*
X143691Y209801D01*
X143474Y210000D01*
X143234Y210180D01*
X142963Y210342D01*
X142662Y210487D01*
X142331Y210614D01*
X141560Y211949D01*
X147515Y214912D01*
X151023Y208837D01*
X149863Y208167D01*
X147073Y212998D01*
X143564Y211246D01*
X143856Y211109D01*
X144135Y210947D01*
X144400Y210759D01*
X144651Y210546D01*
X144889Y210306D01*
X145113Y210041D01*
X145324Y209750D01*
X145521Y209433D01*
X145729Y209040D01*
X145896Y208650D01*
X146022Y208264D01*
X146108Y207882D01*
X146154Y207502D01*
X146159Y207126D01*
X146124Y206753D01*
X146048Y206384D01*
X145934Y206026D01*
X145787Y205687D01*
X145604Y205367D01*
X145388Y205066D01*
X145137Y204784D01*
X144851Y204522D01*
X144531Y204279D01*
X144176Y204054D01*
X143756Y203833D01*
X143340Y203655D01*
X142928Y203522D01*
X142520Y203433D01*
X142117Y203389D01*
G37*
G36*
X233494Y-163980D02*
X233171Y-163968D01*
X232862Y-163933D01*
X232568Y-163874D01*
X232289Y-163792D01*
X232024Y-163687D01*
X231774Y-163558D01*
X231539Y-163406D01*
X231318Y-163231D01*
X231109Y-163028D01*
X230910Y-162794D01*
X230721Y-162528D01*
X230542Y-162231D01*
X230372Y-161903D01*
X230212Y-161543D01*
X230062Y-161152D01*
X229921Y-160730D01*
X229495Y-160697D01*
X229084Y-160642D01*
X228687Y-160565D01*
X228306Y-160466D01*
X227940Y-160345D01*
X227588Y-160202D01*
X227252Y-160037D01*
X226930Y-159850D01*
X226625Y-159642D01*
X226339Y-159415D01*
X226071Y-159168D01*
X225822Y-158902D01*
X225591Y-158616D01*
X225380Y-158311D01*
X225186Y-157987D01*
X225012Y-157643D01*
X224857Y-157282D01*
X224722Y-156907D01*
X224609Y-156518D01*
X224516Y-156116D01*
X224443Y-155698D01*
X224392Y-155267D01*
X224361Y-154822D01*
X224350Y-154363D01*
X224357Y-153998D01*
X224376Y-153643D01*
X224407Y-153298D01*
X224452Y-152963D01*
X224509Y-152639D01*
X224578Y-152324D01*
X224661Y-152020D01*
X224756Y-151725D01*
X224863Y-151441D01*
X224983Y-151167D01*
X225116Y-150903D01*
X225262Y-150649D01*
X225591Y-150171D01*
X225971Y-149734D01*
X226396Y-149343D01*
X226623Y-149167D01*
X226860Y-149004D01*
X227108Y-148854D01*
X227365Y-148717D01*
X227632Y-148593D01*
X227909Y-148482D01*
X228195Y-148385D01*
X228492Y-148300D01*
X228799Y-148228D01*
X229116Y-148170D01*
X229442Y-148124D01*
X229779Y-148091D01*
X230125Y-148072D01*
X230481Y-148065D01*
X230944Y-148077D01*
X231392Y-148112D01*
X231824Y-148171D01*
X232240Y-148253D01*
X232640Y-148358D01*
X233025Y-148487D01*
X233395Y-148639D01*
X233748Y-148814D01*
X234084Y-149012D01*
X234400Y-149231D01*
X234695Y-149471D01*
X234969Y-149733D01*
X235223Y-150015D01*
X235457Y-150319D01*
X235671Y-150644D01*
X235864Y-150991D01*
X236035Y-151356D01*
X236184Y-151737D01*
X236309Y-152134D01*
X236412Y-152547D01*
X236492Y-152977D01*
X236549Y-153423D01*
X236583Y-153885D01*
X236595Y-154363D01*
X236574Y-155001D01*
X236513Y-155610D01*
X236410Y-156190D01*
X236266Y-156741D01*
X236082Y-157263D01*
X235856Y-157756D01*
X235589Y-158219D01*
X235281Y-158654D01*
X234937Y-159053D01*
X234560Y-159409D01*
X234152Y-159722D01*
X233711Y-159992D01*
X233239Y-160219D01*
X232734Y-160403D01*
X232197Y-160544D01*
X231629Y-160643D01*
X231822Y-161156D01*
X232044Y-161593D01*
X232165Y-161783D01*
X232293Y-161953D01*
X232428Y-162104D01*
X232570Y-162237D01*
X232721Y-162352D01*
X232881Y-162451D01*
X233051Y-162535D01*
X233231Y-162604D01*
X233420Y-162658D01*
X233619Y-162696D01*
X233828Y-162719D01*
X234046Y-162727D01*
X234290Y-162720D01*
X234539Y-162699D01*
X235053Y-162613D01*
X235053Y-163787D01*
X234651Y-163871D01*
X234256Y-163931D01*
X233871Y-163968D01*
X233494Y-163980D01*
G37*
%LPC*%
G36*
X230464Y-159408D02*
X230983Y-159387D01*
X231470Y-159325D01*
X231927Y-159222D01*
X232352Y-159078D01*
X232747Y-158893D01*
X233110Y-158666D01*
X233443Y-158398D01*
X233744Y-158089D01*
X234012Y-157743D01*
X234244Y-157362D01*
X234441Y-156948D01*
X234601Y-156499D01*
X234726Y-156016D01*
X234816Y-155499D01*
X234869Y-154948D01*
X234887Y-154363D01*
X234869Y-153802D01*
X234815Y-153273D01*
X234725Y-152774D01*
X234599Y-152307D01*
X234437Y-151870D01*
X234239Y-151464D01*
X234005Y-151089D01*
X233735Y-150745D01*
X233432Y-150438D01*
X233100Y-150171D01*
X232738Y-149945D01*
X232346Y-149760D01*
X231924Y-149616D01*
X231473Y-149514D01*
X230992Y-149452D01*
X230481Y-149432D01*
X229967Y-149452D01*
X229482Y-149513D01*
X229027Y-149614D01*
X228603Y-149756D01*
X228208Y-149938D01*
X227844Y-150161D01*
X227510Y-150424D01*
X227206Y-150728D01*
X226935Y-151068D01*
X226700Y-151441D01*
X226501Y-151847D01*
X226339Y-152285D01*
X226212Y-152755D01*
X226122Y-153259D01*
X226068Y-153794D01*
X226050Y-154363D01*
X226068Y-154928D01*
X226123Y-155463D01*
X226214Y-155969D01*
X226342Y-156444D01*
X226506Y-156889D01*
X226707Y-157305D01*
X226945Y-157690D01*
X227219Y-158046D01*
X227525Y-158365D01*
X227860Y-158642D01*
X228223Y-158876D01*
X228615Y-159067D01*
X229035Y-159216D01*
X229483Y-159323D01*
X229959Y-159386D01*
X230464Y-159408D01*
G37*
%LPD*%
G36*
X242641Y-160765D02*
X242384Y-160759D01*
X242135Y-160741D01*
X241660Y-160668D01*
X241215Y-160547D01*
X240802Y-160378D01*
X240418Y-160160D01*
X240066Y-159893D01*
X239744Y-159578D01*
X239453Y-159215D01*
X239194Y-158805D01*
X238970Y-158352D01*
X238780Y-157854D01*
X238625Y-157312D01*
X238504Y-156726D01*
X238418Y-156096D01*
X238367Y-155422D01*
X238349Y-154704D01*
X238367Y-153926D01*
X238421Y-153195D01*
X238511Y-152509D01*
X238636Y-151871D01*
X238797Y-151279D01*
X238995Y-150733D01*
X239228Y-150234D01*
X239497Y-149782D01*
X239799Y-149380D01*
X240131Y-149031D01*
X240494Y-148736D01*
X240887Y-148494D01*
X241311Y-148307D01*
X241534Y-148233D01*
X241765Y-148173D01*
X242003Y-148126D01*
X242249Y-148092D01*
X242502Y-148072D01*
X242764Y-148065D01*
X243105Y-148075D01*
X243430Y-148105D01*
X243739Y-148154D01*
X244031Y-148222D01*
X244308Y-148311D01*
X244568Y-148419D01*
X244813Y-148546D01*
X245041Y-148694D01*
X245253Y-148861D01*
X245449Y-149047D01*
X245628Y-149253D01*
X245792Y-149479D01*
X245939Y-149725D01*
X246070Y-149990D01*
X246186Y-150275D01*
X246285Y-150579D01*
X244778Y-150851D01*
X244645Y-150497D01*
X244477Y-150191D01*
X244275Y-149933D01*
X244038Y-149721D01*
X243767Y-149556D01*
X243461Y-149438D01*
X243121Y-149368D01*
X242746Y-149344D01*
X242418Y-149364D01*
X242110Y-149423D01*
X241820Y-149521D01*
X241549Y-149658D01*
X241298Y-149835D01*
X241065Y-150051D01*
X240852Y-150306D01*
X240657Y-150601D01*
X240484Y-150933D01*
X240333Y-151300D01*
X240206Y-151702D01*
X240102Y-152139D01*
X240021Y-152612D01*
X239963Y-153119D01*
X239929Y-153662D01*
X239917Y-154240D01*
X240154Y-153865D01*
X240434Y-153538D01*
X240758Y-153259D01*
X241126Y-153027D01*
X241530Y-152845D01*
X241962Y-152715D01*
X242189Y-152670D01*
X242423Y-152637D01*
X242664Y-152617D01*
X242912Y-152611D01*
X243328Y-152628D01*
X243722Y-152678D01*
X244094Y-152761D01*
X244444Y-152878D01*
X244772Y-153028D01*
X245078Y-153212D01*
X245362Y-153429D01*
X245623Y-153680D01*
X245858Y-153958D01*
X246062Y-154260D01*
X246234Y-154584D01*
X246375Y-154932D01*
X246485Y-155303D01*
X246563Y-155696D01*
X246610Y-156113D01*
X246626Y-156552D01*
X246610Y-157028D01*
X246560Y-157477D01*
X246477Y-157901D01*
X246361Y-158300D01*
X246212Y-158672D01*
X246030Y-159019D01*
X245815Y-159340D01*
X245566Y-159635D01*
X245289Y-159900D01*
X244986Y-160130D01*
X244658Y-160324D01*
X244305Y-160483D01*
X243927Y-160606D01*
X243523Y-160695D01*
X243095Y-160748D01*
X242641Y-160765D01*
G37*
%LPC*%
G36*
X242588Y-159495D02*
X242865Y-159483D01*
X243127Y-159447D01*
X243373Y-159387D01*
X243604Y-159304D01*
X243820Y-159196D01*
X244020Y-159064D01*
X244205Y-158908D01*
X244375Y-158729D01*
X244527Y-158528D01*
X244659Y-158310D01*
X244770Y-158073D01*
X244861Y-157819D01*
X244932Y-157547D01*
X244983Y-157257D01*
X245013Y-156948D01*
X245023Y-156622D01*
X245013Y-156297D01*
X244982Y-155991D01*
X244931Y-155704D01*
X244859Y-155436D01*
X244767Y-155187D01*
X244654Y-154957D01*
X244520Y-154747D01*
X244366Y-154555D01*
X244194Y-154385D01*
X244006Y-154237D01*
X243801Y-154112D01*
X243580Y-154010D01*
X243343Y-153931D01*
X243090Y-153874D01*
X242821Y-153840D01*
X242536Y-153828D01*
X242267Y-153838D01*
X242011Y-153869D01*
X241768Y-153919D01*
X241538Y-153989D01*
X241322Y-154080D01*
X241119Y-154191D01*
X240930Y-154321D01*
X240753Y-154472D01*
X240594Y-154641D01*
X240457Y-154824D01*
X240340Y-155023D01*
X240244Y-155237D01*
X240170Y-155467D01*
X240117Y-155711D01*
X240085Y-155971D01*
X240075Y-156246D01*
X240086Y-156595D01*
X240119Y-156927D01*
X240174Y-157244D01*
X240251Y-157544D01*
X240350Y-157828D01*
X240471Y-158097D01*
X240615Y-158349D01*
X240780Y-158584D01*
X240962Y-158798D01*
X241157Y-158983D01*
X241365Y-159139D01*
X241584Y-159267D01*
X241817Y-159367D01*
X242062Y-159438D01*
X242319Y-159481D01*
X242588Y-159495D01*
G37*
%LPD*%
G36*
X-238175Y90515D02*
X-238541Y90534D01*
X-238910Y90579D01*
X-239281Y90651D01*
X-239654Y90750D01*
X-240026Y90875D01*
X-240395Y91025D01*
X-240760Y91199D01*
X-241123Y91399D01*
X-241482Y91623D01*
X-241838Y91872D01*
X-242190Y92145D01*
X-242540Y92444D01*
X-242807Y92692D01*
X-243059Y92942D01*
X-243295Y93196D01*
X-243515Y93452D01*
X-243719Y93711D01*
X-243907Y93972D01*
X-244079Y94237D01*
X-244236Y94504D01*
X-244376Y94773D01*
X-244500Y95046D01*
X-244608Y95321D01*
X-244701Y95599D01*
X-244837Y96162D01*
X-244910Y96737D01*
X-244919Y97314D01*
X-244898Y97601D01*
X-244861Y97887D01*
X-244808Y98171D01*
X-244739Y98454D01*
X-244653Y98735D01*
X-244551Y99016D01*
X-244433Y99295D01*
X-244298Y99572D01*
X-244147Y99849D01*
X-243980Y100124D01*
X-243797Y100398D01*
X-243597Y100670D01*
X-243380Y100942D01*
X-243148Y101212D01*
X-242830Y101549D01*
X-242506Y101859D01*
X-242175Y102142D01*
X-241836Y102398D01*
X-241491Y102626D01*
X-241138Y102827D01*
X-240778Y103001D01*
X-240412Y103148D01*
X-240041Y103266D01*
X-239667Y103355D01*
X-239291Y103415D01*
X-238913Y103446D01*
X-238533Y103447D01*
X-238151Y103418D01*
X-237766Y103361D01*
X-237379Y103274D01*
X-236993Y103158D01*
X-236610Y103015D01*
X-236230Y102844D01*
X-235853Y102645D01*
X-235480Y102418D01*
X-235109Y102164D01*
X-234742Y101882D01*
X-234378Y101572D01*
X-233916Y101131D01*
X-233503Y100679D01*
X-233139Y100216D01*
X-232824Y99742D01*
X-232558Y99256D01*
X-232341Y98759D01*
X-232173Y98251D01*
X-232055Y97732D01*
X-231987Y97209D01*
X-231972Y96691D01*
X-232011Y96178D01*
X-232104Y95670D01*
X-232249Y95166D01*
X-232448Y94667D01*
X-232701Y94173D01*
X-233007Y93684D01*
X-232495Y93486D01*
X-232022Y93360D01*
X-231800Y93324D01*
X-231587Y93305D01*
X-231384Y93305D01*
X-231191Y93323D01*
X-231005Y93359D01*
X-230824Y93412D01*
X-230648Y93482D01*
X-230477Y93570D01*
X-230310Y93675D01*
X-230149Y93798D01*
X-229993Y93939D01*
X-229842Y94096D01*
X-229685Y94283D01*
X-229534Y94483D01*
X-229255Y94923D01*
X-228380Y94141D01*
X-228586Y93784D01*
X-228804Y93450D01*
X-229034Y93139D01*
X-229276Y92850D01*
X-229500Y92617D01*
X-229732Y92410D01*
X-229971Y92230D01*
X-230219Y92076D01*
X-230474Y91949D01*
X-230736Y91849D01*
X-231007Y91774D01*
X-231285Y91727D01*
X-231575Y91707D01*
X-231882Y91714D01*
X-232206Y91750D01*
X-232547Y91814D01*
X-232905Y91907D01*
X-233280Y92027D01*
X-233671Y92176D01*
X-234080Y92352D01*
X-234388Y92056D01*
X-234703Y91787D01*
X-235025Y91542D01*
X-235353Y91324D01*
X-235687Y91132D01*
X-236028Y90965D01*
X-236376Y90824D01*
X-236730Y90709D01*
X-237088Y90620D01*
X-237448Y90558D01*
X-237811Y90523D01*
X-238175Y90515D01*
G37*
%LPC*%
G36*
X-237882Y92127D02*
X-237440Y92143D01*
X-237010Y92208D01*
X-236594Y92323D01*
X-236190Y92487D01*
X-235799Y92701D01*
X-235421Y92964D01*
X-235056Y93276D01*
X-234704Y93638D01*
X-234373Y94039D01*
X-234094Y94444D01*
X-233867Y94853D01*
X-233691Y95266D01*
X-233566Y95684D01*
X-233493Y96106D01*
X-233471Y96532D01*
X-233500Y96962D01*
X-233580Y97393D01*
X-233709Y97820D01*
X-233887Y98243D01*
X-234115Y98662D01*
X-234391Y99077D01*
X-234717Y99488D01*
X-235092Y99895D01*
X-235517Y100298D01*
X-235946Y100658D01*
X-236377Y100971D01*
X-236809Y101236D01*
X-237241Y101454D01*
X-237675Y101624D01*
X-238109Y101747D01*
X-238545Y101823D01*
X-238981Y101851D01*
X-239412Y101830D01*
X-239833Y101760D01*
X-240243Y101641D01*
X-240641Y101472D01*
X-241030Y101253D01*
X-241407Y100985D01*
X-241773Y100668D01*
X-242129Y100301D01*
X-242457Y99904D01*
X-242735Y99502D01*
X-242962Y99095D01*
X-243140Y98684D01*
X-243267Y98269D01*
X-243343Y97849D01*
X-243370Y97424D01*
X-243346Y96995D01*
X-243273Y96566D01*
X-243151Y96142D01*
X-242982Y95724D01*
X-242763Y95311D01*
X-242497Y94903D01*
X-242182Y94500D01*
X-241819Y94103D01*
X-241407Y93710D01*
X-240973Y93347D01*
X-240538Y93031D01*
X-240100Y92763D01*
X-239661Y92541D01*
X-239219Y92367D01*
X-238775Y92240D01*
X-238330Y92160D01*
X-237882Y92127D01*
G37*
%LPD*%
G36*
X-227043Y100433D02*
X-227476Y100841D01*
X-227894Y101278D01*
X-228297Y101744D01*
X-228685Y102238D01*
X-229058Y102760D01*
X-229416Y103311D01*
X-229759Y103891D01*
X-230086Y104499D01*
X-230402Y105146D01*
X-230708Y105840D01*
X-231004Y106582D01*
X-231291Y107372D01*
X-231568Y108210D01*
X-231835Y109095D01*
X-232094Y110029D01*
X-232342Y111010D01*
X-236761Y106068D01*
X-237760Y106961D01*
X-232325Y113040D01*
X-231372Y112187D01*
X-230937Y110623D01*
X-230527Y109266D01*
X-230140Y108118D01*
X-229777Y107178D01*
X-229412Y106361D01*
X-229019Y105585D01*
X-228597Y104848D01*
X-228147Y104152D01*
X-227661Y103489D01*
X-227132Y102852D01*
X-226560Y102243D01*
X-226258Y101948D01*
X-225945Y101660D01*
X-227043Y100433D01*
G37*
G36*
X-157645Y-244094D02*
X-157919Y-243787D01*
X-158168Y-243476D01*
X-158392Y-243160D01*
X-158591Y-242840D01*
X-158743Y-242554D01*
X-158867Y-242269D01*
X-158963Y-241985D01*
X-159032Y-241702D01*
X-159073Y-241421D01*
X-159086Y-241140D01*
X-159072Y-240860D01*
X-159031Y-240581D01*
X-158959Y-240298D01*
X-158856Y-240009D01*
X-158721Y-239713D01*
X-158553Y-239409D01*
X-158354Y-239097D01*
X-158123Y-238779D01*
X-157859Y-238453D01*
X-157564Y-238121D01*
X-157748Y-237735D01*
X-157906Y-237351D01*
X-158038Y-236970D01*
X-158143Y-236590D01*
X-158221Y-236212D01*
X-158273Y-235836D01*
X-158298Y-235462D01*
X-158297Y-235090D01*
X-158269Y-234722D01*
X-158216Y-234360D01*
X-158136Y-234005D01*
X-158030Y-233657D01*
X-157898Y-233314D01*
X-157740Y-232978D01*
X-157555Y-232649D01*
X-157345Y-232325D01*
X-157110Y-232011D01*
X-156852Y-231707D01*
X-156572Y-231414D01*
X-156270Y-231132D01*
X-155945Y-230861D01*
X-155597Y-230601D01*
X-155227Y-230351D01*
X-154835Y-230113D01*
X-154515Y-229936D01*
X-154199Y-229775D01*
X-153884Y-229630D01*
X-153572Y-229501D01*
X-153262Y-229388D01*
X-152955Y-229291D01*
X-152650Y-229210D01*
X-152348Y-229145D01*
X-152048Y-229096D01*
X-151750Y-229063D01*
X-151455Y-229046D01*
X-151163Y-229045D01*
X-150584Y-229091D01*
X-150016Y-229201D01*
X-149465Y-229374D01*
X-149199Y-229483D01*
X-148939Y-229607D01*
X-148685Y-229746D01*
X-148438Y-229900D01*
X-148198Y-230070D01*
X-147963Y-230254D01*
X-147735Y-230454D01*
X-147513Y-230668D01*
X-147298Y-230898D01*
X-147089Y-231143D01*
X-146886Y-231403D01*
X-146689Y-231678D01*
X-146499Y-231968D01*
X-146315Y-232274D01*
X-146094Y-232680D01*
X-145901Y-233085D01*
X-145736Y-233488D01*
X-145598Y-233890D01*
X-145489Y-234289D01*
X-145408Y-234687D01*
X-145355Y-235083D01*
X-145331Y-235477D01*
X-145334Y-235867D01*
X-145366Y-236250D01*
X-145426Y-236625D01*
X-145516Y-236994D01*
X-145633Y-237355D01*
X-145780Y-237710D01*
X-145954Y-238057D01*
X-146158Y-238397D01*
X-146388Y-238728D01*
X-146644Y-239047D01*
X-146925Y-239355D01*
X-147232Y-239651D01*
X-147564Y-239935D01*
X-147921Y-240207D01*
X-148304Y-240468D01*
X-148712Y-240717D01*
X-149275Y-241018D01*
X-149833Y-241269D01*
X-150387Y-241470D01*
X-150936Y-241621D01*
X-151480Y-241722D01*
X-152020Y-241773D01*
X-152555Y-241774D01*
X-153086Y-241725D01*
X-153604Y-241626D01*
X-154100Y-241478D01*
X-154576Y-241281D01*
X-155030Y-241034D01*
X-155463Y-240738D01*
X-155874Y-240393D01*
X-156265Y-239999D01*
X-156634Y-239556D01*
X-156982Y-239980D01*
X-157249Y-240390D01*
X-157353Y-240590D01*
X-157437Y-240786D01*
X-157500Y-240979D01*
X-157544Y-241168D01*
X-157568Y-241356D01*
X-157574Y-241545D01*
X-157562Y-241734D01*
X-157532Y-241924D01*
X-157484Y-242115D01*
X-157418Y-242306D01*
X-157333Y-242499D01*
X-157231Y-242692D01*
X-157103Y-242899D01*
X-156960Y-243104D01*
X-156628Y-243507D01*
X-157645Y-244094D01*
G37*
%LPC*%
G36*
X-152485Y-240181D02*
X-152028Y-240143D01*
X-151559Y-240058D01*
X-151078Y-239925D01*
X-150586Y-239744D01*
X-150082Y-239515D01*
X-149566Y-239238D01*
X-149090Y-238942D01*
X-148659Y-238630D01*
X-148272Y-238303D01*
X-147930Y-237960D01*
X-147633Y-237602D01*
X-147380Y-237227D01*
X-147172Y-236837D01*
X-147010Y-236431D01*
X-146894Y-236015D01*
X-146829Y-235594D01*
X-146815Y-235167D01*
X-146851Y-234736D01*
X-146937Y-234299D01*
X-147074Y-233857D01*
X-147261Y-233409D01*
X-147499Y-232957D01*
X-147774Y-232521D01*
X-148069Y-232132D01*
X-148384Y-231788D01*
X-148719Y-231492D01*
X-149074Y-231241D01*
X-149449Y-231037D01*
X-149844Y-230879D01*
X-150259Y-230768D01*
X-150689Y-230704D01*
X-151130Y-230687D01*
X-151580Y-230717D01*
X-152041Y-230795D01*
X-152512Y-230921D01*
X-152993Y-231095D01*
X-153484Y-231316D01*
X-153985Y-231584D01*
X-154465Y-231883D01*
X-154902Y-232198D01*
X-155294Y-232530D01*
X-155641Y-232878D01*
X-155945Y-233243D01*
X-156204Y-233625D01*
X-156419Y-234023D01*
X-156590Y-234438D01*
X-156713Y-234863D01*
X-156785Y-235292D01*
X-156806Y-235723D01*
X-156777Y-236158D01*
X-156696Y-236596D01*
X-156564Y-237037D01*
X-156381Y-237482D01*
X-156147Y-237930D01*
X-155870Y-238368D01*
X-155572Y-238760D01*
X-155255Y-239104D01*
X-154917Y-239400D01*
X-154559Y-239649D01*
X-154182Y-239851D01*
X-153784Y-240005D01*
X-153365Y-240111D01*
X-152931Y-240170D01*
X-152485Y-240181D01*
G37*
%LPD*%
G36*
X-147911Y-251357D02*
X-148262Y-251344D01*
X-148609Y-251290D01*
X-148953Y-251195D01*
X-149290Y-251059D01*
X-149616Y-250882D01*
X-149931Y-250665D01*
X-150235Y-250408D01*
X-150527Y-250109D01*
X-150809Y-249771D01*
X-151080Y-249392D01*
X-151339Y-248972D01*
X-151567Y-248548D01*
X-151756Y-248132D01*
X-151907Y-247725D01*
X-152018Y-247327D01*
X-152091Y-246938D01*
X-152125Y-246557D01*
X-152120Y-246185D01*
X-152076Y-245822D01*
X-151993Y-245472D01*
X-151871Y-245140D01*
X-151711Y-244826D01*
X-151512Y-244530D01*
X-151274Y-244251D01*
X-150998Y-243991D01*
X-150682Y-243748D01*
X-150328Y-243524D01*
X-150066Y-243385D01*
X-149804Y-243271D01*
X-149541Y-243182D01*
X-149278Y-243117D01*
X-149015Y-243078D01*
X-148751Y-243063D01*
X-148487Y-243072D01*
X-148222Y-243107D01*
X-147963Y-243164D01*
X-147716Y-243242D01*
X-147480Y-243340D01*
X-147256Y-243459D01*
X-147043Y-243598D01*
X-146841Y-243758D01*
X-146651Y-243939D01*
X-146473Y-244140D01*
X-146443Y-244122D01*
X-146507Y-243876D01*
X-146549Y-243633D01*
X-146570Y-243392D01*
X-146569Y-243155D01*
X-146547Y-242920D01*
X-146503Y-242688D01*
X-146437Y-242459D01*
X-146350Y-242233D01*
X-146244Y-242014D01*
X-146122Y-241807D01*
X-145983Y-241611D01*
X-145827Y-241427D01*
X-145655Y-241254D01*
X-145467Y-241093D01*
X-145262Y-240943D01*
X-145041Y-240805D01*
X-144735Y-240647D01*
X-144426Y-240526D01*
X-144116Y-240442D01*
X-143803Y-240395D01*
X-143489Y-240385D01*
X-143173Y-240412D01*
X-142854Y-240475D01*
X-142534Y-240576D01*
X-142218Y-240711D01*
X-141915Y-240880D01*
X-141625Y-241082D01*
X-141347Y-241318D01*
X-141081Y-241586D01*
X-140828Y-241888D01*
X-140587Y-242223D01*
X-140358Y-242592D01*
X-140148Y-242982D01*
X-139973Y-243366D01*
X-139834Y-243742D01*
X-139729Y-244111D01*
X-139660Y-244472D01*
X-139626Y-244826D01*
X-139627Y-245173D01*
X-139663Y-245512D01*
X-139733Y-245839D01*
X-139837Y-246146D01*
X-139973Y-246434D01*
X-140141Y-246703D01*
X-140343Y-246952D01*
X-140578Y-247183D01*
X-140845Y-247395D01*
X-141145Y-247587D01*
X-141376Y-247709D01*
X-141608Y-247812D01*
X-141842Y-247894D01*
X-142078Y-247956D01*
X-142315Y-247998D01*
X-142555Y-248020D01*
X-142796Y-248021D01*
X-143039Y-248003D01*
X-143279Y-247964D01*
X-143509Y-247904D01*
X-143531Y-247896D01*
X-143730Y-247824D01*
X-143942Y-247722D01*
X-144145Y-247600D01*
X-144338Y-247458D01*
X-144523Y-247294D01*
X-144698Y-247110D01*
X-144728Y-247127D01*
X-144635Y-247405D01*
X-144566Y-247678D01*
X-144522Y-247947D01*
X-144503Y-248211D01*
X-144509Y-248470D01*
X-144540Y-248725D01*
X-144596Y-248976D01*
X-144661Y-249174D01*
X-144677Y-249221D01*
X-144781Y-249459D01*
X-144906Y-249686D01*
X-145053Y-249901D01*
X-145220Y-250104D01*
X-145410Y-250296D01*
X-145620Y-250477D01*
X-145852Y-250646D01*
X-146104Y-250804D01*
X-146473Y-250997D01*
X-146837Y-251149D01*
X-147198Y-251259D01*
X-147556Y-251329D01*
X-147911Y-251357D01*
G37*
%LPC*%
G36*
X-148368Y-249810D02*
X-148130Y-249798D01*
X-147883Y-249758D01*
X-147626Y-249689D01*
X-147359Y-249591D01*
X-147082Y-249466D01*
X-146794Y-249311D01*
X-146559Y-249163D01*
X-146350Y-249005D01*
X-146166Y-248838D01*
X-146009Y-248660D01*
X-145877Y-248473D01*
X-145771Y-248277D01*
X-145692Y-248071D01*
X-145638Y-247855D01*
X-145609Y-247631D01*
X-145605Y-247402D01*
X-145626Y-247166D01*
X-145670Y-246925D01*
X-145739Y-246678D01*
X-145833Y-246425D01*
X-145950Y-246167D01*
X-146093Y-245902D01*
X-146247Y-245655D01*
X-146410Y-245431D01*
X-146582Y-245231D01*
X-146762Y-245055D01*
X-146952Y-244903D01*
X-147150Y-244776D01*
X-147357Y-244672D01*
X-147572Y-244592D01*
X-147793Y-244537D01*
X-148016Y-244508D01*
X-148241Y-244504D01*
X-148469Y-244526D01*
X-148698Y-244573D01*
X-148930Y-244646D01*
X-149164Y-244745D01*
X-149400Y-244869D01*
X-149662Y-245032D01*
X-149897Y-245203D01*
X-150104Y-245381D01*
X-150284Y-245567D01*
X-150437Y-245761D01*
X-150562Y-245962D01*
X-150660Y-246171D01*
X-150730Y-246388D01*
X-150773Y-246612D01*
X-150789Y-246844D01*
X-150777Y-247083D01*
X-150738Y-247331D01*
X-150671Y-247585D01*
X-150577Y-247848D01*
X-150455Y-248118D01*
X-150306Y-248396D01*
X-150142Y-248661D01*
X-149972Y-248899D01*
X-149795Y-249109D01*
X-149611Y-249291D01*
X-149421Y-249447D01*
X-149225Y-249575D01*
X-149022Y-249675D01*
X-148813Y-249748D01*
X-148595Y-249793D01*
X-148368Y-249810D01*
G37*
G36*
X-143385Y-246611D02*
X-143181Y-246608D01*
X-142969Y-246581D01*
X-142749Y-246527D01*
X-142521Y-246448D01*
X-142285Y-246343D01*
X-142040Y-246212D01*
X-141825Y-246078D01*
X-141633Y-245936D01*
X-141464Y-245787D01*
X-141319Y-245630D01*
X-141196Y-245466D01*
X-141097Y-245295D01*
X-141021Y-245117D01*
X-140967Y-244931D01*
X-140937Y-244737D01*
X-140930Y-244537D01*
X-140947Y-244329D01*
X-140986Y-244113D01*
X-141048Y-243891D01*
X-141134Y-243661D01*
X-141243Y-243423D01*
X-141375Y-243178D01*
X-141517Y-242949D01*
X-141665Y-242742D01*
X-141819Y-242557D01*
X-141978Y-242396D01*
X-142144Y-242256D01*
X-142316Y-242139D01*
X-142494Y-242045D01*
X-142677Y-241973D01*
X-142866Y-241925D01*
X-143060Y-241900D01*
X-143259Y-241900D01*
X-143463Y-241923D01*
X-143671Y-241969D01*
X-143885Y-242040D01*
X-144103Y-242135D01*
X-144326Y-242253D01*
X-144544Y-242390D01*
X-144739Y-242535D01*
X-144911Y-242688D01*
X-145060Y-242850D01*
X-145186Y-243020D01*
X-145289Y-243198D01*
X-145369Y-243385D01*
X-145426Y-243581D01*
X-145460Y-243782D01*
X-145471Y-243989D01*
X-145459Y-244200D01*
X-145425Y-244416D01*
X-145368Y-244636D01*
X-145288Y-244862D01*
X-145185Y-245092D01*
X-145060Y-245326D01*
X-144918Y-245556D01*
X-144771Y-245763D01*
X-144618Y-245948D01*
X-144459Y-246111D01*
X-144295Y-246251D01*
X-144125Y-246369D01*
X-143950Y-246465D01*
X-143769Y-246538D01*
X-143581Y-246587D01*
X-143385Y-246611D01*
G37*
%LPD*%
D10*
X-57070Y206650D02*
X-57070Y171650D01*
X47070Y171650D01*
X47070Y206650D01*
D11*
X-29000Y117650D02*
X-29002Y117588D01*
X-29008Y117527D01*
X-29017Y117466D01*
X-29030Y117406D01*
X-29047Y117347D01*
X-29068Y117289D01*
X-29092Y117232D01*
X-29119Y117177D01*
X-29150Y117124D01*
X-29184Y117072D01*
X-29221Y117023D01*
X-29261Y116976D01*
X-29304Y116932D01*
X-29349Y116891D01*
X-29397Y116852D01*
X-29448Y116816D01*
X-29500Y116784D01*
X-29554Y116755D01*
X-29610Y116729D01*
X-29668Y116707D01*
X-29726Y116688D01*
X-29786Y116673D01*
X-29847Y116662D01*
X-29908Y116654D01*
X-29969Y116650D01*
X-30031Y116650D01*
X-30092Y116654D01*
X-30153Y116662D01*
X-30214Y116673D01*
X-30274Y116688D01*
X-30332Y116707D01*
X-30390Y116729D01*
X-30446Y116755D01*
X-30500Y116784D01*
X-30552Y116816D01*
X-30603Y116852D01*
X-30651Y116891D01*
X-30696Y116932D01*
X-30739Y116976D01*
X-30779Y117023D01*
X-30816Y117072D01*
X-30850Y117124D01*
X-30881Y117177D01*
X-30908Y117232D01*
X-30932Y117289D01*
X-30953Y117347D01*
X-30970Y117406D01*
X-30983Y117466D01*
X-30992Y117527D01*
X-30998Y117588D01*
X-31000Y117650D01*
X-30998Y117712D01*
X-30992Y117773D01*
X-30983Y117834D01*
X-30970Y117894D01*
X-30953Y117953D01*
X-30932Y118011D01*
X-30908Y118068D01*
X-30881Y118123D01*
X-30850Y118176D01*
X-30816Y118228D01*
X-30779Y118277D01*
X-30739Y118324D01*
X-30696Y118368D01*
X-30651Y118409D01*
X-30603Y118448D01*
X-30552Y118484D01*
X-30500Y118516D01*
X-30446Y118545D01*
X-30390Y118571D01*
X-30332Y118593D01*
X-30274Y118612D01*
X-30214Y118627D01*
X-30153Y118638D01*
X-30092Y118646D01*
X-30031Y118650D01*
X-29969Y118650D01*
X-29908Y118646D01*
X-29847Y118638D01*
X-29786Y118627D01*
X-29726Y118612D01*
X-29668Y118593D01*
X-29610Y118571D01*
X-29554Y118545D01*
X-29500Y118516D01*
X-29448Y118484D01*
X-29397Y118448D01*
X-29349Y118409D01*
X-29304Y118368D01*
X-29261Y118324D01*
X-29221Y118277D01*
X-29184Y118228D01*
X-29150Y118176D01*
X-29119Y118123D01*
X-29092Y118068D01*
X-29068Y118011D01*
X-29047Y117953D01*
X-29030Y117894D01*
X-29017Y117834D01*
X-29008Y117773D01*
X-29002Y117712D01*
X-29000Y117650D01*
D10*
X52070Y-176650D02*
X52070Y-211650D01*
X52070Y-176650D02*
X-52070Y-176650D01*
X-52070Y-211650D01*
D11*
X24000Y-122650D02*
X24002Y-122588D01*
X24008Y-122527D01*
X24017Y-122466D01*
X24030Y-122406D01*
X24047Y-122347D01*
X24068Y-122289D01*
X24092Y-122232D01*
X24119Y-122177D01*
X24150Y-122124D01*
X24184Y-122072D01*
X24221Y-122023D01*
X24261Y-121976D01*
X24304Y-121932D01*
X24349Y-121891D01*
X24397Y-121852D01*
X24448Y-121816D01*
X24500Y-121784D01*
X24554Y-121755D01*
X24610Y-121729D01*
X24668Y-121707D01*
X24726Y-121688D01*
X24786Y-121673D01*
X24847Y-121662D01*
X24908Y-121654D01*
X24969Y-121650D01*
X25031Y-121650D01*
X25092Y-121654D01*
X25153Y-121662D01*
X25214Y-121673D01*
X25274Y-121688D01*
X25332Y-121707D01*
X25390Y-121729D01*
X25446Y-121755D01*
X25500Y-121784D01*
X25552Y-121816D01*
X25603Y-121852D01*
X25651Y-121891D01*
X25696Y-121932D01*
X25739Y-121976D01*
X25779Y-122023D01*
X25816Y-122072D01*
X25850Y-122124D01*
X25881Y-122177D01*
X25908Y-122232D01*
X25932Y-122289D01*
X25953Y-122347D01*
X25970Y-122406D01*
X25983Y-122466D01*
X25992Y-122527D01*
X25998Y-122588D01*
X26000Y-122650D01*
X25998Y-122712D01*
X25992Y-122773D01*
X25983Y-122834D01*
X25970Y-122894D01*
X25953Y-122953D01*
X25932Y-123011D01*
X25908Y-123068D01*
X25881Y-123123D01*
X25850Y-123176D01*
X25816Y-123228D01*
X25779Y-123277D01*
X25739Y-123324D01*
X25696Y-123368D01*
X25651Y-123409D01*
X25603Y-123448D01*
X25552Y-123484D01*
X25500Y-123516D01*
X25446Y-123545D01*
X25390Y-123571D01*
X25332Y-123593D01*
X25274Y-123612D01*
X25214Y-123627D01*
X25153Y-123638D01*
X25092Y-123646D01*
X25031Y-123650D01*
X24969Y-123650D01*
X24908Y-123646D01*
X24847Y-123638D01*
X24786Y-123627D01*
X24726Y-123612D01*
X24668Y-123593D01*
X24610Y-123571D01*
X24554Y-123545D01*
X24500Y-123516D01*
X24448Y-123484D01*
X24397Y-123448D01*
X24349Y-123409D01*
X24304Y-123368D01*
X24261Y-123324D01*
X24221Y-123277D01*
X24184Y-123228D01*
X24150Y-123176D01*
X24119Y-123123D01*
X24092Y-123068D01*
X24068Y-123011D01*
X24047Y-122953D01*
X24030Y-122894D01*
X24017Y-122834D01*
X24008Y-122773D01*
X24002Y-122712D01*
X24000Y-122650D01*
D10*
X-169460Y-71120D02*
X-204460Y-71120D01*
X-169460Y-71120D02*
X-169460Y33020D01*
X-204460Y33020D01*
D11*
X-115460Y-43050D02*
X-115398Y-43052D01*
X-115337Y-43058D01*
X-115276Y-43067D01*
X-115216Y-43080D01*
X-115157Y-43097D01*
X-115099Y-43118D01*
X-115042Y-43142D01*
X-114987Y-43169D01*
X-114934Y-43200D01*
X-114882Y-43234D01*
X-114833Y-43271D01*
X-114786Y-43311D01*
X-114742Y-43354D01*
X-114701Y-43399D01*
X-114662Y-43447D01*
X-114626Y-43498D01*
X-114594Y-43550D01*
X-114565Y-43604D01*
X-114539Y-43660D01*
X-114517Y-43718D01*
X-114498Y-43776D01*
X-114483Y-43836D01*
X-114472Y-43897D01*
X-114464Y-43958D01*
X-114460Y-44019D01*
X-114460Y-44081D01*
X-114464Y-44142D01*
X-114472Y-44203D01*
X-114483Y-44264D01*
X-114498Y-44324D01*
X-114517Y-44382D01*
X-114539Y-44440D01*
X-114565Y-44496D01*
X-114594Y-44550D01*
X-114626Y-44602D01*
X-114662Y-44653D01*
X-114701Y-44701D01*
X-114742Y-44746D01*
X-114786Y-44789D01*
X-114833Y-44829D01*
X-114882Y-44866D01*
X-114934Y-44900D01*
X-114987Y-44931D01*
X-115042Y-44958D01*
X-115099Y-44982D01*
X-115157Y-45003D01*
X-115216Y-45020D01*
X-115276Y-45033D01*
X-115337Y-45042D01*
X-115398Y-45048D01*
X-115460Y-45050D01*
X-115522Y-45048D01*
X-115583Y-45042D01*
X-115644Y-45033D01*
X-115704Y-45020D01*
X-115763Y-45003D01*
X-115821Y-44982D01*
X-115878Y-44958D01*
X-115933Y-44931D01*
X-115986Y-44900D01*
X-116038Y-44866D01*
X-116087Y-44829D01*
X-116134Y-44789D01*
X-116178Y-44746D01*
X-116219Y-44701D01*
X-116258Y-44653D01*
X-116294Y-44602D01*
X-116326Y-44550D01*
X-116355Y-44496D01*
X-116381Y-44440D01*
X-116403Y-44382D01*
X-116422Y-44324D01*
X-116437Y-44264D01*
X-116448Y-44203D01*
X-116456Y-44142D01*
X-116460Y-44081D01*
X-116460Y-44019D01*
X-116456Y-43958D01*
X-116448Y-43897D01*
X-116437Y-43836D01*
X-116422Y-43776D01*
X-116403Y-43718D01*
X-116381Y-43660D01*
X-116355Y-43604D01*
X-116326Y-43550D01*
X-116294Y-43498D01*
X-116258Y-43447D01*
X-116219Y-43399D01*
X-116178Y-43354D01*
X-116134Y-43311D01*
X-116087Y-43271D01*
X-116038Y-43234D01*
X-115986Y-43200D01*
X-115933Y-43169D01*
X-115878Y-43142D01*
X-115821Y-43118D01*
X-115763Y-43097D01*
X-115704Y-43080D01*
X-115644Y-43067D01*
X-115583Y-43058D01*
X-115522Y-43052D01*
X-115460Y-43050D01*
D10*
X179460Y33020D02*
X214460Y33020D01*
X179460Y33020D02*
X179460Y-71120D01*
X214460Y-71120D01*
D11*
X125460Y4950D02*
X125398Y4952D01*
X125337Y4958D01*
X125276Y4967D01*
X125216Y4980D01*
X125157Y4997D01*
X125099Y5018D01*
X125042Y5042D01*
X124987Y5069D01*
X124934Y5100D01*
X124882Y5134D01*
X124833Y5171D01*
X124786Y5211D01*
X124742Y5254D01*
X124701Y5299D01*
X124662Y5347D01*
X124626Y5398D01*
X124594Y5450D01*
X124565Y5504D01*
X124539Y5560D01*
X124517Y5618D01*
X124498Y5676D01*
X124483Y5736D01*
X124472Y5797D01*
X124464Y5858D01*
X124460Y5919D01*
X124460Y5981D01*
X124464Y6042D01*
X124472Y6103D01*
X124483Y6164D01*
X124498Y6224D01*
X124517Y6282D01*
X124539Y6340D01*
X124565Y6396D01*
X124594Y6450D01*
X124626Y6502D01*
X124662Y6553D01*
X124701Y6601D01*
X124742Y6646D01*
X124786Y6689D01*
X124833Y6729D01*
X124882Y6766D01*
X124934Y6800D01*
X124987Y6831D01*
X125042Y6858D01*
X125099Y6882D01*
X125157Y6903D01*
X125216Y6920D01*
X125276Y6933D01*
X125337Y6942D01*
X125398Y6948D01*
X125460Y6950D01*
X125522Y6948D01*
X125583Y6942D01*
X125644Y6933D01*
X125704Y6920D01*
X125763Y6903D01*
X125821Y6882D01*
X125878Y6858D01*
X125933Y6831D01*
X125986Y6800D01*
X126038Y6766D01*
X126087Y6729D01*
X126134Y6689D01*
X126178Y6646D01*
X126219Y6601D01*
X126258Y6553D01*
X126294Y6502D01*
X126326Y6450D01*
X126355Y6396D01*
X126381Y6340D01*
X126403Y6282D01*
X126422Y6224D01*
X126437Y6164D01*
X126448Y6103D01*
X126456Y6042D01*
X126460Y5981D01*
X126460Y5919D01*
X126456Y5858D01*
X126448Y5797D01*
X126437Y5736D01*
X126422Y5676D01*
X126403Y5618D01*
X126381Y5560D01*
X126355Y5504D01*
X126326Y5450D01*
X126294Y5398D01*
X126258Y5347D01*
X126219Y5299D01*
X126178Y5254D01*
X126134Y5211D01*
X126087Y5171D01*
X126038Y5134D01*
X125986Y5100D01*
X125933Y5069D01*
X125878Y5042D01*
X125821Y5018D01*
X125763Y4997D01*
X125704Y4980D01*
X125644Y4967D01*
X125583Y4958D01*
X125522Y4952D01*
X125460Y4950D01*
D10*
X108032Y161819D02*
X138343Y179319D01*
X108032Y161819D02*
X160102Y71631D01*
X190413Y89131D01*
D11*
X75302Y110510D02*
X75248Y110481D01*
X75192Y110455D01*
X75134Y110433D01*
X75076Y110414D01*
X75016Y110399D01*
X74955Y110388D01*
X74894Y110380D01*
X74833Y110376D01*
X74771Y110376D01*
X74710Y110380D01*
X74649Y110388D01*
X74588Y110399D01*
X74528Y110414D01*
X74470Y110433D01*
X74412Y110455D01*
X74356Y110481D01*
X74302Y110510D01*
X74250Y110542D01*
X74199Y110578D01*
X74151Y110617D01*
X74106Y110658D01*
X74063Y110702D01*
X74023Y110749D01*
X73986Y110798D01*
X73952Y110850D01*
X73921Y110903D01*
X73894Y110958D01*
X73870Y111015D01*
X73849Y111073D01*
X73832Y111132D01*
X73819Y111192D01*
X73810Y111253D01*
X73804Y111314D01*
X73802Y111376D01*
X73804Y111438D01*
X73810Y111499D01*
X73819Y111560D01*
X73832Y111620D01*
X73849Y111679D01*
X73870Y111737D01*
X73894Y111794D01*
X73921Y111849D01*
X73952Y111902D01*
X73986Y111954D01*
X74023Y112003D01*
X74063Y112050D01*
X74106Y112094D01*
X74151Y112135D01*
X74199Y112174D01*
X74250Y112210D01*
X74302Y112242D01*
X74356Y112271D01*
X74412Y112297D01*
X74470Y112319D01*
X74528Y112338D01*
X74588Y112353D01*
X74649Y112364D01*
X74710Y112372D01*
X74771Y112376D01*
X74833Y112376D01*
X74894Y112372D01*
X74955Y112364D01*
X75016Y112353D01*
X75076Y112338D01*
X75134Y112319D01*
X75192Y112297D01*
X75248Y112271D01*
X75302Y112242D01*
X75354Y112210D01*
X75405Y112174D01*
X75453Y112135D01*
X75498Y112094D01*
X75541Y112050D01*
X75581Y112003D01*
X75618Y111954D01*
X75652Y111902D01*
X75683Y111849D01*
X75710Y111794D01*
X75734Y111737D01*
X75755Y111679D01*
X75772Y111620D01*
X75785Y111560D01*
X75794Y111499D01*
X75800Y111438D01*
X75802Y111376D01*
X75800Y111314D01*
X75794Y111253D01*
X75785Y111192D01*
X75772Y111132D01*
X75755Y111073D01*
X75734Y111015D01*
X75710Y110958D01*
X75683Y110903D01*
X75652Y110850D01*
X75618Y110798D01*
X75581Y110749D01*
X75541Y110702D01*
X75498Y110658D01*
X75453Y110617D01*
X75405Y110578D01*
X75354Y110542D01*
X75302Y110510D01*
D10*
X167348Y-101682D02*
X184848Y-131993D01*
X167348Y-101682D02*
X77160Y-153752D01*
X94660Y-184063D01*
D11*
X116039Y-68951D02*
X116010Y-68897D01*
X115984Y-68841D01*
X115962Y-68783D01*
X115943Y-68725D01*
X115928Y-68665D01*
X115917Y-68604D01*
X115909Y-68543D01*
X115905Y-68482D01*
X115905Y-68420D01*
X115909Y-68359D01*
X115917Y-68298D01*
X115928Y-68237D01*
X115943Y-68177D01*
X115962Y-68119D01*
X115984Y-68061D01*
X116010Y-68005D01*
X116039Y-67951D01*
X116071Y-67899D01*
X116107Y-67848D01*
X116146Y-67800D01*
X116187Y-67755D01*
X116231Y-67712D01*
X116278Y-67672D01*
X116327Y-67635D01*
X116379Y-67601D01*
X116432Y-67570D01*
X116487Y-67543D01*
X116544Y-67519D01*
X116602Y-67498D01*
X116661Y-67481D01*
X116721Y-67468D01*
X116782Y-67459D01*
X116843Y-67453D01*
X116905Y-67451D01*
X116967Y-67453D01*
X117028Y-67459D01*
X117089Y-67468D01*
X117149Y-67481D01*
X117208Y-67498D01*
X117266Y-67519D01*
X117323Y-67543D01*
X117378Y-67570D01*
X117431Y-67601D01*
X117483Y-67635D01*
X117532Y-67672D01*
X117579Y-67712D01*
X117623Y-67755D01*
X117664Y-67800D01*
X117703Y-67848D01*
X117739Y-67899D01*
X117771Y-67951D01*
X117800Y-68005D01*
X117826Y-68061D01*
X117848Y-68119D01*
X117867Y-68177D01*
X117882Y-68237D01*
X117893Y-68298D01*
X117901Y-68359D01*
X117905Y-68420D01*
X117905Y-68482D01*
X117901Y-68543D01*
X117893Y-68604D01*
X117882Y-68665D01*
X117867Y-68725D01*
X117848Y-68783D01*
X117826Y-68841D01*
X117800Y-68897D01*
X117771Y-68951D01*
X117739Y-69003D01*
X117703Y-69054D01*
X117664Y-69102D01*
X117623Y-69147D01*
X117579Y-69190D01*
X117532Y-69230D01*
X117483Y-69267D01*
X117431Y-69301D01*
X117378Y-69332D01*
X117323Y-69359D01*
X117266Y-69383D01*
X117208Y-69404D01*
X117149Y-69421D01*
X117089Y-69434D01*
X117028Y-69443D01*
X116967Y-69449D01*
X116905Y-69451D01*
X116843Y-69449D01*
X116782Y-69443D01*
X116721Y-69434D01*
X116661Y-69421D01*
X116602Y-69404D01*
X116544Y-69383D01*
X116487Y-69359D01*
X116432Y-69332D01*
X116379Y-69301D01*
X116327Y-69267D01*
X116278Y-69230D01*
X116231Y-69190D01*
X116187Y-69147D01*
X116146Y-69102D01*
X116107Y-69054D01*
X116071Y-69003D01*
X116039Y-68951D01*
D10*
X-152801Y77724D02*
X-178893Y101053D01*
X-152801Y77724D02*
X-83388Y155358D01*
X-109480Y178687D01*
D11*
X-93835Y62656D02*
X-93791Y62614D01*
X-93749Y62569D01*
X-93710Y62521D01*
X-93674Y62471D01*
X-93641Y62419D01*
X-93611Y62365D01*
X-93585Y62310D01*
X-93562Y62252D01*
X-93543Y62194D01*
X-93527Y62134D01*
X-93515Y62074D01*
X-93507Y62013D01*
X-93503Y61951D01*
X-93502Y61890D01*
X-93505Y61828D01*
X-93512Y61767D01*
X-93523Y61707D01*
X-93538Y61647D01*
X-93556Y61588D01*
X-93577Y61530D01*
X-93603Y61474D01*
X-93631Y61419D01*
X-93663Y61367D01*
X-93698Y61316D01*
X-93736Y61268D01*
X-93777Y61222D01*
X-93821Y61179D01*
X-93868Y61138D01*
X-93916Y61100D01*
X-93967Y61066D01*
X-94020Y61035D01*
X-94075Y61007D01*
X-94132Y60982D01*
X-94190Y60961D01*
X-94249Y60944D01*
X-94309Y60930D01*
X-94370Y60920D01*
X-94431Y60914D01*
X-94492Y60911D01*
X-94554Y60912D01*
X-94615Y60917D01*
X-94676Y60926D01*
X-94737Y60939D01*
X-94796Y60955D01*
X-94854Y60975D01*
X-94911Y60999D01*
X-94967Y61025D01*
X-95020Y61056D01*
X-95072Y61089D01*
X-95121Y61126D01*
X-95169Y61166D01*
X-95213Y61208D01*
X-95255Y61253D01*
X-95294Y61301D01*
X-95330Y61351D01*
X-95363Y61403D01*
X-95393Y61457D01*
X-95419Y61512D01*
X-95442Y61570D01*
X-95461Y61628D01*
X-95477Y61688D01*
X-95489Y61748D01*
X-95497Y61809D01*
X-95501Y61871D01*
X-95502Y61932D01*
X-95499Y61994D01*
X-95492Y62055D01*
X-95481Y62115D01*
X-95466Y62175D01*
X-95448Y62234D01*
X-95427Y62292D01*
X-95401Y62348D01*
X-95373Y62403D01*
X-95341Y62455D01*
X-95306Y62506D01*
X-95268Y62554D01*
X-95227Y62600D01*
X-95183Y62643D01*
X-95136Y62684D01*
X-95088Y62722D01*
X-95037Y62756D01*
X-94984Y62787D01*
X-94929Y62815D01*
X-94872Y62840D01*
X-94814Y62861D01*
X-94755Y62878D01*
X-94695Y62892D01*
X-94634Y62902D01*
X-94573Y62908D01*
X-94512Y62911D01*
X-94450Y62910D01*
X-94389Y62905D01*
X-94328Y62896D01*
X-94267Y62883D01*
X-94208Y62867D01*
X-94150Y62847D01*
X-94093Y62823D01*
X-94037Y62797D01*
X-93984Y62766D01*
X-93932Y62733D01*
X-93883Y62696D01*
X-93835Y62656D01*
D10*
X-96618Y-171561D02*
X-126929Y-189061D01*
X-96618Y-171561D02*
X-148688Y-81373D01*
X-178999Y-98873D01*
D11*
X-63888Y-120252D02*
X-63834Y-120223D01*
X-63778Y-120197D01*
X-63720Y-120175D01*
X-63662Y-120156D01*
X-63602Y-120141D01*
X-63541Y-120130D01*
X-63480Y-120122D01*
X-63419Y-120118D01*
X-63357Y-120118D01*
X-63296Y-120122D01*
X-63235Y-120130D01*
X-63174Y-120141D01*
X-63114Y-120156D01*
X-63056Y-120175D01*
X-62998Y-120197D01*
X-62942Y-120223D01*
X-62888Y-120252D01*
X-62836Y-120284D01*
X-62785Y-120320D01*
X-62737Y-120359D01*
X-62692Y-120400D01*
X-62649Y-120444D01*
X-62609Y-120491D01*
X-62572Y-120540D01*
X-62538Y-120592D01*
X-62507Y-120645D01*
X-62480Y-120700D01*
X-62456Y-120757D01*
X-62435Y-120815D01*
X-62418Y-120874D01*
X-62405Y-120934D01*
X-62396Y-120995D01*
X-62390Y-121056D01*
X-62388Y-121118D01*
X-62390Y-121180D01*
X-62396Y-121241D01*
X-62405Y-121302D01*
X-62418Y-121362D01*
X-62435Y-121421D01*
X-62456Y-121479D01*
X-62480Y-121536D01*
X-62507Y-121591D01*
X-62538Y-121644D01*
X-62572Y-121696D01*
X-62609Y-121745D01*
X-62649Y-121792D01*
X-62692Y-121836D01*
X-62737Y-121877D01*
X-62785Y-121916D01*
X-62836Y-121952D01*
X-62888Y-121984D01*
X-62942Y-122013D01*
X-62998Y-122039D01*
X-63056Y-122061D01*
X-63114Y-122080D01*
X-63174Y-122095D01*
X-63235Y-122106D01*
X-63296Y-122114D01*
X-63357Y-122118D01*
X-63419Y-122118D01*
X-63480Y-122114D01*
X-63541Y-122106D01*
X-63602Y-122095D01*
X-63662Y-122080D01*
X-63720Y-122061D01*
X-63778Y-122039D01*
X-63834Y-122013D01*
X-63888Y-121984D01*
X-63940Y-121952D01*
X-63991Y-121916D01*
X-64039Y-121877D01*
X-64084Y-121836D01*
X-64127Y-121792D01*
X-64167Y-121745D01*
X-64204Y-121696D01*
X-64238Y-121644D01*
X-64269Y-121591D01*
X-64296Y-121536D01*
X-64320Y-121479D01*
X-64341Y-121421D01*
X-64358Y-121362D01*
X-64371Y-121302D01*
X-64380Y-121241D01*
X-64386Y-121180D01*
X-64388Y-121118D01*
X-64386Y-121056D01*
X-64380Y-120995D01*
X-64371Y-120934D01*
X-64358Y-120874D01*
X-64341Y-120815D01*
X-64320Y-120757D01*
X-64296Y-120700D01*
X-64269Y-120645D01*
X-64238Y-120592D01*
X-64204Y-120540D01*
X-64167Y-120491D01*
X-64127Y-120444D01*
X-64084Y-120400D01*
X-64039Y-120359D01*
X-63991Y-120320D01*
X-63940Y-120284D01*
X-63888Y-120252D01*
M02*
