G04 EAGLE Gerber RS-274X export*
G75*
%MOMM*%
%FSLAX34Y34*%
%LPD*%
%INSolderpaste Top*%
%IPPOS*%
%AMOC8*
5,1,8,0,0,1.08239X$1,22.5*%
G01*
G04 Define Apertures*
%ADD10R,2.080000X3.810000*%
%ADD11R,11.430000X8.890000*%
%ADD12R,3.810000X2.080000*%
%ADD13R,8.890000X11.430000*%
D10*
X-30400Y140700D03*
D11*
X-5000Y255000D03*
D10*
X20400Y140700D03*
X25400Y-145700D03*
D11*
X0Y-260000D03*
D10*
X-25400Y-145700D03*
D12*
X-138510Y-44450D03*
D13*
X-252810Y-19050D03*
D12*
X-138510Y6350D03*
X148510Y6350D03*
D13*
X262810Y-19050D03*
D12*
X148510Y-44450D03*
G36*
X116261Y123765D02*
X83267Y104716D01*
X72867Y122729D01*
X105861Y141778D01*
X116261Y123765D01*
G37*
D11*
G36*
X196331Y86682D02*
X139181Y185668D01*
X216169Y230118D01*
X273319Y131132D01*
X196331Y86682D01*
G37*
D12*
G36*
X141661Y79771D02*
X108667Y60722D01*
X98267Y78735D01*
X131261Y97784D01*
X141661Y79771D01*
G37*
G36*
X129294Y-109910D02*
X110245Y-76916D01*
X128258Y-66516D01*
X147307Y-99510D01*
X129294Y-109910D01*
G37*
D11*
G36*
X92211Y-189981D02*
X191197Y-132831D01*
X235647Y-209819D01*
X136661Y-266969D01*
X92211Y-189981D01*
G37*
D12*
G36*
X85300Y-135310D02*
X66251Y-102316D01*
X84264Y-91916D01*
X103313Y-124910D01*
X85300Y-135310D01*
G37*
G36*
X-119221Y97427D02*
X-90819Y72033D01*
X-104683Y56527D01*
X-133085Y81921D01*
X-119221Y97427D01*
G37*
D11*
G36*
X-109002Y185073D02*
X-185185Y99866D01*
X-251458Y159121D01*
X-175275Y244328D01*
X-109002Y185073D01*
G37*
D12*
G36*
X-85361Y135297D02*
X-56959Y109903D01*
X-70823Y94397D01*
X-99225Y119791D01*
X-85361Y135297D01*
G37*
G36*
X-104847Y-133507D02*
X-71853Y-114458D01*
X-61453Y-132471D01*
X-94447Y-151520D01*
X-104847Y-133507D01*
G37*
D11*
G36*
X-184917Y-96424D02*
X-127767Y-195410D01*
X-204755Y-239860D01*
X-261905Y-140874D01*
X-184917Y-96424D01*
G37*
D12*
G36*
X-130247Y-89513D02*
X-97253Y-70464D01*
X-86853Y-88477D01*
X-119847Y-107526D01*
X-130247Y-89513D01*
G37*
M02*
