G04 EAGLE Gerber RS-274X export*
G75*
%MOMM*%
%FSLAX34Y34*%
%LPD*%
%INSoldermask Top*%
%IPPOS*%
%AMOC8*
5,1,8,0,0,1.08239X$1,22.5*%
G01*
G04 Define Apertures*
%ADD10C,20.203200*%
%ADD11R,2.283200X4.013200*%
%ADD12R,11.633200X9.093200*%
%ADD13R,4.013200X2.283200*%
%ADD14R,9.093200X11.633200*%
%ADD15C,0.705600*%
D10*
X0Y0D03*
D11*
X-30400Y140700D03*
D12*
X-5000Y255000D03*
D11*
X20400Y140700D03*
X25400Y-145700D03*
D12*
X0Y-260000D03*
D11*
X-25400Y-145700D03*
D13*
X-138510Y-44450D03*
D14*
X-252810Y-19050D03*
D13*
X-138510Y6350D03*
X148510Y6350D03*
D14*
X262810Y-19050D03*
D13*
X148510Y-44450D03*
G36*
X117649Y123393D02*
X82895Y103328D01*
X71479Y123101D01*
X106233Y143166D01*
X117649Y123393D01*
G37*
D12*
G36*
X195959Y85294D02*
X137793Y186040D01*
X216541Y231506D01*
X274707Y130760D01*
X195959Y85294D01*
G37*
D13*
G36*
X143049Y79399D02*
X108295Y59334D01*
X96879Y79107D01*
X131633Y99172D01*
X143049Y79399D01*
G37*
G36*
X128922Y-111298D02*
X108857Y-76544D01*
X128630Y-65128D01*
X148695Y-99882D01*
X128922Y-111298D01*
G37*
D12*
G36*
X90823Y-189609D02*
X191569Y-131443D01*
X237035Y-210191D01*
X136289Y-268357D01*
X90823Y-189609D01*
G37*
D13*
G36*
X84928Y-136698D02*
X64863Y-101944D01*
X84636Y-90528D01*
X104701Y-125282D01*
X84928Y-136698D01*
G37*
G36*
X-119301Y98861D02*
X-89385Y72113D01*
X-104603Y55093D01*
X-134519Y81841D01*
X-119301Y98861D01*
G37*
D12*
G36*
X-107567Y185153D02*
X-185105Y98432D01*
X-252893Y159041D01*
X-175355Y245762D01*
X-107567Y185153D01*
G37*
D13*
G36*
X-85441Y136731D02*
X-55525Y109983D01*
X-70743Y92963D01*
X-100659Y119711D01*
X-85441Y136731D01*
G37*
G36*
X-106235Y-133135D02*
X-71481Y-113070D01*
X-60065Y-132843D01*
X-94819Y-152908D01*
X-106235Y-133135D01*
G37*
D12*
G36*
X-184545Y-95036D02*
X-126379Y-195782D01*
X-205127Y-241248D01*
X-263293Y-140502D01*
X-184545Y-95036D01*
G37*
D13*
G36*
X-131635Y-89141D02*
X-96881Y-69076D01*
X-85465Y-88849D01*
X-120219Y-108914D01*
X-131635Y-89141D01*
G37*
D15*
X0Y140000D03*
X80000Y235000D03*
X210000Y-105000D03*
X-70000Y-195000D03*
X-190000Y45000D03*
X-80000Y145000D03*
X155000Y70000D03*
X80000Y-145000D03*
X-130000Y-80000D03*
X-110000Y100000D03*
X105000Y-110000D03*
X115000Y100000D03*
X-105000Y-110000D03*
X70000Y-280000D03*
X-290000Y-90000D03*
X280000Y50000D03*
X170000Y240000D03*
X245000Y-180000D03*
X-255000Y135000D03*
X-185000Y-245000D03*
X0Y-150000D03*
X145000Y-15000D03*
X-150000Y-15000D03*
X-67456Y295000D03*
M02*
