G04 EAGLE Gerber RS-274X export*
G75*
%MOMM*%
%FSLAX34Y34*%
%LPD*%
%INSoldermask Bottom*%
%IPPOS*%
%AMOC8*
5,1,8,0,0,1.08239X$1,22.5*%
G01*
G04 Define Apertures*
%ADD10C,20.203200*%
%ADD11R,6.654800X3.454400*%
%ADD12R,3.703200X2.203200*%
%ADD13C,0.705600*%
D10*
X0Y0D03*
D11*
X-1000Y297500D03*
X-5200Y-296800D03*
G36*
X-314220Y-50059D02*
X-314801Y16486D01*
X-280260Y16787D01*
X-279679Y-49758D01*
X-314220Y-50059D01*
G37*
G36*
X313664Y17782D02*
X314477Y-48760D01*
X279936Y-49182D01*
X279123Y17360D01*
X313664Y17782D01*
G37*
G36*
X241908Y206065D02*
X278831Y150701D01*
X250092Y131535D01*
X213169Y186899D01*
X241908Y206065D01*
G37*
G36*
X232428Y-216583D02*
X180711Y-258462D01*
X158972Y-231617D01*
X210689Y-189738D01*
X232428Y-216583D01*
G37*
G36*
X-185306Y214247D02*
X-227993Y163195D01*
X-254494Y185353D01*
X-211807Y236405D01*
X-185306Y214247D01*
G37*
G36*
X-225699Y-224289D02*
X-265562Y-171003D01*
X-237901Y-150311D01*
X-198038Y-203597D01*
X-225699Y-224289D01*
G37*
X-2000Y118256D03*
G36*
X-38050Y-100950D02*
X28456Y-103272D01*
X27250Y-137794D01*
X-39256Y-135472D01*
X-38050Y-100950D01*
G37*
G36*
X-140911Y-35024D02*
X-137428Y31432D01*
X-102933Y29624D01*
X-106416Y-36832D01*
X-140911Y-35024D01*
G37*
G36*
X137457Y23726D02*
X135483Y-42791D01*
X100955Y-41766D01*
X102929Y24751D01*
X137457Y23726D01*
G37*
G36*
X88367Y110770D02*
X129337Y58331D01*
X102115Y37064D01*
X61145Y89503D01*
X88367Y110770D01*
G37*
G36*
X118063Y-80360D02*
X68454Y-124716D01*
X45429Y-98964D01*
X95038Y-54608D01*
X118063Y-80360D01*
G37*
G36*
X-121254Y67369D02*
X-77595Y117592D01*
X-51524Y94929D01*
X-95183Y44706D01*
X-121254Y67369D01*
G37*
G36*
X-80911Y-117354D02*
X-122790Y-65637D01*
X-95945Y-43898D01*
X-54066Y-95615D01*
X-80911Y-117354D01*
G37*
D12*
X-98507Y274198D03*
X-98507Y184198D03*
D13*
X0Y140000D03*
X80000Y235000D03*
X210000Y-105000D03*
X-70000Y-195000D03*
X-190000Y45000D03*
X-80000Y145000D03*
X155000Y70000D03*
X80000Y-145000D03*
X-130000Y-80000D03*
X-110000Y100000D03*
X105000Y-110000D03*
X115000Y100000D03*
X-105000Y-110000D03*
X70000Y-280000D03*
X-290000Y-90000D03*
X280000Y50000D03*
X170000Y240000D03*
X245000Y-180000D03*
X-255000Y135000D03*
X-185000Y-245000D03*
X0Y-150000D03*
X145000Y-15000D03*
X-150000Y-15000D03*
X-67456Y295000D03*
M02*
