G04 EAGLE Gerber RS-274X export*
G75*
%MOMM*%
%FSLAX34Y34*%
%LPD*%
%INSolderpaste Bottom*%
%IPPOS*%
%AMOC8*
5,1,8,0,0,1.08239X$1,22.5*%
G01*
G04 Define Apertures*
%ADD10R,6.451600X3.251200*%
%ADD11R,3.500000X2.000000*%
D10*
X-1000Y297500D03*
X-5200Y-296800D03*
G36*
X-313213Y-49034D02*
X-313776Y15478D01*
X-281267Y15762D01*
X-280704Y-48750D01*
X-313213Y-49034D01*
G37*
G36*
X312660Y16754D02*
X313448Y-47756D01*
X280940Y-48154D01*
X280152Y16356D01*
X312660Y16754D01*
G37*
G36*
X241627Y204656D02*
X277422Y150983D01*
X250373Y132944D01*
X214578Y186617D01*
X241627Y204656D01*
G37*
G36*
X230999Y-216433D02*
X180862Y-257033D01*
X160401Y-231767D01*
X210538Y-191167D01*
X230999Y-216433D01*
G37*
G36*
X-186738Y214119D02*
X-228120Y164626D01*
X-253062Y185481D01*
X-211680Y234974D01*
X-186738Y214119D01*
G37*
G36*
X-225494Y-222867D02*
X-264139Y-171208D01*
X-238106Y-151733D01*
X-199461Y-203392D01*
X-225494Y-222867D01*
G37*
X-2000Y118256D03*
G36*
X-37071Y-102001D02*
X27405Y-104252D01*
X26271Y-136743D01*
X-38205Y-134492D01*
X-37071Y-102001D01*
G37*
G36*
X-139843Y-34063D02*
X-136467Y30364D01*
X-104001Y28663D01*
X-107377Y-35764D01*
X-139843Y-34063D01*
G37*
G36*
X136411Y22741D02*
X134497Y-41746D01*
X102001Y-40781D01*
X103915Y23706D01*
X136411Y22741D01*
G37*
G36*
X88191Y109344D02*
X127910Y58506D01*
X102291Y38490D01*
X62572Y89328D01*
X88191Y109344D01*
G37*
G36*
X116628Y-80280D02*
X68534Y-123281D01*
X46864Y-99044D01*
X94958Y-56043D01*
X116628Y-80280D01*
G37*
G36*
X-119820Y67469D02*
X-77495Y116159D01*
X-52958Y94829D01*
X-95283Y46139D01*
X-119820Y67469D01*
G37*
G36*
X-80761Y-115925D02*
X-121361Y-65788D01*
X-96095Y-45327D01*
X-55495Y-95464D01*
X-80761Y-115925D01*
G37*
D11*
X-98507Y274198D03*
X-98507Y184198D03*
M02*
