G04 EAGLE Gerber RS-274X export*
G75*
%MOMM*%
%FSLAX34Y34*%
%LPD*%
%INBottom Copper*%
%IPPOS*%
%AMOC8*
5,1,8,0,0,1.08239X$1,22.5*%
G01*
G04 Define Apertures*
%ADD10R,6.451600X3.251200*%
%ADD11R,1.400000X0.600000*%
%ADD12R,2.000000X3.500000*%
%ADD13R,0.973900X0.798700*%
%ADD14C,1.828800*%
%ADD15C,0.609600*%
%ADD16C,0.502400*%
%ADD17C,0.508000*%
%ADD18C,1.016000*%
G36*
X29755Y-245440D02*
X46Y-247237D01*
X-46Y-247237D01*
X-29755Y-245440D01*
X-29847Y-245428D01*
X-59123Y-240063D01*
X-59212Y-240041D01*
X-87628Y-231187D01*
X-87714Y-231154D01*
X-114856Y-218939D01*
X-114937Y-218896D01*
X-140409Y-203498D01*
X-140484Y-203446D01*
X-163914Y-185090D01*
X-163983Y-185029D01*
X-185029Y-163983D01*
X-185090Y-163914D01*
X-203446Y-140484D01*
X-203498Y-140409D01*
X-218896Y-114937D01*
X-218939Y-114856D01*
X-231154Y-87714D01*
X-231187Y-87628D01*
X-240041Y-59212D01*
X-240063Y-59123D01*
X-245428Y-29847D01*
X-245440Y-29755D01*
X-247237Y-46D01*
X-247237Y46D01*
X-245440Y29755D01*
X-245428Y29847D01*
X-240063Y59123D01*
X-240041Y59212D01*
X-231187Y87628D01*
X-231154Y87714D01*
X-218939Y114856D01*
X-218896Y114937D01*
X-203498Y140409D01*
X-203446Y140484D01*
X-185090Y163914D01*
X-185029Y163983D01*
X-163983Y185029D01*
X-163914Y185090D01*
X-140484Y203446D01*
X-140409Y203498D01*
X-114937Y218896D01*
X-114856Y218939D01*
X-87714Y231154D01*
X-87628Y231187D01*
X-59212Y240041D01*
X-59123Y240063D01*
X-40834Y243415D01*
X-40782Y243423D01*
X-14934Y246335D01*
X-14894Y246338D01*
X-13107Y246447D01*
X-13089Y246447D01*
X3049Y247051D01*
X3124Y247050D01*
X29755Y245440D01*
X29847Y245428D01*
X59123Y240063D01*
X59212Y240041D01*
X87628Y231187D01*
X87714Y231154D01*
X114856Y218939D01*
X114937Y218896D01*
X140409Y203498D01*
X140484Y203446D01*
X163914Y185090D01*
X163983Y185029D01*
X185029Y163983D01*
X185090Y163914D01*
X203446Y140484D01*
X203498Y140409D01*
X218896Y114937D01*
X218939Y114856D01*
X231154Y87714D01*
X231187Y87628D01*
X240041Y59212D01*
X240063Y59123D01*
X245428Y29847D01*
X245440Y29755D01*
X247237Y46D01*
X247237Y-46D01*
X245440Y-29755D01*
X245428Y-29847D01*
X240063Y-59123D01*
X240041Y-59212D01*
X231187Y-87628D01*
X231154Y-87714D01*
X218939Y-114856D01*
X218896Y-114937D01*
X203498Y-140409D01*
X203446Y-140484D01*
X185090Y-163914D01*
X185029Y-163983D01*
X163983Y-185029D01*
X163914Y-185090D01*
X140484Y-203446D01*
X140409Y-203498D01*
X114937Y-218896D01*
X114856Y-218939D01*
X87714Y-231154D01*
X87628Y-231187D01*
X59212Y-240041D01*
X59123Y-240063D01*
X29847Y-245428D01*
X29755Y-245440D01*
G37*
%LPC*%
G36*
X-34798Y216662D02*
X-762Y216662D01*
X-762Y234696D01*
X-33310Y234696D01*
X-34798Y233208D01*
X-34798Y216662D01*
G37*
G36*
X762Y216662D02*
X34798Y216662D01*
X34798Y233208D01*
X33310Y234696D01*
X762Y234696D01*
X762Y216662D01*
G37*
G36*
X762Y197104D02*
X33310Y197104D01*
X34798Y198592D01*
X34798Y215138D01*
X762Y215138D01*
X762Y197104D01*
G37*
G36*
X-33310Y197104D02*
X-762Y197104D01*
X-762Y215138D01*
X-34798Y215138D01*
X-34798Y198592D01*
X-33310Y197104D01*
G37*
G36*
X89651Y-154178D02*
X131329Y-154178D01*
X179578Y-105929D01*
X179578Y144029D01*
X141489Y182118D01*
X66791Y182118D01*
X61722Y177049D01*
X61722Y176689D01*
X61666Y176403D01*
X61499Y176150D01*
X56822Y171473D01*
X56580Y171310D01*
X56283Y171250D01*
X50909Y171250D01*
X50165Y170506D01*
X50165Y163454D01*
X50520Y163099D01*
X50673Y162879D01*
X50743Y162584D01*
X50692Y162285D01*
X50529Y162030D01*
X50279Y161858D01*
X49981Y161798D01*
X46471Y161798D01*
X43942Y159269D01*
X43942Y155691D01*
X46471Y153162D01*
X48185Y153162D01*
X48449Y153115D01*
X48707Y152956D01*
X48882Y152708D01*
X48947Y152412D01*
X48895Y152132D01*
X48895Y148742D01*
X67975Y148742D01*
X67975Y152156D01*
X67923Y152376D01*
X67974Y152675D01*
X68137Y152930D01*
X68388Y153102D01*
X68685Y153162D01*
X74981Y153162D01*
X75245Y153115D01*
X75503Y152956D01*
X75678Y152708D01*
X75743Y152412D01*
X75688Y152114D01*
X75520Y151861D01*
X75165Y151506D01*
X75165Y146132D01*
X75109Y145846D01*
X74942Y145593D01*
X70796Y141447D01*
X70554Y141284D01*
X70257Y141224D01*
X67111Y141224D01*
X66847Y141271D01*
X66589Y141430D01*
X66414Y141678D01*
X66349Y141974D01*
X66404Y142272D01*
X66572Y142525D01*
X67975Y143928D01*
X67975Y147218D01*
X48895Y147218D01*
X48895Y143928D01*
X50298Y142525D01*
X50451Y142305D01*
X50521Y142010D01*
X50470Y141711D01*
X50307Y141456D01*
X50057Y141284D01*
X49759Y141224D01*
X37969Y141224D01*
X37688Y141277D01*
X37434Y141443D01*
X37265Y141694D01*
X35753Y145345D01*
X32823Y148275D01*
X28995Y149860D01*
X6565Y149860D01*
X2737Y148275D01*
X-193Y145345D01*
X-653Y144234D01*
X-809Y143996D01*
X-1059Y143824D01*
X-1357Y143764D01*
X-1840Y143764D01*
X-2121Y143817D01*
X-2375Y143983D01*
X-2544Y144234D01*
X-3109Y145599D01*
X-6039Y148529D01*
X-9867Y150114D01*
X-32297Y150114D01*
X-36125Y148529D01*
X-39055Y145599D01*
X-40640Y141771D01*
X-40640Y137629D01*
X-39055Y133801D01*
X-36125Y130871D01*
X-32297Y129286D01*
X-9867Y129286D01*
X-6039Y130871D01*
X-3109Y133801D01*
X-2755Y134658D01*
X-2598Y134896D01*
X-2348Y135068D01*
X-2051Y135128D01*
X-1357Y135128D01*
X-1076Y135075D01*
X-822Y134909D01*
X-653Y134658D01*
X-193Y133547D01*
X2737Y130617D01*
X6565Y129032D01*
X28995Y129032D01*
X32823Y130617D01*
X34570Y132365D01*
X34812Y132528D01*
X35109Y132588D01*
X74150Y132588D01*
X85000Y143439D01*
X85242Y143602D01*
X85539Y143662D01*
X105771Y143662D01*
X105776Y143661D01*
X107876Y143662D01*
X109663Y143662D01*
X109842Y143841D01*
X110084Y144004D01*
X110381Y144065D01*
X114616Y144065D01*
X115360Y144808D01*
X115360Y153848D01*
X114616Y154592D01*
X103824Y154592D01*
X103081Y153848D01*
X103081Y153060D01*
X103029Y152785D01*
X102866Y152530D01*
X102616Y152358D01*
X102319Y152298D01*
X91889Y152298D01*
X91625Y152345D01*
X91367Y152504D01*
X91192Y152752D01*
X91127Y153048D01*
X91182Y153346D01*
X91350Y153599D01*
X91705Y153954D01*
X91705Y161274D01*
X91695Y161320D01*
X91750Y161618D01*
X91918Y161871D01*
X92975Y162928D01*
X92975Y166218D01*
X73895Y166218D01*
X73895Y162804D01*
X73947Y162584D01*
X73896Y162285D01*
X73733Y162030D01*
X73483Y161858D01*
X73185Y161798D01*
X66889Y161798D01*
X66625Y161845D01*
X66367Y162004D01*
X66192Y162252D01*
X66127Y162548D01*
X66182Y162846D01*
X66350Y163099D01*
X66705Y163454D01*
X66705Y168828D01*
X66761Y169114D01*
X66928Y169367D01*
X70376Y172814D01*
X70409Y172995D01*
X70573Y173250D01*
X70823Y173422D01*
X71120Y173482D01*
X74505Y173482D01*
X74769Y173435D01*
X75027Y173276D01*
X75202Y173028D01*
X75267Y172732D01*
X75212Y172434D01*
X75044Y172181D01*
X73895Y171032D01*
X73895Y167742D01*
X92975Y167742D01*
X92975Y171032D01*
X91826Y172181D01*
X91673Y172401D01*
X91603Y172696D01*
X91654Y172995D01*
X91817Y173250D01*
X92068Y173422D01*
X92365Y173482D01*
X102775Y173482D01*
X103039Y173435D01*
X103297Y173276D01*
X103472Y173028D01*
X103537Y172732D01*
X103482Y172434D01*
X103314Y172181D01*
X101811Y170678D01*
X101811Y166394D01*
X116630Y166394D01*
X116630Y170678D01*
X115126Y172181D01*
X114973Y172401D01*
X114903Y172696D01*
X114954Y172995D01*
X115117Y173250D01*
X115368Y173422D01*
X115665Y173482D01*
X137596Y173482D01*
X137882Y173426D01*
X138135Y173259D01*
X170719Y140675D01*
X170882Y140433D01*
X170942Y140136D01*
X170942Y-102036D01*
X170886Y-102322D01*
X170719Y-102575D01*
X127975Y-145319D01*
X127733Y-145482D01*
X127436Y-145542D01*
X89651Y-145542D01*
X87122Y-148071D01*
X87122Y-151649D01*
X89651Y-154178D01*
G37*
G36*
X-41910Y165862D02*
X-21844Y165862D01*
X-21844Y176784D01*
X-32550Y176784D01*
X-36844Y175005D01*
X-40131Y171718D01*
X-41910Y167424D01*
X-41910Y165862D01*
G37*
G36*
X-20320Y153416D02*
X-9614Y153416D01*
X-5320Y155195D01*
X-2033Y158482D01*
X-1720Y159236D01*
X-1576Y159461D01*
X-1330Y159639D01*
X-1035Y159706D01*
X-736Y159653D01*
X-482Y159487D01*
X-312Y159236D01*
X-193Y158947D01*
X2737Y156017D01*
X6565Y154432D01*
X28995Y154432D01*
X32823Y156017D01*
X35753Y158947D01*
X37338Y162775D01*
X37338Y166917D01*
X35753Y170745D01*
X32823Y173675D01*
X28995Y175260D01*
X6565Y175260D01*
X2737Y173675D01*
X-193Y170745D01*
X-207Y170710D01*
X-351Y170485D01*
X-597Y170307D01*
X-893Y170240D01*
X-1191Y170293D01*
X-1446Y170459D01*
X-1615Y170710D01*
X-2033Y171718D01*
X-5320Y175005D01*
X-9614Y176784D01*
X-20320Y176784D01*
X-20320Y153416D01*
G37*
G36*
X109982Y159099D02*
X115142Y159099D01*
X116630Y160586D01*
X116630Y164870D01*
X109982Y164870D01*
X109982Y159099D01*
G37*
G36*
X103298Y159099D02*
X108458Y159099D01*
X108458Y164870D01*
X101811Y164870D01*
X101811Y160586D01*
X103298Y159099D01*
G37*
G36*
X-32550Y153416D02*
X-21844Y153416D01*
X-21844Y164338D01*
X-41910Y164338D01*
X-41910Y162776D01*
X-40131Y158482D01*
X-36844Y155195D01*
X-32550Y153416D01*
G37*
G36*
X-197300Y-99997D02*
X-178220Y-99997D01*
X-178220Y-96707D01*
X-178557Y-96370D01*
X-178710Y-96150D01*
X-178780Y-95855D01*
X-178729Y-95556D01*
X-178566Y-95301D01*
X-178316Y-95129D01*
X-178018Y-95069D01*
X-177335Y-95069D01*
X-177049Y-95125D01*
X-176860Y-95250D01*
X-173682Y-95250D01*
X-171450Y-93018D01*
X-171450Y-89862D01*
X-173863Y-87449D01*
X-179458Y-87449D01*
X-179744Y-87393D01*
X-179997Y-87226D01*
X-180175Y-87048D01*
X-180333Y-86817D01*
X-180398Y-86521D01*
X-180343Y-86223D01*
X-180175Y-85970D01*
X-179490Y-85285D01*
X-179490Y-78233D01*
X-180234Y-77489D01*
X-185608Y-77489D01*
X-185854Y-77441D01*
X-203114Y-77441D01*
X-203388Y-77390D01*
X-203644Y-77226D01*
X-203815Y-76976D01*
X-203876Y-76679D01*
X-203876Y-76228D01*
X-204619Y-75485D01*
X-204935Y-75485D01*
X-205210Y-75433D01*
X-205465Y-75270D01*
X-205637Y-75020D01*
X-205697Y-74723D01*
X-205697Y69821D01*
X-205641Y70107D01*
X-205474Y70360D01*
X-166075Y109759D01*
X-165833Y109922D01*
X-165536Y109982D01*
X-40219Y109982D01*
X-39938Y109929D01*
X-39684Y109763D01*
X-39515Y109512D01*
X-39055Y108401D01*
X-36125Y105471D01*
X-32297Y103886D01*
X-9867Y103886D01*
X-6039Y105471D01*
X-3109Y108401D01*
X-2649Y109512D01*
X-2493Y109750D01*
X-2243Y109922D01*
X-1945Y109982D01*
X-1462Y109982D01*
X-1181Y109929D01*
X-927Y109763D01*
X-758Y109512D01*
X-193Y108147D01*
X2737Y105217D01*
X6565Y103632D01*
X28995Y103632D01*
X32823Y105217D01*
X35753Y108147D01*
X37338Y111975D01*
X37338Y116117D01*
X35753Y119945D01*
X32823Y122875D01*
X28995Y124460D01*
X6565Y124460D01*
X2737Y122875D01*
X-193Y119945D01*
X-547Y119088D01*
X-704Y118850D01*
X-954Y118678D01*
X-1251Y118618D01*
X-1945Y118618D01*
X-2226Y118671D01*
X-2480Y118837D01*
X-2649Y119088D01*
X-3109Y120199D01*
X-6039Y123129D01*
X-9867Y124714D01*
X-32297Y124714D01*
X-36125Y123129D01*
X-39055Y120199D01*
X-39515Y119088D01*
X-39671Y118850D01*
X-39921Y118678D01*
X-40219Y118618D01*
X-169429Y118618D01*
X-214333Y73714D01*
X-214333Y-74723D01*
X-214384Y-74997D01*
X-214548Y-75253D01*
X-214798Y-75424D01*
X-215095Y-75485D01*
X-215411Y-75485D01*
X-216155Y-76228D01*
X-216155Y-85268D01*
X-215411Y-86012D01*
X-210131Y-86012D01*
X-209845Y-86067D01*
X-209830Y-86077D01*
X-209144Y-86077D01*
X-208807Y-86155D01*
X-208263Y-86423D01*
X-207366Y-86118D01*
X-207120Y-86077D01*
X-196214Y-86077D01*
X-195950Y-86124D01*
X-195692Y-86283D01*
X-195517Y-86531D01*
X-195452Y-86827D01*
X-195507Y-87125D01*
X-195675Y-87378D01*
X-196030Y-87733D01*
X-196030Y-95053D01*
X-196020Y-95099D01*
X-196075Y-95397D01*
X-196243Y-95650D01*
X-197300Y-96707D01*
X-197300Y-99997D01*
G37*
G36*
X6565Y78232D02*
X28995Y78232D01*
X32823Y79817D01*
X35753Y82747D01*
X37338Y86575D01*
X37338Y90717D01*
X35753Y94545D01*
X32823Y97475D01*
X28995Y99060D01*
X6565Y99060D01*
X2737Y97475D01*
X-193Y94545D01*
X-894Y92851D01*
X-1039Y92625D01*
X-1285Y92448D01*
X-1580Y92381D01*
X-1879Y92434D01*
X-2133Y92599D01*
X-2302Y92851D01*
X-3109Y94799D01*
X-6039Y97729D01*
X-9867Y99314D01*
X-32297Y99314D01*
X-36125Y97729D01*
X-39055Y94799D01*
X-40640Y90971D01*
X-40640Y86829D01*
X-39055Y83001D01*
X-36125Y80071D01*
X-32297Y78486D01*
X-9867Y78486D01*
X-6039Y80071D01*
X-3109Y83001D01*
X-2408Y84695D01*
X-2263Y84921D01*
X-2018Y85098D01*
X-1722Y85166D01*
X-1423Y85112D01*
X-1169Y84947D01*
X-1000Y84695D01*
X-193Y82747D01*
X2737Y79817D01*
X6565Y78232D01*
G37*
G36*
X106891Y77494D02*
X113538Y77494D01*
X113538Y83266D01*
X108378Y83266D01*
X106891Y81778D01*
X106891Y77494D01*
G37*
G36*
X115062Y77494D02*
X121710Y77494D01*
X121710Y81778D01*
X120222Y83266D01*
X115062Y83266D01*
X115062Y77494D01*
G37*
G36*
X71540Y73762D02*
X80318Y73762D01*
X80318Y78540D01*
X73028Y78540D01*
X71540Y77052D01*
X71540Y73762D01*
G37*
G36*
X81842Y73762D02*
X90620Y73762D01*
X90620Y77052D01*
X89132Y78540D01*
X81842Y78540D01*
X81842Y73762D01*
G37*
G36*
X71671Y49682D02*
X75376Y49682D01*
X75612Y49730D01*
X88606Y49730D01*
X89350Y50474D01*
X89350Y57526D01*
X88665Y58211D01*
X88507Y58442D01*
X88442Y58738D01*
X88497Y59036D01*
X88665Y59289D01*
X89350Y59974D01*
X89350Y67294D01*
X89340Y67340D01*
X89395Y67638D01*
X89563Y67891D01*
X90620Y68948D01*
X90620Y72238D01*
X71540Y72238D01*
X71540Y68948D01*
X72597Y67891D01*
X72755Y67660D01*
X72820Y67364D01*
X72810Y67309D01*
X72810Y62596D01*
X72763Y62333D01*
X72604Y62075D01*
X72356Y61899D01*
X72060Y61834D01*
X71762Y61890D01*
X71509Y62057D01*
X65083Y68483D01*
X64837Y68529D01*
X64582Y68693D01*
X64410Y68943D01*
X64350Y69240D01*
X64350Y76526D01*
X63606Y77270D01*
X48554Y77270D01*
X47810Y76526D01*
X47810Y69474D01*
X48554Y68730D01*
X59924Y68730D01*
X60187Y68683D01*
X60445Y68524D01*
X60621Y68276D01*
X60686Y67980D01*
X60630Y67682D01*
X60463Y67429D01*
X58982Y65949D01*
X58982Y62371D01*
X60513Y60841D01*
X60666Y60621D01*
X60735Y60326D01*
X60685Y60027D01*
X60521Y59772D01*
X60271Y59600D01*
X59974Y59540D01*
X56842Y59540D01*
X56842Y54762D01*
X66001Y54762D01*
X66001Y54539D01*
X66074Y54591D01*
X66370Y54656D01*
X66668Y54600D01*
X66921Y54433D01*
X71671Y49682D01*
G37*
G36*
X115062Y70199D02*
X120222Y70199D01*
X121710Y71686D01*
X121710Y75970D01*
X115062Y75970D01*
X115062Y70199D01*
G37*
G36*
X108378Y70199D02*
X113538Y70199D01*
X113538Y75970D01*
X106891Y75970D01*
X106891Y71686D01*
X108378Y70199D01*
G37*
G36*
X6565Y27432D02*
X28995Y27432D01*
X32823Y29017D01*
X35753Y31947D01*
X37338Y35775D01*
X37338Y39917D01*
X35753Y43745D01*
X32823Y46675D01*
X28995Y48260D01*
X22860Y48260D01*
X22585Y48311D01*
X22330Y48475D01*
X22158Y48725D01*
X22098Y49022D01*
X22098Y52070D01*
X22149Y52345D01*
X22313Y52600D01*
X22563Y52772D01*
X22860Y52832D01*
X28995Y52832D01*
X32823Y54417D01*
X35753Y57347D01*
X37338Y61175D01*
X37338Y65317D01*
X35753Y69145D01*
X32823Y72075D01*
X28995Y73660D01*
X6565Y73660D01*
X2737Y72075D01*
X-193Y69145D01*
X-894Y67451D01*
X-1039Y67225D01*
X-1285Y67048D01*
X-1580Y66981D01*
X-1879Y67034D01*
X-2133Y67199D01*
X-2302Y67451D01*
X-3109Y69399D01*
X-6039Y72329D01*
X-9867Y73914D01*
X-32297Y73914D01*
X-36125Y72329D01*
X-39055Y69399D01*
X-40640Y65571D01*
X-40640Y61429D01*
X-39055Y57601D01*
X-36125Y54671D01*
X-32297Y53086D01*
X-9867Y53086D01*
X-6039Y54671D01*
X-3109Y57601D01*
X-2408Y59295D01*
X-2263Y59521D01*
X-2018Y59698D01*
X-1722Y59766D01*
X-1423Y59712D01*
X-1169Y59547D01*
X-1000Y59295D01*
X-193Y57347D01*
X2737Y54417D01*
X6565Y52832D01*
X12700Y52832D01*
X12975Y52781D01*
X13230Y52617D01*
X13402Y52367D01*
X13462Y52070D01*
X13462Y49022D01*
X13411Y48747D01*
X13247Y48492D01*
X12997Y48320D01*
X12700Y48260D01*
X6565Y48260D01*
X2737Y46675D01*
X-193Y43745D01*
X-653Y42634D01*
X-809Y42396D01*
X-1059Y42224D01*
X-1357Y42164D01*
X-1840Y42164D01*
X-2121Y42217D01*
X-2375Y42383D01*
X-2544Y42634D01*
X-3109Y43999D01*
X-6039Y46929D01*
X-9867Y48514D01*
X-32297Y48514D01*
X-36125Y46929D01*
X-39055Y43999D01*
X-39515Y42888D01*
X-39671Y42650D01*
X-39921Y42478D01*
X-40219Y42418D01*
X-67879Y42418D01*
X-68204Y42491D01*
X-68447Y42673D01*
X-72407Y47114D01*
X-72540Y47324D01*
X-72601Y47621D01*
X-72601Y52248D01*
X-73344Y52992D01*
X-84136Y52992D01*
X-84880Y52248D01*
X-84880Y46899D01*
X-84900Y46724D01*
X-85027Y46449D01*
X-86126Y44947D01*
X-85578Y41411D01*
X-82692Y39299D01*
X-79157Y39847D01*
X-78965Y40108D01*
X-78618Y40371D01*
X-78319Y40419D01*
X-78024Y40347D01*
X-77782Y40165D01*
X-74666Y36671D01*
X-74533Y36461D01*
X-74511Y36349D01*
X-73311Y35149D01*
X-73281Y35117D01*
X-72160Y33861D01*
X-72092Y33845D01*
X-71997Y33782D01*
X-70300Y33782D01*
X-70257Y33781D01*
X-68575Y33684D01*
X-68516Y33722D01*
X-68219Y33782D01*
X-40219Y33782D01*
X-39938Y33729D01*
X-39684Y33563D01*
X-39515Y33312D01*
X-39055Y32201D01*
X-36125Y29271D01*
X-32297Y27686D01*
X-9867Y27686D01*
X-6039Y29271D01*
X-3109Y32201D01*
X-2755Y33058D01*
X-2598Y33296D01*
X-2348Y33468D01*
X-2051Y33528D01*
X-1357Y33528D01*
X-1076Y33475D01*
X-822Y33309D01*
X-653Y33058D01*
X-193Y31947D01*
X2737Y29017D01*
X6565Y27432D01*
G37*
G36*
X-86150Y64794D02*
X-79502Y64794D01*
X-79502Y70566D01*
X-84662Y70566D01*
X-86150Y69078D01*
X-86150Y64794D01*
G37*
G36*
X-77978Y64794D02*
X-71331Y64794D01*
X-71331Y69078D01*
X-72818Y70566D01*
X-77978Y70566D01*
X-77978Y64794D01*
G37*
G36*
X-111866Y39570D02*
X-96814Y39570D01*
X-96070Y40314D01*
X-96070Y47366D01*
X-96755Y48051D01*
X-96913Y48282D01*
X-96978Y48578D01*
X-96923Y48876D01*
X-96755Y49129D01*
X-96070Y49814D01*
X-96070Y56866D01*
X-96755Y57551D01*
X-96913Y57782D01*
X-96978Y58078D01*
X-96923Y58376D01*
X-96755Y58629D01*
X-96070Y59314D01*
X-96070Y66366D01*
X-96814Y67110D01*
X-111866Y67110D01*
X-112610Y66366D01*
X-112610Y59314D01*
X-111925Y58629D01*
X-111767Y58398D01*
X-111702Y58102D01*
X-111757Y57804D01*
X-111925Y57551D01*
X-112610Y56866D01*
X-112610Y49814D01*
X-111925Y49129D01*
X-111767Y48898D01*
X-111702Y48602D01*
X-111757Y48304D01*
X-111925Y48051D01*
X-112610Y47366D01*
X-112610Y40314D01*
X-111866Y39570D01*
G37*
G36*
X-136866Y58570D02*
X-121814Y58570D01*
X-121070Y59314D01*
X-121070Y66366D01*
X-121814Y67110D01*
X-136866Y67110D01*
X-137610Y66366D01*
X-137610Y59314D01*
X-136866Y58570D01*
G37*
G36*
X104771Y51839D02*
X107513Y49541D01*
X111076Y49856D01*
X115295Y54892D01*
X115582Y55104D01*
X115879Y55165D01*
X119696Y55165D01*
X120440Y55908D01*
X120440Y64948D01*
X119696Y65692D01*
X108904Y65692D01*
X108161Y64948D01*
X108161Y60100D01*
X108127Y59878D01*
X107983Y59611D01*
X104456Y55402D01*
X104771Y51839D01*
G37*
G36*
X-77978Y57499D02*
X-72818Y57499D01*
X-71331Y58986D01*
X-71331Y63270D01*
X-77978Y63270D01*
X-77978Y57499D01*
G37*
G36*
X-84662Y57499D02*
X-79502Y57499D01*
X-79502Y63270D01*
X-86150Y63270D01*
X-86150Y58986D01*
X-84662Y57499D01*
G37*
G36*
X46540Y54762D02*
X55318Y54762D01*
X55318Y59540D01*
X48028Y59540D01*
X46540Y58052D01*
X46540Y54762D01*
G37*
G36*
X48028Y48460D02*
X55318Y48460D01*
X55318Y53238D01*
X46540Y53238D01*
X46540Y49948D01*
X48028Y48460D01*
G37*
G36*
X56842Y48460D02*
X64132Y48460D01*
X65620Y49948D01*
X65620Y53238D01*
X56842Y53238D01*
X56842Y48460D01*
G37*
G36*
X-138880Y44602D02*
X-130102Y44602D01*
X-130102Y49380D01*
X-137392Y49380D01*
X-138880Y47892D01*
X-138880Y44602D01*
G37*
G36*
X-128578Y44602D02*
X-119800Y44602D01*
X-119800Y47892D01*
X-121288Y49380D01*
X-128578Y49380D01*
X-128578Y44602D01*
G37*
G36*
X-128578Y38300D02*
X-121288Y38300D01*
X-119800Y39788D01*
X-119800Y43078D01*
X-128578Y43078D01*
X-128578Y38300D01*
G37*
G36*
X-137392Y38300D02*
X-130102Y38300D01*
X-130102Y43078D01*
X-138880Y43078D01*
X-138880Y39788D01*
X-137392Y38300D01*
G37*
G36*
X6565Y2032D02*
X28995Y2032D01*
X32823Y3617D01*
X35753Y6547D01*
X37338Y10375D01*
X37338Y14517D01*
X35753Y18345D01*
X32823Y21275D01*
X28995Y22860D01*
X6565Y22860D01*
X2737Y21275D01*
X-193Y18345D01*
X-894Y16651D01*
X-1039Y16425D01*
X-1285Y16248D01*
X-1580Y16181D01*
X-1879Y16234D01*
X-2133Y16399D01*
X-2302Y16651D01*
X-3109Y18599D01*
X-6039Y21529D01*
X-9867Y23114D01*
X-32297Y23114D01*
X-36125Y21529D01*
X-39055Y18599D01*
X-40640Y14771D01*
X-40640Y10629D01*
X-39055Y6801D01*
X-36125Y3871D01*
X-32297Y2286D01*
X-9867Y2286D01*
X-6039Y3871D01*
X-3109Y6801D01*
X-2408Y8495D01*
X-2263Y8721D01*
X-2018Y8898D01*
X-1722Y8966D01*
X-1423Y8912D01*
X-1169Y8747D01*
X-1000Y8495D01*
X-193Y6547D01*
X2737Y3617D01*
X6565Y2032D01*
G37*
G36*
X143694Y-51790D02*
X164746Y-51790D01*
X165490Y-51046D01*
X165490Y-14994D01*
X164746Y-14250D01*
X144746Y-14250D01*
X144460Y-14194D01*
X144207Y-14027D01*
X141193Y-11013D01*
X141030Y-10771D01*
X140970Y-10474D01*
X140970Y-6357D01*
X140003Y-4023D01*
X138217Y-2237D01*
X135883Y-1270D01*
X133357Y-1270D01*
X131023Y-2237D01*
X129237Y-4023D01*
X128270Y-6357D01*
X128270Y-14683D01*
X129237Y-17017D01*
X142727Y-30507D01*
X142890Y-30749D01*
X142950Y-31046D01*
X142950Y-51046D01*
X143694Y-51790D01*
G37*
G36*
X6565Y-23368D02*
X28995Y-23368D01*
X32823Y-21783D01*
X35753Y-18853D01*
X37338Y-15025D01*
X37338Y-10883D01*
X35753Y-7055D01*
X32823Y-4125D01*
X28995Y-2540D01*
X6565Y-2540D01*
X2737Y-4125D01*
X-193Y-7055D01*
X-894Y-8749D01*
X-1039Y-8975D01*
X-1285Y-9152D01*
X-1580Y-9220D01*
X-1879Y-9166D01*
X-2133Y-9001D01*
X-2302Y-8749D01*
X-3109Y-6801D01*
X-6039Y-3871D01*
X-9867Y-2286D01*
X-32297Y-2286D01*
X-36125Y-3871D01*
X-39055Y-6801D01*
X-40640Y-10629D01*
X-40640Y-14771D01*
X-39055Y-18599D01*
X-36125Y-21529D01*
X-32297Y-23114D01*
X-9867Y-23114D01*
X-6039Y-21529D01*
X-3109Y-18599D01*
X-2408Y-16905D01*
X-2263Y-16679D01*
X-2018Y-16502D01*
X-1722Y-16435D01*
X-1423Y-16488D01*
X-1169Y-16653D01*
X-1000Y-16905D01*
X-193Y-18853D01*
X2737Y-21783D01*
X6565Y-23368D01*
G37*
G36*
X-46983Y-179070D02*
X29203Y-179070D01*
X31537Y-178103D01*
X73963Y-135677D01*
X74930Y-133343D01*
X74930Y-51922D01*
X74986Y-51636D01*
X75153Y-51383D01*
X75490Y-51046D01*
X75490Y-14994D01*
X74746Y-14250D01*
X53694Y-14250D01*
X52950Y-14994D01*
X52950Y-51046D01*
X53694Y-51790D01*
X61468Y-51790D01*
X61743Y-51841D01*
X61998Y-52005D01*
X62170Y-52255D01*
X62230Y-52552D01*
X62230Y-129134D01*
X62174Y-129420D01*
X62007Y-129673D01*
X25533Y-166147D01*
X25291Y-166310D01*
X24994Y-166370D01*
X-42774Y-166370D01*
X-43060Y-166314D01*
X-43313Y-166147D01*
X-70063Y-139397D01*
X-72397Y-138430D01*
X-85083Y-138430D01*
X-87417Y-139397D01*
X-89203Y-141183D01*
X-90170Y-143517D01*
X-90170Y-146043D01*
X-89203Y-148377D01*
X-87417Y-150163D01*
X-85083Y-151130D01*
X-76606Y-151130D01*
X-76320Y-151186D01*
X-76067Y-151353D01*
X-49317Y-178103D01*
X-46983Y-179070D01*
G37*
G36*
X-41910Y-37338D02*
X-21844Y-37338D01*
X-21844Y-26416D01*
X-32550Y-26416D01*
X-36844Y-28195D01*
X-40131Y-31482D01*
X-41910Y-35776D01*
X-41910Y-37338D01*
G37*
G36*
X-20320Y-49784D02*
X-9614Y-49784D01*
X-5320Y-48005D01*
X-2033Y-44718D01*
X-1720Y-43964D01*
X-1576Y-43739D01*
X-1330Y-43561D01*
X-1035Y-43494D01*
X-736Y-43547D01*
X-482Y-43713D01*
X-312Y-43964D01*
X-193Y-44253D01*
X2737Y-47183D01*
X6565Y-48768D01*
X28995Y-48768D01*
X32823Y-47183D01*
X35753Y-44253D01*
X37338Y-40425D01*
X37338Y-36283D01*
X35753Y-32455D01*
X32823Y-29525D01*
X28995Y-27940D01*
X6565Y-27940D01*
X2737Y-29525D01*
X-193Y-32455D01*
X-207Y-32490D01*
X-351Y-32715D01*
X-597Y-32893D01*
X-893Y-32960D01*
X-1191Y-32907D01*
X-1446Y-32741D01*
X-1615Y-32490D01*
X-2033Y-31482D01*
X-5320Y-28195D01*
X-9614Y-26416D01*
X-20320Y-26416D01*
X-20320Y-49784D01*
G37*
G36*
X-32550Y-49784D02*
X-21844Y-49784D01*
X-21844Y-38862D01*
X-41910Y-38862D01*
X-41910Y-40424D01*
X-40131Y-44718D01*
X-36844Y-48005D01*
X-32550Y-49784D01*
G37*
G36*
X-41910Y-62738D02*
X-21844Y-62738D01*
X-21844Y-51816D01*
X-32550Y-51816D01*
X-36844Y-53595D01*
X-40131Y-56882D01*
X-41910Y-61176D01*
X-41910Y-62738D01*
G37*
G36*
X-20320Y-75184D02*
X-9614Y-75184D01*
X-5320Y-73405D01*
X-2033Y-70118D01*
X-1720Y-69364D01*
X-1576Y-69139D01*
X-1330Y-68961D01*
X-1035Y-68894D01*
X-736Y-68947D01*
X-482Y-69113D01*
X-312Y-69364D01*
X-193Y-69653D01*
X2737Y-72583D01*
X6565Y-74168D01*
X28995Y-74168D01*
X32823Y-72583D01*
X35753Y-69653D01*
X37338Y-65825D01*
X37338Y-61683D01*
X35753Y-57855D01*
X32823Y-54925D01*
X28995Y-53340D01*
X6565Y-53340D01*
X2737Y-54925D01*
X-193Y-57855D01*
X-207Y-57890D01*
X-351Y-58115D01*
X-597Y-58293D01*
X-893Y-58360D01*
X-1191Y-58307D01*
X-1446Y-58141D01*
X-1615Y-57890D01*
X-2033Y-56882D01*
X-5320Y-53595D01*
X-9614Y-51816D01*
X-20320Y-51816D01*
X-20320Y-75184D01*
G37*
G36*
X-32550Y-75184D02*
X-21844Y-75184D01*
X-21844Y-64262D01*
X-41910Y-64262D01*
X-41910Y-65824D01*
X-40131Y-70118D01*
X-36844Y-73405D01*
X-32550Y-75184D01*
G37*
G36*
X-172300Y-80997D02*
X-163522Y-80997D01*
X-163522Y-76219D01*
X-170812Y-76219D01*
X-172300Y-77707D01*
X-172300Y-80997D01*
G37*
G36*
X-161998Y-80997D02*
X-153220Y-80997D01*
X-153220Y-77707D01*
X-154708Y-76219D01*
X-161998Y-76219D01*
X-161998Y-80997D01*
G37*
G36*
X6312Y-100838D02*
X17018Y-100838D01*
X17018Y-77470D01*
X6312Y-77470D01*
X2018Y-79249D01*
X-985Y-82252D01*
X-1216Y-82410D01*
X-1512Y-82475D01*
X-1810Y-82419D01*
X-2063Y-82252D01*
X-5320Y-78995D01*
X-9614Y-77216D01*
X-20320Y-77216D01*
X-20320Y-100584D01*
X-9614Y-100584D01*
X-5320Y-98805D01*
X-2317Y-95803D01*
X-2086Y-95645D01*
X-1790Y-95579D01*
X-1492Y-95635D01*
X-1239Y-95803D01*
X2018Y-99059D01*
X6312Y-100838D01*
G37*
G36*
X-41910Y-88138D02*
X-21844Y-88138D01*
X-21844Y-77216D01*
X-32550Y-77216D01*
X-36844Y-78995D01*
X-40131Y-82282D01*
X-41910Y-86576D01*
X-41910Y-88138D01*
G37*
G36*
X18542Y-88392D02*
X38608Y-88392D01*
X38608Y-86830D01*
X36829Y-82536D01*
X33542Y-79249D01*
X29248Y-77470D01*
X18542Y-77470D01*
X18542Y-88392D01*
G37*
G36*
X-161998Y-87299D02*
X-154708Y-87299D01*
X-153220Y-85811D01*
X-153220Y-82521D01*
X-161998Y-82521D01*
X-161998Y-87299D01*
G37*
G36*
X-170812Y-87299D02*
X-163522Y-87299D01*
X-163522Y-82521D01*
X-172300Y-82521D01*
X-172300Y-85811D01*
X-170812Y-87299D01*
G37*
G36*
X-32550Y-100584D02*
X-21844Y-100584D01*
X-21844Y-89662D01*
X-41910Y-89662D01*
X-41910Y-91224D01*
X-40131Y-95518D01*
X-36844Y-98805D01*
X-32550Y-100584D01*
G37*
G36*
X18542Y-100838D02*
X29248Y-100838D01*
X33542Y-99059D01*
X36829Y-95772D01*
X38608Y-91478D01*
X38608Y-89916D01*
X18542Y-89916D01*
X18542Y-100838D01*
G37*
G36*
X-217425Y-96290D02*
X-210777Y-96290D01*
X-210777Y-90519D01*
X-215937Y-90519D01*
X-217425Y-92006D01*
X-217425Y-96290D01*
G37*
G36*
X-209253Y-96290D02*
X-202606Y-96290D01*
X-202606Y-92006D01*
X-204093Y-90519D01*
X-209253Y-90519D01*
X-209253Y-96290D01*
G37*
G36*
X-103389Y-144018D02*
X-99811Y-144018D01*
X-97282Y-141489D01*
X-97282Y-137911D01*
X-138752Y-96441D01*
X-164676Y-96441D01*
X-164912Y-96489D01*
X-170286Y-96489D01*
X-171030Y-97233D01*
X-171030Y-104285D01*
X-170286Y-105029D01*
X-164912Y-105029D01*
X-164666Y-105077D01*
X-142645Y-105077D01*
X-142359Y-105133D01*
X-142106Y-105300D01*
X-103389Y-144018D01*
G37*
G36*
X-209253Y-103586D02*
X-204093Y-103586D01*
X-202606Y-102098D01*
X-202606Y-97814D01*
X-209253Y-97814D01*
X-209253Y-103586D01*
G37*
G36*
X-215937Y-103586D02*
X-210777Y-103586D01*
X-210777Y-97814D01*
X-217425Y-97814D01*
X-217425Y-102098D01*
X-215937Y-103586D01*
G37*
G36*
X-186998Y-106299D02*
X-179708Y-106299D01*
X-178220Y-104811D01*
X-178220Y-101521D01*
X-186998Y-101521D01*
X-186998Y-106299D01*
G37*
G36*
X-195812Y-106299D02*
X-188522Y-106299D01*
X-188522Y-101521D01*
X-197300Y-101521D01*
X-197300Y-104811D01*
X-195812Y-106299D01*
G37*
G36*
X-41910Y-113538D02*
X-21844Y-113538D01*
X-21844Y-102616D01*
X-32550Y-102616D01*
X-36844Y-104395D01*
X-40131Y-107682D01*
X-41910Y-111976D01*
X-41910Y-113538D01*
G37*
G36*
X6312Y-126238D02*
X17018Y-126238D01*
X17018Y-102870D01*
X6312Y-102870D01*
X2018Y-104649D01*
X-985Y-107652D01*
X-1216Y-107810D01*
X-1512Y-107875D01*
X-1810Y-107819D01*
X-2063Y-107652D01*
X-5320Y-104395D01*
X-9614Y-102616D01*
X-20320Y-102616D01*
X-20320Y-125984D01*
X-9614Y-125984D01*
X-5320Y-124205D01*
X-2317Y-121203D01*
X-2086Y-121045D01*
X-1790Y-120979D01*
X-1492Y-121035D01*
X-1239Y-121203D01*
X2018Y-124459D01*
X6312Y-126238D01*
G37*
G36*
X18542Y-113792D02*
X38608Y-113792D01*
X38608Y-112230D01*
X36829Y-107936D01*
X33542Y-104649D01*
X29248Y-102870D01*
X18542Y-102870D01*
X18542Y-113792D01*
G37*
G36*
X-32550Y-125984D02*
X-21844Y-125984D01*
X-21844Y-115062D01*
X-41910Y-115062D01*
X-41910Y-116624D01*
X-40131Y-120918D01*
X-36844Y-124205D01*
X-32550Y-125984D01*
G37*
G36*
X18542Y-126238D02*
X29248Y-126238D01*
X33542Y-124459D01*
X36829Y-121172D01*
X38608Y-116878D01*
X38608Y-115316D01*
X18542Y-115316D01*
X18542Y-126238D01*
G37*
G36*
X-41910Y-138938D02*
X-21844Y-138938D01*
X-21844Y-128016D01*
X-32550Y-128016D01*
X-36844Y-129795D01*
X-40131Y-133082D01*
X-41910Y-137376D01*
X-41910Y-138938D01*
G37*
G36*
X6312Y-151638D02*
X17018Y-151638D01*
X17018Y-128270D01*
X6312Y-128270D01*
X2018Y-130049D01*
X-985Y-133052D01*
X-1216Y-133210D01*
X-1512Y-133275D01*
X-1810Y-133219D01*
X-2063Y-133052D01*
X-5320Y-129795D01*
X-9614Y-128016D01*
X-20320Y-128016D01*
X-20320Y-151384D01*
X-9614Y-151384D01*
X-5320Y-149605D01*
X-2317Y-146603D01*
X-2086Y-146445D01*
X-1790Y-146379D01*
X-1492Y-146435D01*
X-1239Y-146603D01*
X2018Y-149859D01*
X6312Y-151638D01*
G37*
G36*
X18542Y-139192D02*
X38608Y-139192D01*
X38608Y-137630D01*
X36829Y-133336D01*
X33542Y-130049D01*
X29248Y-128270D01*
X18542Y-128270D01*
X18542Y-139192D01*
G37*
G36*
X-32550Y-151384D02*
X-21844Y-151384D01*
X-21844Y-140462D01*
X-41910Y-140462D01*
X-41910Y-142024D01*
X-40131Y-146318D01*
X-36844Y-149605D01*
X-32550Y-151384D01*
G37*
G36*
X18542Y-151638D02*
X29248Y-151638D01*
X33542Y-149859D01*
X36829Y-146572D01*
X38608Y-142278D01*
X38608Y-140716D01*
X18542Y-140716D01*
X18542Y-151638D01*
G37*
G36*
X-34798Y-215138D02*
X-762Y-215138D01*
X-762Y-197104D01*
X-33310Y-197104D01*
X-34798Y-198592D01*
X-34798Y-215138D01*
G37*
G36*
X762Y-215138D02*
X34798Y-215138D01*
X34798Y-198592D01*
X33310Y-197104D01*
X762Y-197104D01*
X762Y-215138D01*
G37*
G36*
X762Y-234696D02*
X33310Y-234696D01*
X34798Y-233208D01*
X34798Y-216662D01*
X762Y-216662D01*
X762Y-234696D01*
G37*
G36*
X-33310Y-234696D02*
X-762Y-234696D01*
X-762Y-216662D01*
X-34798Y-216662D01*
X-34798Y-233208D01*
X-33310Y-234696D01*
G37*
%LPD*%
D10*
X0Y-215900D03*
X0Y215900D03*
D11*
X83435Y166980D03*
X83435Y157480D03*
X83435Y147980D03*
X58435Y147980D03*
X58435Y166980D03*
X-187760Y-100759D03*
X-187760Y-91259D03*
X-187760Y-81759D03*
X-162760Y-81759D03*
X-162760Y-100759D03*
X81080Y73000D03*
X81080Y63500D03*
X81080Y54000D03*
X56080Y54000D03*
X56080Y73000D03*
X-104340Y62840D03*
X-104340Y53340D03*
X-104340Y43840D03*
X-129340Y43840D03*
X-129340Y62840D03*
D12*
X154220Y-33020D03*
X64220Y-33020D03*
D13*
X109220Y149328D03*
X109220Y165632D03*
X114300Y60428D03*
X114300Y76732D03*
X-78740Y47728D03*
X-78740Y64032D03*
X-210015Y-80748D03*
X-210015Y-97052D03*
D14*
X-30226Y165100D02*
X-11938Y165100D01*
X-11938Y139700D02*
X-30226Y139700D01*
X-30226Y114300D02*
X-11938Y114300D01*
X-11938Y88900D02*
X-30226Y88900D01*
X-30226Y63500D02*
X-11938Y63500D01*
X-11938Y38100D02*
X-30226Y38100D01*
X-30226Y12700D02*
X-11938Y12700D01*
X-11938Y-12700D02*
X-30226Y-12700D01*
X-30226Y-38100D02*
X-11938Y-38100D01*
X-11938Y-63500D02*
X-30226Y-63500D01*
X-30226Y-88900D02*
X-11938Y-88900D01*
X-11938Y-114300D02*
X-30226Y-114300D01*
X-30226Y-139700D02*
X-11938Y-139700D01*
X8636Y164846D02*
X26924Y164846D01*
X26924Y139446D02*
X8636Y139446D01*
X8636Y114046D02*
X26924Y114046D01*
X26924Y88646D02*
X8636Y88646D01*
X8636Y63246D02*
X26924Y63246D01*
X26924Y37846D02*
X8636Y37846D01*
X8636Y12446D02*
X26924Y12446D01*
X26924Y-12954D02*
X8636Y-12954D01*
X8636Y-38354D02*
X26924Y-38354D01*
X26924Y-63754D02*
X8636Y-63754D01*
X8636Y-89154D02*
X26924Y-89154D01*
X26924Y-114554D02*
X8636Y-114554D01*
X8636Y-139954D02*
X26924Y-139954D01*
D15*
X58435Y166980D02*
X66040Y174585D01*
X66040Y175260D01*
X68580Y177800D01*
X139700Y177800D01*
X175260Y142240D01*
X175260Y-104140D01*
X129540Y-149860D01*
X91440Y-149860D01*
D16*
X91440Y-149860D03*
X-101600Y-139700D03*
D15*
X-140541Y-100759D02*
X-162760Y-100759D01*
X-140541Y-100759D02*
X-101600Y-139700D01*
D16*
X-71120Y-208280D03*
D15*
X-5080Y-210820D02*
X0Y-215900D01*
X-12700Y203200D02*
X0Y215900D01*
X-187760Y-91259D02*
X-187629Y-91390D01*
X48260Y157480D02*
X83435Y157480D01*
D16*
X48260Y157480D03*
D15*
X-187760Y-91259D02*
X-187941Y-91440D01*
D17*
X-187760Y-91259D02*
X-175441Y-91259D01*
X-175260Y-91440D01*
D16*
X-175260Y-91440D03*
D15*
X107873Y147980D02*
X109220Y149328D01*
X107873Y147980D02*
X83435Y147980D01*
X72361Y136906D02*
X20320Y136906D01*
X17780Y139446D01*
X72361Y136906D02*
X83435Y147980D01*
X17780Y139446D02*
X-20828Y139446D01*
X-21082Y139700D01*
X-187760Y-81759D02*
X-207961Y-81759D01*
X-210015Y-80748D01*
X-210015Y71925D01*
X-167640Y114300D01*
X-21082Y114300D01*
X17526Y114300D02*
X17780Y114046D01*
X17526Y114300D02*
X-21082Y114300D01*
X-78740Y47728D02*
X-81585Y43840D01*
X-20828Y37846D02*
X17780Y37846D01*
X-20828Y37846D02*
X-21082Y38100D01*
X17780Y37846D02*
X17780Y63246D01*
X-21082Y38100D02*
X-70155Y38100D01*
X-78740Y47728D01*
D16*
X63300Y64160D03*
D15*
X108915Y54000D02*
X114300Y60428D01*
X73460Y54000D02*
X63300Y64160D01*
D18*
X134620Y-13420D02*
X154220Y-33020D01*
X134620Y-13420D02*
X134620Y-7620D01*
D16*
X134620Y-7620D03*
D18*
X68580Y-40640D02*
X68580Y-132080D01*
X68580Y-40640D02*
X64220Y-36280D01*
X68580Y-132080D02*
X27940Y-172720D01*
X-45720Y-172720D01*
X-73660Y-144780D01*
X-83820Y-144780D01*
D16*
X-83820Y-144780D03*
M02*
