G04 EAGLE Gerber RS-274X export*
G75*
%MOMM*%
%FSLAX34Y34*%
%LPD*%
%INSilkscreen Top*%
%IPPOS*%
%AMOC8*
5,1,8,0,0,1.08239X$1,22.5*%
G01*
G04 Define Apertures*
%ADD10C,0.152400*%
%ADD11C,0.100000*%
%ADD12C,0.200000*%
G36*
X50348Y159880D02*
X50011Y159889D01*
X49691Y159918D01*
X49388Y159965D01*
X49101Y160031D01*
X48831Y160115D01*
X48578Y160219D01*
X48341Y160341D01*
X48121Y160482D01*
X47919Y160641D01*
X47736Y160817D01*
X47573Y161010D01*
X47429Y161219D01*
X47305Y161446D01*
X47200Y161689D01*
X47115Y161949D01*
X47049Y162226D01*
X48324Y162373D01*
X48443Y162030D01*
X48602Y161733D01*
X48800Y161481D01*
X49037Y161275D01*
X49313Y161115D01*
X49628Y161001D01*
X49982Y160932D01*
X50376Y160909D01*
X50623Y160919D01*
X50856Y160948D01*
X51076Y160996D01*
X51281Y161063D01*
X51473Y161149D01*
X51651Y161254D01*
X51815Y161379D01*
X51966Y161522D01*
X52101Y161683D01*
X52217Y161857D01*
X52316Y162046D01*
X52397Y162250D01*
X52460Y162468D01*
X52504Y162700D01*
X52531Y162946D01*
X52540Y163207D01*
X52531Y163434D01*
X52504Y163650D01*
X52459Y163855D01*
X52396Y164049D01*
X52315Y164232D01*
X52215Y164403D01*
X52098Y164563D01*
X51962Y164713D01*
X51812Y164847D01*
X51648Y164964D01*
X51472Y165063D01*
X51284Y165143D01*
X51083Y165206D01*
X50869Y165251D01*
X50643Y165278D01*
X50404Y165287D01*
X50153Y165277D01*
X49910Y165247D01*
X49677Y165196D01*
X49452Y165126D01*
X49231Y165031D01*
X49010Y164909D01*
X48790Y164758D01*
X48569Y164579D01*
X47336Y164579D01*
X47666Y169888D01*
X53276Y169888D01*
X53276Y168817D01*
X48814Y168817D01*
X48625Y165686D01*
X48836Y165834D01*
X49060Y165962D01*
X49296Y166070D01*
X49544Y166159D01*
X49805Y166228D01*
X50079Y166277D01*
X50365Y166307D01*
X50663Y166316D01*
X51018Y166303D01*
X51355Y166263D01*
X51673Y166196D01*
X51972Y166103D01*
X52253Y165983D01*
X52516Y165836D01*
X52760Y165662D01*
X52985Y165462D01*
X53188Y165240D01*
X53363Y165002D01*
X53512Y164748D01*
X53634Y164478D01*
X53728Y164191D01*
X53796Y163889D01*
X53836Y163570D01*
X53850Y163235D01*
X53835Y162855D01*
X53792Y162495D01*
X53719Y162157D01*
X53618Y161839D01*
X53487Y161542D01*
X53328Y161266D01*
X53139Y161011D01*
X52922Y160776D01*
X52679Y160566D01*
X52413Y160384D01*
X52125Y160230D01*
X51815Y160104D01*
X51482Y160006D01*
X51126Y159936D01*
X50748Y159894D01*
X50348Y159880D01*
G37*
G36*
X58737Y160020D02*
X57245Y160020D01*
X54493Y167598D01*
X55838Y167598D01*
X57504Y162667D01*
X57988Y161008D01*
X58233Y161827D01*
X58506Y162653D01*
X60229Y167598D01*
X61567Y167598D01*
X58737Y160020D01*
G37*
G36*
X42800Y161281D02*
X41770Y161281D01*
X41770Y164278D01*
X38800Y164278D01*
X38800Y165301D01*
X41770Y165301D01*
X41770Y168298D01*
X42800Y168298D01*
X42800Y165301D01*
X45769Y165301D01*
X45769Y164278D01*
X42800Y164278D01*
X42800Y161281D01*
G37*
G36*
X41254Y134480D02*
X40874Y134490D01*
X40507Y134518D01*
X40153Y134567D01*
X39813Y134634D01*
X39486Y134721D01*
X39173Y134827D01*
X38872Y134952D01*
X38586Y135096D01*
X38314Y135259D01*
X38058Y135438D01*
X37820Y135635D01*
X37597Y135848D01*
X37391Y136079D01*
X37202Y136326D01*
X37029Y136590D01*
X36873Y136872D01*
X36735Y137168D01*
X36614Y137477D01*
X36513Y137799D01*
X36429Y138133D01*
X36365Y138481D01*
X36318Y138841D01*
X36291Y139214D01*
X36281Y139600D01*
X36302Y140183D01*
X36362Y140733D01*
X36463Y141249D01*
X36604Y141731D01*
X36785Y142179D01*
X37006Y142592D01*
X37268Y142973D01*
X37570Y143319D01*
X37909Y143627D01*
X38280Y143895D01*
X38683Y144121D01*
X39120Y144306D01*
X39589Y144450D01*
X40090Y144553D01*
X40624Y144615D01*
X41191Y144635D01*
X41591Y144627D01*
X41972Y144601D01*
X42334Y144558D01*
X42676Y144497D01*
X42999Y144419D01*
X43303Y144324D01*
X43587Y144212D01*
X43852Y144082D01*
X44101Y143933D01*
X44334Y143764D01*
X44553Y143574D01*
X44758Y143362D01*
X44947Y143131D01*
X45122Y142878D01*
X45283Y142604D01*
X45428Y142310D01*
X44154Y141932D01*
X43924Y142324D01*
X43794Y142498D01*
X43654Y142659D01*
X43504Y142805D01*
X43344Y142937D01*
X43174Y143054D01*
X42995Y143158D01*
X42804Y143248D01*
X42603Y143326D01*
X42390Y143392D01*
X42165Y143447D01*
X41930Y143489D01*
X41683Y143519D01*
X41425Y143537D01*
X41156Y143543D01*
X40741Y143527D01*
X40352Y143478D01*
X39988Y143398D01*
X39648Y143285D01*
X39334Y143139D01*
X39046Y142962D01*
X38782Y142752D01*
X38544Y142510D01*
X38332Y142238D01*
X38148Y141940D01*
X37993Y141616D01*
X37866Y141266D01*
X37767Y140889D01*
X37697Y140485D01*
X37654Y140056D01*
X37640Y139600D01*
X37655Y139144D01*
X37700Y138714D01*
X37775Y138308D01*
X37880Y137927D01*
X38015Y137570D01*
X38180Y137238D01*
X38375Y136930D01*
X38600Y136648D01*
X38851Y136394D01*
X39125Y136174D01*
X39423Y135988D01*
X39743Y135836D01*
X40086Y135718D01*
X40453Y135633D01*
X40842Y135582D01*
X41254Y135566D01*
X41729Y135584D01*
X42188Y135639D01*
X42631Y135731D01*
X43058Y135860D01*
X43456Y136020D01*
X43815Y136206D01*
X44134Y136419D01*
X44413Y136658D01*
X44413Y138437D01*
X41464Y138437D01*
X41464Y139558D01*
X45645Y139558D01*
X45645Y136154D01*
X45231Y135777D01*
X44773Y135446D01*
X44270Y135159D01*
X43723Y134918D01*
X43435Y134815D01*
X43142Y134726D01*
X42842Y134651D01*
X42537Y134589D01*
X42225Y134542D01*
X41907Y134507D01*
X41584Y134487D01*
X41254Y134480D01*
G37*
G36*
X53993Y134620D02*
X47809Y134620D01*
X47809Y135692D01*
X50323Y135692D01*
X50323Y143284D01*
X48096Y141694D01*
X48096Y142884D01*
X50428Y144488D01*
X51591Y144488D01*
X51591Y135692D01*
X53993Y135692D01*
X53993Y134620D01*
G37*
G36*
X-52726Y134480D02*
X-53106Y134490D01*
X-53473Y134518D01*
X-53827Y134567D01*
X-54167Y134634D01*
X-54494Y134721D01*
X-54807Y134827D01*
X-55108Y134952D01*
X-55394Y135096D01*
X-55666Y135259D01*
X-55922Y135438D01*
X-56160Y135635D01*
X-56383Y135848D01*
X-56589Y136079D01*
X-56778Y136326D01*
X-56951Y136590D01*
X-57107Y136872D01*
X-57246Y137168D01*
X-57366Y137477D01*
X-57467Y137799D01*
X-57551Y138133D01*
X-57615Y138481D01*
X-57662Y138841D01*
X-57689Y139214D01*
X-57699Y139600D01*
X-57679Y140183D01*
X-57618Y140733D01*
X-57517Y141249D01*
X-57376Y141731D01*
X-57195Y142179D01*
X-56974Y142592D01*
X-56712Y142973D01*
X-56410Y143319D01*
X-56071Y143627D01*
X-55700Y143895D01*
X-55297Y144121D01*
X-54860Y144306D01*
X-54391Y144450D01*
X-53890Y144553D01*
X-53356Y144615D01*
X-52789Y144635D01*
X-52389Y144627D01*
X-52008Y144601D01*
X-51646Y144558D01*
X-51304Y144497D01*
X-50981Y144419D01*
X-50677Y144324D01*
X-50393Y144212D01*
X-50128Y144082D01*
X-49879Y143933D01*
X-49646Y143764D01*
X-49427Y143574D01*
X-49222Y143362D01*
X-49033Y143131D01*
X-48858Y142878D01*
X-48697Y142604D01*
X-48552Y142310D01*
X-49826Y141932D01*
X-50056Y142324D01*
X-50186Y142498D01*
X-50326Y142659D01*
X-50476Y142805D01*
X-50636Y142937D01*
X-50806Y143054D01*
X-50986Y143158D01*
X-51176Y143248D01*
X-51378Y143326D01*
X-51590Y143392D01*
X-51815Y143447D01*
X-52050Y143489D01*
X-52297Y143519D01*
X-52555Y143537D01*
X-52824Y143543D01*
X-53239Y143527D01*
X-53628Y143478D01*
X-53992Y143398D01*
X-54332Y143285D01*
X-54646Y143139D01*
X-54934Y142962D01*
X-55198Y142752D01*
X-55436Y142510D01*
X-55648Y142238D01*
X-55832Y141940D01*
X-55987Y141616D01*
X-56114Y141266D01*
X-56213Y140889D01*
X-56283Y140485D01*
X-56326Y140056D01*
X-56340Y139600D01*
X-56325Y139144D01*
X-56280Y138714D01*
X-56205Y138308D01*
X-56100Y137927D01*
X-55965Y137570D01*
X-55800Y137238D01*
X-55605Y136930D01*
X-55380Y136648D01*
X-55129Y136394D01*
X-54855Y136174D01*
X-54557Y135988D01*
X-54237Y135836D01*
X-53894Y135718D01*
X-53527Y135633D01*
X-53138Y135582D01*
X-52726Y135566D01*
X-52251Y135584D01*
X-51792Y135639D01*
X-51349Y135731D01*
X-50922Y135860D01*
X-50524Y136020D01*
X-50165Y136206D01*
X-49846Y136419D01*
X-49567Y136658D01*
X-49567Y138437D01*
X-52516Y138437D01*
X-52516Y139558D01*
X-48335Y139558D01*
X-48335Y136154D01*
X-48749Y135777D01*
X-49207Y135446D01*
X-49710Y135159D01*
X-50257Y134918D01*
X-50545Y134815D01*
X-50838Y134726D01*
X-51138Y134651D01*
X-51443Y134589D01*
X-51755Y134542D01*
X-52073Y134507D01*
X-52396Y134487D01*
X-52726Y134480D01*
G37*
G36*
X-39987Y134620D02*
X-46171Y134620D01*
X-46171Y135692D01*
X-43657Y135692D01*
X-43657Y143284D01*
X-45884Y141694D01*
X-45884Y142884D01*
X-43552Y144488D01*
X-42389Y144488D01*
X-42389Y135692D01*
X-39987Y135692D01*
X-39987Y134620D01*
G37*
G36*
X43794Y111620D02*
X43414Y111630D01*
X43047Y111658D01*
X42693Y111707D01*
X42353Y111774D01*
X42026Y111861D01*
X41713Y111967D01*
X41412Y112092D01*
X41126Y112236D01*
X40854Y112399D01*
X40598Y112578D01*
X40360Y112775D01*
X40137Y112988D01*
X39931Y113219D01*
X39742Y113466D01*
X39569Y113730D01*
X39413Y114012D01*
X39275Y114308D01*
X39154Y114617D01*
X39053Y114939D01*
X38969Y115273D01*
X38905Y115621D01*
X38858Y115981D01*
X38831Y116354D01*
X38821Y116740D01*
X38842Y117323D01*
X38902Y117873D01*
X39003Y118389D01*
X39144Y118871D01*
X39325Y119319D01*
X39546Y119732D01*
X39808Y120113D01*
X40110Y120459D01*
X40449Y120767D01*
X40820Y121035D01*
X41223Y121261D01*
X41660Y121446D01*
X42129Y121590D01*
X42630Y121693D01*
X43164Y121755D01*
X43731Y121775D01*
X44131Y121767D01*
X44512Y121741D01*
X44874Y121698D01*
X45216Y121637D01*
X45539Y121559D01*
X45843Y121464D01*
X46127Y121352D01*
X46392Y121222D01*
X46641Y121073D01*
X46874Y120904D01*
X47093Y120714D01*
X47298Y120502D01*
X47487Y120271D01*
X47662Y120018D01*
X47823Y119744D01*
X47968Y119450D01*
X46694Y119072D01*
X46464Y119464D01*
X46334Y119638D01*
X46194Y119799D01*
X46044Y119945D01*
X45884Y120077D01*
X45714Y120194D01*
X45535Y120298D01*
X45344Y120388D01*
X45143Y120466D01*
X44930Y120532D01*
X44705Y120587D01*
X44470Y120629D01*
X44223Y120659D01*
X43965Y120677D01*
X43696Y120683D01*
X43281Y120667D01*
X42892Y120618D01*
X42528Y120538D01*
X42188Y120425D01*
X41874Y120279D01*
X41586Y120102D01*
X41322Y119892D01*
X41084Y119650D01*
X40872Y119378D01*
X40688Y119080D01*
X40533Y118756D01*
X40406Y118406D01*
X40307Y118029D01*
X40237Y117625D01*
X40194Y117196D01*
X40180Y116740D01*
X40195Y116284D01*
X40240Y115854D01*
X40315Y115448D01*
X40420Y115067D01*
X40555Y114710D01*
X40720Y114378D01*
X40915Y114070D01*
X41140Y113788D01*
X41391Y113534D01*
X41665Y113314D01*
X41963Y113128D01*
X42283Y112976D01*
X42626Y112858D01*
X42993Y112773D01*
X43382Y112722D01*
X43794Y112706D01*
X44269Y112724D01*
X44728Y112779D01*
X45171Y112871D01*
X45598Y113000D01*
X45996Y113160D01*
X46355Y113346D01*
X46674Y113559D01*
X46953Y113798D01*
X46953Y115577D01*
X44004Y115577D01*
X44004Y116698D01*
X48185Y116698D01*
X48185Y113294D01*
X47771Y112917D01*
X47313Y112586D01*
X46810Y112299D01*
X46263Y112058D01*
X45975Y111955D01*
X45682Y111866D01*
X45382Y111791D01*
X45077Y111729D01*
X44765Y111682D01*
X44447Y111647D01*
X44124Y111627D01*
X43794Y111620D01*
G37*
G36*
X56512Y111760D02*
X49978Y111760D01*
X49978Y112649D01*
X50166Y113047D01*
X50374Y113421D01*
X50602Y113770D01*
X50850Y114096D01*
X51378Y114693D01*
X51932Y115230D01*
X52496Y115720D01*
X53056Y116172D01*
X53585Y116607D01*
X54061Y117041D01*
X54274Y117261D01*
X54466Y117486D01*
X54637Y117716D01*
X54786Y117951D01*
X54907Y118197D01*
X54993Y118459D01*
X55045Y118737D01*
X55062Y119030D01*
X55055Y119227D01*
X55033Y119413D01*
X54995Y119588D01*
X54943Y119751D01*
X54876Y119903D01*
X54794Y120044D01*
X54698Y120173D01*
X54586Y120291D01*
X54461Y120396D01*
X54325Y120487D01*
X54177Y120564D01*
X54017Y120627D01*
X53846Y120676D01*
X53663Y120711D01*
X53468Y120732D01*
X53262Y120739D01*
X53065Y120732D01*
X52877Y120711D01*
X52698Y120677D01*
X52528Y120629D01*
X52366Y120568D01*
X52214Y120493D01*
X51935Y120301D01*
X51811Y120186D01*
X51701Y120060D01*
X51604Y119923D01*
X51521Y119775D01*
X51451Y119616D01*
X51395Y119446D01*
X51352Y119264D01*
X51322Y119072D01*
X50034Y119191D01*
X50080Y119479D01*
X50149Y119753D01*
X50241Y120011D01*
X50355Y120254D01*
X50492Y120482D01*
X50652Y120695D01*
X50834Y120892D01*
X51039Y121075D01*
X51263Y121239D01*
X51502Y121381D01*
X51757Y121502D01*
X52027Y121600D01*
X52313Y121677D01*
X52614Y121732D01*
X52930Y121764D01*
X53262Y121775D01*
X53625Y121764D01*
X53965Y121731D01*
X54284Y121676D01*
X54582Y121599D01*
X54858Y121500D01*
X55112Y121379D01*
X55345Y121237D01*
X55556Y121072D01*
X55744Y120886D01*
X55907Y120683D01*
X56045Y120460D01*
X56158Y120220D01*
X56245Y119961D01*
X56308Y119683D01*
X56346Y119387D01*
X56358Y119072D01*
X56342Y118785D01*
X56292Y118499D01*
X56210Y118214D01*
X56095Y117930D01*
X55948Y117647D01*
X55769Y117363D01*
X55558Y117079D01*
X55315Y116796D01*
X54996Y116473D01*
X54560Y116073D01*
X54005Y115594D01*
X53332Y115038D01*
X52609Y114412D01*
X52309Y114123D01*
X52051Y113851D01*
X51829Y113589D01*
X51641Y113331D01*
X51486Y113079D01*
X51364Y112832D01*
X56512Y112832D01*
X56512Y111760D01*
G37*
G36*
X-52726Y111620D02*
X-53106Y111630D01*
X-53473Y111658D01*
X-53827Y111707D01*
X-54167Y111774D01*
X-54494Y111861D01*
X-54807Y111967D01*
X-55108Y112092D01*
X-55394Y112236D01*
X-55666Y112399D01*
X-55922Y112578D01*
X-56160Y112775D01*
X-56383Y112988D01*
X-56589Y113219D01*
X-56778Y113466D01*
X-56951Y113730D01*
X-57107Y114012D01*
X-57246Y114308D01*
X-57366Y114617D01*
X-57467Y114939D01*
X-57551Y115273D01*
X-57615Y115621D01*
X-57662Y115981D01*
X-57689Y116354D01*
X-57699Y116740D01*
X-57679Y117323D01*
X-57618Y117873D01*
X-57517Y118389D01*
X-57376Y118871D01*
X-57195Y119319D01*
X-56974Y119732D01*
X-56712Y120113D01*
X-56410Y120459D01*
X-56071Y120767D01*
X-55700Y121035D01*
X-55297Y121261D01*
X-54860Y121446D01*
X-54391Y121590D01*
X-53890Y121693D01*
X-53356Y121755D01*
X-52789Y121775D01*
X-52389Y121767D01*
X-52008Y121741D01*
X-51646Y121698D01*
X-51304Y121637D01*
X-50981Y121559D01*
X-50677Y121464D01*
X-50393Y121352D01*
X-50128Y121222D01*
X-49879Y121073D01*
X-49646Y120904D01*
X-49427Y120714D01*
X-49222Y120502D01*
X-49033Y120271D01*
X-48858Y120018D01*
X-48697Y119744D01*
X-48552Y119450D01*
X-49826Y119072D01*
X-50056Y119464D01*
X-50186Y119638D01*
X-50326Y119799D01*
X-50476Y119945D01*
X-50636Y120077D01*
X-50806Y120194D01*
X-50986Y120298D01*
X-51176Y120388D01*
X-51378Y120466D01*
X-51590Y120532D01*
X-51815Y120587D01*
X-52050Y120629D01*
X-52297Y120659D01*
X-52555Y120677D01*
X-52824Y120683D01*
X-53239Y120667D01*
X-53628Y120618D01*
X-53992Y120538D01*
X-54332Y120425D01*
X-54646Y120279D01*
X-54934Y120102D01*
X-55198Y119892D01*
X-55436Y119650D01*
X-55648Y119378D01*
X-55832Y119080D01*
X-55987Y118756D01*
X-56114Y118406D01*
X-56213Y118029D01*
X-56283Y117625D01*
X-56326Y117196D01*
X-56340Y116740D01*
X-56325Y116284D01*
X-56280Y115854D01*
X-56205Y115448D01*
X-56100Y115067D01*
X-55965Y114710D01*
X-55800Y114378D01*
X-55605Y114070D01*
X-55380Y113788D01*
X-55129Y113534D01*
X-54855Y113314D01*
X-54557Y113128D01*
X-54237Y112976D01*
X-53894Y112858D01*
X-53527Y112773D01*
X-53138Y112722D01*
X-52726Y112706D01*
X-52251Y112724D01*
X-51792Y112779D01*
X-51349Y112871D01*
X-50922Y113000D01*
X-50524Y113160D01*
X-50165Y113346D01*
X-49846Y113559D01*
X-49567Y113798D01*
X-49567Y115577D01*
X-52516Y115577D01*
X-52516Y116698D01*
X-48335Y116698D01*
X-48335Y113294D01*
X-48749Y112917D01*
X-49207Y112586D01*
X-49710Y112299D01*
X-50257Y112058D01*
X-50545Y111955D01*
X-50838Y111866D01*
X-51138Y111791D01*
X-51443Y111729D01*
X-51755Y111682D01*
X-52073Y111647D01*
X-52396Y111627D01*
X-52726Y111620D01*
G37*
G36*
X-40008Y111760D02*
X-46542Y111760D01*
X-46542Y112649D01*
X-46354Y113047D01*
X-46146Y113421D01*
X-45918Y113770D01*
X-45670Y114096D01*
X-45143Y114693D01*
X-44588Y115230D01*
X-44024Y115720D01*
X-43464Y116172D01*
X-42935Y116607D01*
X-42459Y117041D01*
X-42246Y117261D01*
X-42054Y117486D01*
X-41883Y117716D01*
X-41734Y117951D01*
X-41613Y118197D01*
X-41527Y118459D01*
X-41475Y118737D01*
X-41458Y119030D01*
X-41465Y119227D01*
X-41487Y119413D01*
X-41525Y119588D01*
X-41577Y119751D01*
X-41644Y119903D01*
X-41726Y120044D01*
X-41822Y120173D01*
X-41934Y120291D01*
X-42059Y120396D01*
X-42195Y120487D01*
X-42343Y120564D01*
X-42503Y120627D01*
X-42674Y120676D01*
X-42857Y120711D01*
X-43052Y120732D01*
X-43258Y120739D01*
X-43455Y120732D01*
X-43643Y120711D01*
X-43822Y120677D01*
X-43992Y120629D01*
X-44154Y120568D01*
X-44306Y120493D01*
X-44585Y120301D01*
X-44709Y120186D01*
X-44819Y120060D01*
X-44916Y119923D01*
X-44999Y119775D01*
X-45069Y119616D01*
X-45125Y119446D01*
X-45168Y119264D01*
X-45198Y119072D01*
X-46486Y119191D01*
X-46440Y119479D01*
X-46371Y119753D01*
X-46279Y120011D01*
X-46165Y120254D01*
X-46028Y120482D01*
X-45868Y120695D01*
X-45686Y120892D01*
X-45481Y121075D01*
X-45257Y121239D01*
X-45018Y121381D01*
X-44763Y121502D01*
X-44493Y121600D01*
X-44207Y121677D01*
X-43906Y121732D01*
X-43590Y121764D01*
X-43258Y121775D01*
X-42895Y121764D01*
X-42555Y121731D01*
X-42236Y121676D01*
X-41938Y121599D01*
X-41662Y121500D01*
X-41408Y121379D01*
X-41175Y121237D01*
X-40964Y121072D01*
X-40776Y120886D01*
X-40613Y120683D01*
X-40475Y120460D01*
X-40362Y120220D01*
X-40275Y119961D01*
X-40212Y119683D01*
X-40174Y119387D01*
X-40162Y119072D01*
X-40178Y118785D01*
X-40228Y118499D01*
X-40310Y118214D01*
X-40425Y117930D01*
X-40572Y117647D01*
X-40751Y117363D01*
X-40962Y117079D01*
X-41206Y116796D01*
X-41524Y116473D01*
X-41960Y116073D01*
X-42515Y115594D01*
X-43188Y115038D01*
X-43911Y114412D01*
X-44211Y114123D01*
X-44469Y113851D01*
X-44691Y113589D01*
X-44879Y113331D01*
X-45034Y113079D01*
X-45156Y112832D01*
X-40008Y112832D01*
X-40008Y111760D01*
G37*
G36*
X43794Y86220D02*
X43414Y86230D01*
X43047Y86258D01*
X42693Y86307D01*
X42353Y86374D01*
X42026Y86461D01*
X41713Y86567D01*
X41412Y86692D01*
X41126Y86836D01*
X40854Y86999D01*
X40598Y87178D01*
X40360Y87375D01*
X40137Y87588D01*
X39931Y87819D01*
X39742Y88066D01*
X39569Y88330D01*
X39413Y88612D01*
X39275Y88908D01*
X39154Y89217D01*
X39053Y89539D01*
X38969Y89873D01*
X38905Y90221D01*
X38858Y90581D01*
X38831Y90954D01*
X38821Y91340D01*
X38842Y91923D01*
X38902Y92473D01*
X39003Y92989D01*
X39144Y93471D01*
X39325Y93919D01*
X39546Y94332D01*
X39808Y94713D01*
X40110Y95059D01*
X40449Y95367D01*
X40820Y95635D01*
X41223Y95861D01*
X41660Y96046D01*
X42129Y96190D01*
X42630Y96293D01*
X43164Y96355D01*
X43731Y96375D01*
X44131Y96367D01*
X44512Y96341D01*
X44874Y96298D01*
X45216Y96237D01*
X45539Y96159D01*
X45843Y96064D01*
X46127Y95952D01*
X46392Y95822D01*
X46641Y95673D01*
X46874Y95504D01*
X47093Y95314D01*
X47298Y95102D01*
X47487Y94871D01*
X47662Y94618D01*
X47823Y94344D01*
X47968Y94050D01*
X46694Y93672D01*
X46464Y94064D01*
X46334Y94238D01*
X46194Y94399D01*
X46044Y94545D01*
X45884Y94677D01*
X45714Y94794D01*
X45535Y94898D01*
X45344Y94988D01*
X45143Y95066D01*
X44930Y95132D01*
X44705Y95187D01*
X44470Y95229D01*
X44223Y95259D01*
X43965Y95277D01*
X43696Y95283D01*
X43281Y95267D01*
X42892Y95218D01*
X42528Y95138D01*
X42188Y95025D01*
X41874Y94879D01*
X41586Y94702D01*
X41322Y94492D01*
X41084Y94250D01*
X40872Y93978D01*
X40688Y93680D01*
X40533Y93356D01*
X40406Y93006D01*
X40307Y92629D01*
X40237Y92225D01*
X40194Y91796D01*
X40180Y91340D01*
X40195Y90884D01*
X40240Y90454D01*
X40315Y90048D01*
X40420Y89667D01*
X40555Y89310D01*
X40720Y88978D01*
X40915Y88670D01*
X41140Y88388D01*
X41391Y88134D01*
X41665Y87914D01*
X41963Y87728D01*
X42283Y87576D01*
X42626Y87458D01*
X42993Y87373D01*
X43382Y87322D01*
X43794Y87306D01*
X44269Y87324D01*
X44728Y87379D01*
X45171Y87471D01*
X45598Y87600D01*
X45996Y87760D01*
X46355Y87946D01*
X46674Y88159D01*
X46953Y88398D01*
X46953Y90177D01*
X44004Y90177D01*
X44004Y91298D01*
X48185Y91298D01*
X48185Y87894D01*
X47771Y87517D01*
X47313Y87186D01*
X46810Y86899D01*
X46263Y86658D01*
X45975Y86555D01*
X45682Y86466D01*
X45382Y86391D01*
X45077Y86329D01*
X44765Y86282D01*
X44447Y86247D01*
X44124Y86227D01*
X43794Y86220D01*
G37*
G36*
X53255Y86220D02*
X52890Y86231D01*
X52544Y86262D01*
X52216Y86315D01*
X51908Y86389D01*
X51619Y86484D01*
X51348Y86600D01*
X51096Y86737D01*
X50864Y86896D01*
X50652Y87075D01*
X50462Y87274D01*
X50296Y87494D01*
X50152Y87734D01*
X50031Y87994D01*
X49932Y88274D01*
X49856Y88575D01*
X49803Y88895D01*
X51105Y89014D01*
X51143Y88802D01*
X51194Y88604D01*
X51258Y88419D01*
X51334Y88248D01*
X51424Y88091D01*
X51526Y87947D01*
X51641Y87817D01*
X51769Y87701D01*
X51910Y87599D01*
X52063Y87510D01*
X52230Y87434D01*
X52409Y87373D01*
X52602Y87325D01*
X52807Y87291D01*
X53025Y87270D01*
X53255Y87263D01*
X53487Y87271D01*
X53706Y87293D01*
X53912Y87329D01*
X54105Y87381D01*
X54286Y87447D01*
X54454Y87527D01*
X54609Y87623D01*
X54751Y87733D01*
X54878Y87857D01*
X54988Y87996D01*
X55081Y88149D01*
X55158Y88316D01*
X55217Y88497D01*
X55260Y88693D01*
X55285Y88902D01*
X55294Y89126D01*
X55284Y89322D01*
X55255Y89507D01*
X55206Y89681D01*
X55139Y89844D01*
X55051Y89995D01*
X54945Y90136D01*
X54819Y90265D01*
X54674Y90384D01*
X54510Y90490D01*
X54329Y90581D01*
X54131Y90659D01*
X53916Y90722D01*
X53684Y90772D01*
X53435Y90807D01*
X53168Y90828D01*
X52884Y90835D01*
X52170Y90835D01*
X52170Y91928D01*
X52856Y91928D01*
X53108Y91935D01*
X53345Y91956D01*
X53568Y91992D01*
X53776Y92041D01*
X53970Y92104D01*
X54149Y92182D01*
X54314Y92274D01*
X54464Y92380D01*
X54597Y92498D01*
X54713Y92627D01*
X54811Y92767D01*
X54892Y92918D01*
X54954Y93080D01*
X54999Y93252D01*
X55025Y93436D01*
X55034Y93630D01*
X55027Y93823D01*
X55005Y94005D01*
X54969Y94177D01*
X54918Y94338D01*
X54852Y94489D01*
X54772Y94630D01*
X54678Y94760D01*
X54569Y94880D01*
X54445Y94988D01*
X54308Y95081D01*
X54156Y95160D01*
X53990Y95224D01*
X53810Y95274D01*
X53616Y95310D01*
X53408Y95332D01*
X53185Y95339D01*
X52982Y95332D01*
X52789Y95312D01*
X52605Y95279D01*
X52432Y95232D01*
X52268Y95172D01*
X52114Y95099D01*
X51971Y95012D01*
X51837Y94912D01*
X51715Y94799D01*
X51607Y94676D01*
X51512Y94542D01*
X51430Y94397D01*
X51362Y94241D01*
X51307Y94074D01*
X51266Y93896D01*
X51238Y93707D01*
X49971Y93805D01*
X50017Y94100D01*
X50086Y94378D01*
X50178Y94639D01*
X50292Y94884D01*
X50429Y95112D01*
X50589Y95323D01*
X50771Y95518D01*
X50976Y95696D01*
X51200Y95855D01*
X51439Y95993D01*
X51694Y96110D01*
X51964Y96206D01*
X52250Y96280D01*
X52551Y96333D01*
X52867Y96365D01*
X53199Y96375D01*
X53560Y96365D01*
X53900Y96332D01*
X54220Y96278D01*
X54519Y96203D01*
X54797Y96106D01*
X55054Y95987D01*
X55291Y95847D01*
X55507Y95686D01*
X55700Y95505D01*
X55867Y95307D01*
X56009Y95092D01*
X56124Y94860D01*
X56214Y94611D01*
X56279Y94345D01*
X56317Y94063D01*
X56330Y93763D01*
X56322Y93532D01*
X56297Y93312D01*
X56256Y93104D01*
X56198Y92906D01*
X56124Y92719D01*
X56033Y92544D01*
X55925Y92379D01*
X55801Y92226D01*
X55662Y92084D01*
X55507Y91954D01*
X55337Y91835D01*
X55153Y91729D01*
X54953Y91635D01*
X54738Y91553D01*
X54509Y91482D01*
X54264Y91424D01*
X54264Y91396D01*
X54533Y91358D01*
X54787Y91305D01*
X55025Y91236D01*
X55248Y91151D01*
X55456Y91050D01*
X55648Y90933D01*
X55825Y90801D01*
X55987Y90653D01*
X56131Y90492D01*
X56257Y90322D01*
X56362Y90141D01*
X56449Y89949D01*
X56517Y89748D01*
X56565Y89537D01*
X56594Y89316D01*
X56603Y89084D01*
X56590Y88753D01*
X56549Y88440D01*
X56481Y88147D01*
X56386Y87873D01*
X56264Y87618D01*
X56115Y87383D01*
X55938Y87166D01*
X55735Y86969D01*
X55506Y86794D01*
X55254Y86641D01*
X54979Y86513D01*
X54681Y86407D01*
X54359Y86325D01*
X54014Y86267D01*
X53647Y86232D01*
X53255Y86220D01*
G37*
G36*
X-52726Y83680D02*
X-53106Y83690D01*
X-53473Y83718D01*
X-53827Y83767D01*
X-54167Y83834D01*
X-54494Y83921D01*
X-54807Y84027D01*
X-55108Y84152D01*
X-55394Y84296D01*
X-55666Y84459D01*
X-55922Y84638D01*
X-56160Y84835D01*
X-56383Y85048D01*
X-56589Y85279D01*
X-56778Y85526D01*
X-56951Y85790D01*
X-57107Y86072D01*
X-57246Y86368D01*
X-57366Y86677D01*
X-57467Y86999D01*
X-57551Y87333D01*
X-57615Y87681D01*
X-57662Y88041D01*
X-57689Y88414D01*
X-57699Y88800D01*
X-57679Y89383D01*
X-57618Y89933D01*
X-57517Y90449D01*
X-57376Y90931D01*
X-57195Y91379D01*
X-56974Y91792D01*
X-56712Y92173D01*
X-56410Y92519D01*
X-56071Y92827D01*
X-55700Y93095D01*
X-55297Y93321D01*
X-54860Y93506D01*
X-54391Y93650D01*
X-53890Y93753D01*
X-53356Y93815D01*
X-52789Y93835D01*
X-52389Y93827D01*
X-52008Y93801D01*
X-51646Y93758D01*
X-51304Y93697D01*
X-50981Y93619D01*
X-50677Y93524D01*
X-50393Y93412D01*
X-50128Y93282D01*
X-49879Y93133D01*
X-49646Y92964D01*
X-49427Y92774D01*
X-49222Y92562D01*
X-49033Y92331D01*
X-48858Y92078D01*
X-48697Y91804D01*
X-48552Y91510D01*
X-49826Y91132D01*
X-50056Y91524D01*
X-50186Y91698D01*
X-50326Y91859D01*
X-50476Y92005D01*
X-50636Y92137D01*
X-50806Y92254D01*
X-50986Y92358D01*
X-51176Y92448D01*
X-51378Y92526D01*
X-51590Y92592D01*
X-51815Y92647D01*
X-52050Y92689D01*
X-52297Y92719D01*
X-52555Y92737D01*
X-52824Y92743D01*
X-53239Y92727D01*
X-53628Y92678D01*
X-53992Y92598D01*
X-54332Y92485D01*
X-54646Y92339D01*
X-54934Y92162D01*
X-55198Y91952D01*
X-55436Y91710D01*
X-55648Y91438D01*
X-55832Y91140D01*
X-55987Y90816D01*
X-56114Y90466D01*
X-56213Y90089D01*
X-56283Y89685D01*
X-56326Y89256D01*
X-56340Y88800D01*
X-56325Y88344D01*
X-56280Y87914D01*
X-56205Y87508D01*
X-56100Y87127D01*
X-55965Y86770D01*
X-55800Y86438D01*
X-55605Y86130D01*
X-55380Y85848D01*
X-55129Y85594D01*
X-54855Y85374D01*
X-54557Y85188D01*
X-54237Y85036D01*
X-53894Y84918D01*
X-53527Y84833D01*
X-53138Y84782D01*
X-52726Y84766D01*
X-52251Y84784D01*
X-51792Y84839D01*
X-51349Y84931D01*
X-50922Y85060D01*
X-50524Y85220D01*
X-50165Y85406D01*
X-49846Y85619D01*
X-49567Y85858D01*
X-49567Y87637D01*
X-52516Y87637D01*
X-52516Y88758D01*
X-48335Y88758D01*
X-48335Y85354D01*
X-48749Y84977D01*
X-49207Y84646D01*
X-49710Y84359D01*
X-50257Y84118D01*
X-50545Y84015D01*
X-50838Y83926D01*
X-51138Y83851D01*
X-51443Y83789D01*
X-51755Y83742D01*
X-52073Y83707D01*
X-52396Y83687D01*
X-52726Y83680D01*
G37*
G36*
X-43265Y83680D02*
X-43630Y83691D01*
X-43976Y83722D01*
X-44304Y83775D01*
X-44612Y83849D01*
X-44901Y83944D01*
X-45172Y84060D01*
X-45424Y84197D01*
X-45656Y84356D01*
X-45868Y84535D01*
X-46058Y84734D01*
X-46224Y84954D01*
X-46368Y85194D01*
X-46489Y85454D01*
X-46588Y85734D01*
X-46664Y86035D01*
X-46717Y86355D01*
X-45415Y86474D01*
X-45377Y86262D01*
X-45326Y86064D01*
X-45262Y85879D01*
X-45186Y85708D01*
X-45096Y85551D01*
X-44994Y85407D01*
X-44879Y85277D01*
X-44751Y85161D01*
X-44610Y85059D01*
X-44457Y84970D01*
X-44290Y84894D01*
X-44111Y84833D01*
X-43919Y84785D01*
X-43713Y84751D01*
X-43495Y84730D01*
X-43265Y84723D01*
X-43033Y84731D01*
X-42814Y84753D01*
X-42608Y84789D01*
X-42415Y84841D01*
X-42234Y84907D01*
X-42066Y84987D01*
X-41911Y85083D01*
X-41769Y85193D01*
X-41642Y85317D01*
X-41532Y85456D01*
X-41439Y85609D01*
X-41362Y85776D01*
X-41303Y85957D01*
X-41260Y86153D01*
X-41235Y86362D01*
X-41227Y86586D01*
X-41236Y86782D01*
X-41265Y86967D01*
X-41314Y87141D01*
X-41381Y87304D01*
X-41469Y87455D01*
X-41575Y87596D01*
X-41701Y87725D01*
X-41846Y87844D01*
X-42010Y87950D01*
X-42191Y88041D01*
X-42389Y88119D01*
X-42604Y88182D01*
X-42836Y88232D01*
X-43085Y88267D01*
X-43352Y88288D01*
X-43636Y88295D01*
X-44350Y88295D01*
X-44350Y89388D01*
X-43664Y89388D01*
X-43412Y89395D01*
X-43175Y89416D01*
X-42952Y89452D01*
X-42744Y89501D01*
X-42550Y89564D01*
X-42371Y89642D01*
X-42206Y89734D01*
X-42056Y89840D01*
X-41923Y89958D01*
X-41807Y90087D01*
X-41709Y90227D01*
X-41628Y90378D01*
X-41566Y90540D01*
X-41521Y90712D01*
X-41495Y90896D01*
X-41486Y91090D01*
X-41493Y91283D01*
X-41515Y91465D01*
X-41551Y91637D01*
X-41602Y91798D01*
X-41668Y91949D01*
X-41748Y92090D01*
X-41842Y92220D01*
X-41951Y92340D01*
X-42075Y92448D01*
X-42213Y92541D01*
X-42364Y92620D01*
X-42530Y92684D01*
X-42710Y92734D01*
X-42904Y92770D01*
X-43112Y92792D01*
X-43335Y92799D01*
X-43538Y92792D01*
X-43731Y92772D01*
X-43915Y92739D01*
X-44088Y92692D01*
X-44252Y92632D01*
X-44406Y92559D01*
X-44549Y92472D01*
X-44683Y92372D01*
X-44805Y92259D01*
X-44913Y92136D01*
X-45008Y92002D01*
X-45090Y91857D01*
X-45158Y91701D01*
X-45213Y91534D01*
X-45254Y91356D01*
X-45282Y91167D01*
X-46549Y91265D01*
X-46503Y91560D01*
X-46434Y91838D01*
X-46342Y92099D01*
X-46228Y92344D01*
X-46091Y92572D01*
X-45932Y92783D01*
X-45749Y92978D01*
X-45544Y93156D01*
X-45320Y93315D01*
X-45081Y93453D01*
X-44826Y93570D01*
X-44556Y93666D01*
X-44270Y93740D01*
X-43969Y93793D01*
X-43653Y93825D01*
X-43321Y93835D01*
X-42960Y93825D01*
X-42620Y93792D01*
X-42300Y93738D01*
X-42001Y93663D01*
X-41723Y93566D01*
X-41466Y93447D01*
X-41229Y93307D01*
X-41013Y93146D01*
X-40820Y92965D01*
X-40653Y92767D01*
X-40511Y92552D01*
X-40396Y92320D01*
X-40306Y92071D01*
X-40241Y91805D01*
X-40203Y91523D01*
X-40190Y91223D01*
X-40198Y90992D01*
X-40223Y90772D01*
X-40264Y90564D01*
X-40322Y90366D01*
X-40397Y90179D01*
X-40487Y90004D01*
X-40595Y89839D01*
X-40719Y89686D01*
X-40858Y89544D01*
X-41013Y89414D01*
X-41183Y89295D01*
X-41367Y89189D01*
X-41567Y89095D01*
X-41782Y89013D01*
X-42011Y88942D01*
X-42256Y88884D01*
X-42256Y88856D01*
X-41987Y88818D01*
X-41733Y88765D01*
X-41495Y88696D01*
X-41272Y88611D01*
X-41064Y88510D01*
X-40872Y88393D01*
X-40695Y88261D01*
X-40533Y88113D01*
X-40389Y87952D01*
X-40263Y87782D01*
X-40158Y87601D01*
X-40071Y87409D01*
X-40003Y87208D01*
X-39955Y86997D01*
X-39926Y86776D01*
X-39917Y86544D01*
X-39930Y86213D01*
X-39971Y85900D01*
X-40039Y85607D01*
X-40134Y85333D01*
X-40256Y85078D01*
X-40405Y84843D01*
X-40582Y84626D01*
X-40785Y84429D01*
X-41014Y84254D01*
X-41266Y84101D01*
X-41541Y83973D01*
X-41839Y83867D01*
X-42161Y83785D01*
X-42506Y83727D01*
X-42874Y83692D01*
X-43265Y83680D01*
G37*
G36*
X-52726Y60820D02*
X-53106Y60830D01*
X-53473Y60858D01*
X-53827Y60907D01*
X-54167Y60974D01*
X-54494Y61061D01*
X-54807Y61167D01*
X-55108Y61292D01*
X-55394Y61436D01*
X-55666Y61599D01*
X-55922Y61778D01*
X-56160Y61975D01*
X-56383Y62188D01*
X-56589Y62419D01*
X-56778Y62666D01*
X-56951Y62930D01*
X-57107Y63212D01*
X-57246Y63508D01*
X-57366Y63817D01*
X-57467Y64139D01*
X-57551Y64473D01*
X-57615Y64821D01*
X-57662Y65181D01*
X-57689Y65554D01*
X-57699Y65940D01*
X-57679Y66523D01*
X-57618Y67073D01*
X-57517Y67589D01*
X-57376Y68071D01*
X-57195Y68519D01*
X-56974Y68932D01*
X-56712Y69313D01*
X-56410Y69659D01*
X-56071Y69967D01*
X-55700Y70235D01*
X-55297Y70461D01*
X-54860Y70646D01*
X-54391Y70790D01*
X-53890Y70893D01*
X-53356Y70955D01*
X-52789Y70975D01*
X-52389Y70967D01*
X-52008Y70941D01*
X-51646Y70898D01*
X-51304Y70837D01*
X-50981Y70759D01*
X-50677Y70664D01*
X-50393Y70552D01*
X-50128Y70422D01*
X-49879Y70273D01*
X-49646Y70104D01*
X-49427Y69914D01*
X-49222Y69702D01*
X-49033Y69471D01*
X-48858Y69218D01*
X-48697Y68944D01*
X-48552Y68650D01*
X-49826Y68272D01*
X-50056Y68664D01*
X-50186Y68838D01*
X-50326Y68999D01*
X-50476Y69145D01*
X-50636Y69277D01*
X-50806Y69394D01*
X-50986Y69498D01*
X-51176Y69588D01*
X-51378Y69666D01*
X-51590Y69732D01*
X-51815Y69787D01*
X-52050Y69829D01*
X-52297Y69859D01*
X-52555Y69877D01*
X-52824Y69883D01*
X-53239Y69867D01*
X-53628Y69818D01*
X-53992Y69738D01*
X-54332Y69625D01*
X-54646Y69479D01*
X-54934Y69302D01*
X-55198Y69092D01*
X-55436Y68850D01*
X-55648Y68578D01*
X-55832Y68280D01*
X-55987Y67956D01*
X-56114Y67606D01*
X-56213Y67229D01*
X-56283Y66825D01*
X-56326Y66396D01*
X-56340Y65940D01*
X-56325Y65484D01*
X-56280Y65054D01*
X-56205Y64648D01*
X-56100Y64267D01*
X-55965Y63910D01*
X-55800Y63578D01*
X-55605Y63270D01*
X-55380Y62988D01*
X-55129Y62734D01*
X-54855Y62514D01*
X-54557Y62328D01*
X-54237Y62176D01*
X-53894Y62058D01*
X-53527Y61973D01*
X-53138Y61922D01*
X-52726Y61906D01*
X-52251Y61924D01*
X-51792Y61979D01*
X-51349Y62071D01*
X-50922Y62200D01*
X-50524Y62360D01*
X-50165Y62546D01*
X-49846Y62759D01*
X-49567Y62998D01*
X-49567Y64777D01*
X-52516Y64777D01*
X-52516Y65898D01*
X-48335Y65898D01*
X-48335Y62494D01*
X-48749Y62117D01*
X-49207Y61786D01*
X-49710Y61499D01*
X-50257Y61258D01*
X-50545Y61155D01*
X-50838Y61066D01*
X-51138Y60991D01*
X-51443Y60929D01*
X-51755Y60882D01*
X-52073Y60847D01*
X-52396Y60827D01*
X-52726Y60820D01*
G37*
G36*
X-43265Y60820D02*
X-43630Y60831D01*
X-43976Y60862D01*
X-44304Y60915D01*
X-44612Y60989D01*
X-44901Y61084D01*
X-45172Y61200D01*
X-45424Y61337D01*
X-45656Y61496D01*
X-45868Y61675D01*
X-46058Y61874D01*
X-46224Y62094D01*
X-46368Y62334D01*
X-46489Y62594D01*
X-46588Y62874D01*
X-46664Y63175D01*
X-46717Y63495D01*
X-45415Y63614D01*
X-45377Y63402D01*
X-45326Y63204D01*
X-45262Y63019D01*
X-45186Y62848D01*
X-45096Y62691D01*
X-44994Y62547D01*
X-44879Y62417D01*
X-44751Y62301D01*
X-44610Y62199D01*
X-44457Y62110D01*
X-44290Y62034D01*
X-44111Y61973D01*
X-43919Y61925D01*
X-43713Y61891D01*
X-43495Y61870D01*
X-43265Y61863D01*
X-43033Y61871D01*
X-42814Y61893D01*
X-42608Y61929D01*
X-42415Y61981D01*
X-42234Y62047D01*
X-42066Y62127D01*
X-41911Y62223D01*
X-41769Y62333D01*
X-41642Y62457D01*
X-41532Y62596D01*
X-41439Y62749D01*
X-41362Y62916D01*
X-41303Y63097D01*
X-41260Y63293D01*
X-41235Y63502D01*
X-41227Y63726D01*
X-41236Y63922D01*
X-41265Y64107D01*
X-41314Y64281D01*
X-41381Y64444D01*
X-41469Y64595D01*
X-41575Y64736D01*
X-41701Y64865D01*
X-41846Y64984D01*
X-42010Y65090D01*
X-42191Y65181D01*
X-42389Y65259D01*
X-42604Y65322D01*
X-42836Y65372D01*
X-43085Y65407D01*
X-43352Y65428D01*
X-43636Y65435D01*
X-44350Y65435D01*
X-44350Y66528D01*
X-43664Y66528D01*
X-43412Y66535D01*
X-43175Y66556D01*
X-42952Y66592D01*
X-42744Y66641D01*
X-42550Y66704D01*
X-42371Y66782D01*
X-42206Y66874D01*
X-42056Y66980D01*
X-41923Y67098D01*
X-41807Y67227D01*
X-41709Y67367D01*
X-41628Y67518D01*
X-41566Y67680D01*
X-41521Y67852D01*
X-41495Y68036D01*
X-41486Y68230D01*
X-41493Y68423D01*
X-41515Y68605D01*
X-41551Y68777D01*
X-41602Y68938D01*
X-41668Y69089D01*
X-41748Y69230D01*
X-41842Y69360D01*
X-41951Y69480D01*
X-42075Y69588D01*
X-42213Y69681D01*
X-42364Y69760D01*
X-42530Y69824D01*
X-42710Y69874D01*
X-42904Y69910D01*
X-43112Y69932D01*
X-43335Y69939D01*
X-43538Y69932D01*
X-43731Y69912D01*
X-43915Y69879D01*
X-44088Y69832D01*
X-44252Y69772D01*
X-44406Y69699D01*
X-44549Y69612D01*
X-44683Y69512D01*
X-44805Y69399D01*
X-44913Y69276D01*
X-45008Y69142D01*
X-45090Y68997D01*
X-45158Y68841D01*
X-45213Y68674D01*
X-45254Y68496D01*
X-45282Y68307D01*
X-46549Y68405D01*
X-46503Y68700D01*
X-46434Y68978D01*
X-46342Y69239D01*
X-46228Y69484D01*
X-46091Y69712D01*
X-45932Y69923D01*
X-45749Y70118D01*
X-45544Y70296D01*
X-45320Y70455D01*
X-45081Y70593D01*
X-44826Y70710D01*
X-44556Y70806D01*
X-44270Y70880D01*
X-43969Y70933D01*
X-43653Y70965D01*
X-43321Y70975D01*
X-42960Y70965D01*
X-42620Y70932D01*
X-42300Y70878D01*
X-42001Y70803D01*
X-41723Y70706D01*
X-41466Y70587D01*
X-41229Y70447D01*
X-41013Y70286D01*
X-40820Y70105D01*
X-40653Y69907D01*
X-40511Y69692D01*
X-40396Y69460D01*
X-40306Y69211D01*
X-40241Y68945D01*
X-40203Y68663D01*
X-40190Y68363D01*
X-40198Y68132D01*
X-40223Y67912D01*
X-40264Y67704D01*
X-40322Y67506D01*
X-40397Y67319D01*
X-40487Y67144D01*
X-40595Y66979D01*
X-40719Y66826D01*
X-40858Y66684D01*
X-41013Y66554D01*
X-41183Y66435D01*
X-41367Y66329D01*
X-41567Y66235D01*
X-41782Y66153D01*
X-42011Y66082D01*
X-42256Y66024D01*
X-42256Y65996D01*
X-41987Y65958D01*
X-41733Y65905D01*
X-41495Y65836D01*
X-41272Y65751D01*
X-41064Y65650D01*
X-40872Y65533D01*
X-40695Y65401D01*
X-40533Y65253D01*
X-40389Y65092D01*
X-40263Y64922D01*
X-40158Y64741D01*
X-40071Y64549D01*
X-40003Y64348D01*
X-39955Y64137D01*
X-39926Y63916D01*
X-39917Y63684D01*
X-39930Y63353D01*
X-39971Y63040D01*
X-40039Y62747D01*
X-40134Y62473D01*
X-40256Y62218D01*
X-40405Y61983D01*
X-40582Y61766D01*
X-40785Y61569D01*
X-41014Y61394D01*
X-41266Y61241D01*
X-41541Y61113D01*
X-41839Y61007D01*
X-42161Y60925D01*
X-42506Y60867D01*
X-42874Y60832D01*
X-43265Y60820D01*
G37*
G36*
X43794Y60820D02*
X43414Y60830D01*
X43047Y60858D01*
X42693Y60907D01*
X42353Y60974D01*
X42026Y61061D01*
X41713Y61167D01*
X41412Y61292D01*
X41126Y61436D01*
X40854Y61599D01*
X40598Y61778D01*
X40360Y61975D01*
X40137Y62188D01*
X39931Y62419D01*
X39742Y62666D01*
X39569Y62930D01*
X39413Y63212D01*
X39275Y63508D01*
X39154Y63817D01*
X39053Y64139D01*
X38969Y64473D01*
X38905Y64821D01*
X38858Y65181D01*
X38831Y65554D01*
X38821Y65940D01*
X38842Y66523D01*
X38902Y67073D01*
X39003Y67589D01*
X39144Y68071D01*
X39325Y68519D01*
X39546Y68932D01*
X39808Y69313D01*
X40110Y69659D01*
X40449Y69967D01*
X40820Y70235D01*
X41223Y70461D01*
X41660Y70646D01*
X42129Y70790D01*
X42630Y70893D01*
X43164Y70955D01*
X43731Y70975D01*
X44131Y70967D01*
X44512Y70941D01*
X44874Y70898D01*
X45216Y70837D01*
X45539Y70759D01*
X45843Y70664D01*
X46127Y70552D01*
X46392Y70422D01*
X46641Y70273D01*
X46874Y70104D01*
X47093Y69914D01*
X47298Y69702D01*
X47487Y69471D01*
X47662Y69218D01*
X47823Y68944D01*
X47968Y68650D01*
X46694Y68272D01*
X46464Y68664D01*
X46334Y68838D01*
X46194Y68999D01*
X46044Y69145D01*
X45884Y69277D01*
X45714Y69394D01*
X45535Y69498D01*
X45344Y69588D01*
X45143Y69666D01*
X44930Y69732D01*
X44705Y69787D01*
X44470Y69829D01*
X44223Y69859D01*
X43965Y69877D01*
X43696Y69883D01*
X43281Y69867D01*
X42892Y69818D01*
X42528Y69738D01*
X42188Y69625D01*
X41874Y69479D01*
X41586Y69302D01*
X41322Y69092D01*
X41084Y68850D01*
X40872Y68578D01*
X40688Y68280D01*
X40533Y67956D01*
X40406Y67606D01*
X40307Y67229D01*
X40237Y66825D01*
X40194Y66396D01*
X40180Y65940D01*
X40195Y65484D01*
X40240Y65054D01*
X40315Y64648D01*
X40420Y64267D01*
X40555Y63910D01*
X40720Y63578D01*
X40915Y63270D01*
X41140Y62988D01*
X41391Y62734D01*
X41665Y62514D01*
X41963Y62328D01*
X42283Y62176D01*
X42626Y62058D01*
X42993Y61973D01*
X43382Y61922D01*
X43794Y61906D01*
X44269Y61924D01*
X44728Y61979D01*
X45171Y62071D01*
X45598Y62200D01*
X45996Y62360D01*
X46355Y62546D01*
X46674Y62759D01*
X46953Y62998D01*
X46953Y64777D01*
X44004Y64777D01*
X44004Y65898D01*
X48185Y65898D01*
X48185Y62494D01*
X47771Y62117D01*
X47313Y61786D01*
X46810Y61499D01*
X46263Y61258D01*
X45975Y61155D01*
X45682Y61066D01*
X45382Y60991D01*
X45077Y60929D01*
X44765Y60882D01*
X44447Y60847D01*
X44124Y60827D01*
X43794Y60820D01*
G37*
G36*
X55427Y60960D02*
X54236Y60960D01*
X54236Y63194D01*
X49585Y63194D01*
X49585Y64175D01*
X54103Y70828D01*
X55427Y70828D01*
X55427Y64189D01*
X56813Y64189D01*
X56813Y63194D01*
X55427Y63194D01*
X55427Y60960D01*
G37*
%LPC*%
G36*
X54236Y64189D02*
X54236Y69407D01*
X54040Y69035D01*
X53767Y68573D01*
X51238Y64847D01*
X50860Y64329D01*
X50748Y64189D01*
X54236Y64189D01*
G37*
%LPD*%
G36*
X43794Y35420D02*
X43414Y35430D01*
X43047Y35458D01*
X42693Y35507D01*
X42353Y35574D01*
X42026Y35661D01*
X41713Y35767D01*
X41412Y35892D01*
X41126Y36036D01*
X40854Y36199D01*
X40598Y36378D01*
X40360Y36575D01*
X40137Y36788D01*
X39931Y37019D01*
X39742Y37266D01*
X39569Y37530D01*
X39413Y37812D01*
X39275Y38108D01*
X39154Y38417D01*
X39053Y38739D01*
X38969Y39073D01*
X38905Y39421D01*
X38858Y39781D01*
X38831Y40154D01*
X38821Y40540D01*
X38842Y41123D01*
X38902Y41673D01*
X39003Y42189D01*
X39144Y42671D01*
X39325Y43119D01*
X39546Y43532D01*
X39808Y43913D01*
X40110Y44259D01*
X40449Y44567D01*
X40820Y44835D01*
X41223Y45061D01*
X41660Y45246D01*
X42129Y45390D01*
X42630Y45493D01*
X43164Y45555D01*
X43731Y45575D01*
X44131Y45567D01*
X44512Y45541D01*
X44874Y45498D01*
X45216Y45437D01*
X45539Y45359D01*
X45843Y45264D01*
X46127Y45152D01*
X46392Y45022D01*
X46641Y44873D01*
X46874Y44704D01*
X47093Y44514D01*
X47298Y44302D01*
X47487Y44071D01*
X47662Y43818D01*
X47823Y43544D01*
X47968Y43250D01*
X46694Y42872D01*
X46464Y43264D01*
X46334Y43438D01*
X46194Y43599D01*
X46044Y43745D01*
X45884Y43877D01*
X45714Y43994D01*
X45535Y44098D01*
X45344Y44188D01*
X45143Y44266D01*
X44930Y44332D01*
X44705Y44387D01*
X44470Y44429D01*
X44223Y44459D01*
X43965Y44477D01*
X43696Y44483D01*
X43281Y44467D01*
X42892Y44418D01*
X42528Y44338D01*
X42188Y44225D01*
X41874Y44079D01*
X41586Y43902D01*
X41322Y43692D01*
X41084Y43450D01*
X40872Y43178D01*
X40688Y42880D01*
X40533Y42556D01*
X40406Y42206D01*
X40307Y41829D01*
X40237Y41425D01*
X40194Y40996D01*
X40180Y40540D01*
X40195Y40084D01*
X40240Y39654D01*
X40315Y39248D01*
X40420Y38867D01*
X40555Y38510D01*
X40720Y38178D01*
X40915Y37870D01*
X41140Y37588D01*
X41391Y37334D01*
X41665Y37114D01*
X41963Y36928D01*
X42283Y36776D01*
X42626Y36658D01*
X42993Y36573D01*
X43382Y36522D01*
X43794Y36506D01*
X44269Y36524D01*
X44728Y36579D01*
X45171Y36671D01*
X45598Y36800D01*
X45996Y36960D01*
X46355Y37146D01*
X46674Y37359D01*
X46953Y37598D01*
X46953Y39377D01*
X44004Y39377D01*
X44004Y40498D01*
X48185Y40498D01*
X48185Y37094D01*
X47771Y36717D01*
X47313Y36386D01*
X46810Y36099D01*
X46263Y35858D01*
X45975Y35755D01*
X45682Y35666D01*
X45382Y35591D01*
X45077Y35529D01*
X44765Y35482D01*
X44447Y35447D01*
X44124Y35427D01*
X43794Y35420D01*
G37*
G36*
X55427Y35560D02*
X54236Y35560D01*
X54236Y37794D01*
X49585Y37794D01*
X49585Y38775D01*
X54103Y45428D01*
X55427Y45428D01*
X55427Y38789D01*
X56813Y38789D01*
X56813Y37794D01*
X55427Y37794D01*
X55427Y35560D01*
G37*
%LPC*%
G36*
X54236Y38789D02*
X54236Y44007D01*
X54040Y43635D01*
X53767Y43173D01*
X51238Y39447D01*
X50860Y38929D01*
X50748Y38789D01*
X54236Y38789D01*
G37*
%LPD*%
G36*
X-52726Y35420D02*
X-53106Y35430D01*
X-53473Y35458D01*
X-53827Y35507D01*
X-54167Y35574D01*
X-54494Y35661D01*
X-54807Y35767D01*
X-55108Y35892D01*
X-55394Y36036D01*
X-55666Y36199D01*
X-55922Y36378D01*
X-56160Y36575D01*
X-56383Y36788D01*
X-56589Y37019D01*
X-56778Y37266D01*
X-56951Y37530D01*
X-57107Y37812D01*
X-57246Y38108D01*
X-57366Y38417D01*
X-57467Y38739D01*
X-57551Y39073D01*
X-57615Y39421D01*
X-57662Y39781D01*
X-57689Y40154D01*
X-57699Y40540D01*
X-57679Y41123D01*
X-57618Y41673D01*
X-57517Y42189D01*
X-57376Y42671D01*
X-57195Y43119D01*
X-56974Y43532D01*
X-56712Y43913D01*
X-56410Y44259D01*
X-56071Y44567D01*
X-55700Y44835D01*
X-55297Y45061D01*
X-54860Y45246D01*
X-54391Y45390D01*
X-53890Y45493D01*
X-53356Y45555D01*
X-52789Y45575D01*
X-52389Y45567D01*
X-52008Y45541D01*
X-51646Y45498D01*
X-51304Y45437D01*
X-50981Y45359D01*
X-50677Y45264D01*
X-50393Y45152D01*
X-50128Y45022D01*
X-49879Y44873D01*
X-49646Y44704D01*
X-49427Y44514D01*
X-49222Y44302D01*
X-49033Y44071D01*
X-48858Y43818D01*
X-48697Y43544D01*
X-48552Y43250D01*
X-49826Y42872D01*
X-50056Y43264D01*
X-50186Y43438D01*
X-50326Y43599D01*
X-50476Y43745D01*
X-50636Y43877D01*
X-50806Y43994D01*
X-50986Y44098D01*
X-51176Y44188D01*
X-51378Y44266D01*
X-51590Y44332D01*
X-51815Y44387D01*
X-52050Y44429D01*
X-52297Y44459D01*
X-52555Y44477D01*
X-52824Y44483D01*
X-53239Y44467D01*
X-53628Y44418D01*
X-53992Y44338D01*
X-54332Y44225D01*
X-54646Y44079D01*
X-54934Y43902D01*
X-55198Y43692D01*
X-55436Y43450D01*
X-55648Y43178D01*
X-55832Y42880D01*
X-55987Y42556D01*
X-56114Y42206D01*
X-56213Y41829D01*
X-56283Y41425D01*
X-56326Y40996D01*
X-56340Y40540D01*
X-56325Y40084D01*
X-56280Y39654D01*
X-56205Y39248D01*
X-56100Y38867D01*
X-55965Y38510D01*
X-55800Y38178D01*
X-55605Y37870D01*
X-55380Y37588D01*
X-55129Y37334D01*
X-54855Y37114D01*
X-54557Y36928D01*
X-54237Y36776D01*
X-53894Y36658D01*
X-53527Y36573D01*
X-53138Y36522D01*
X-52726Y36506D01*
X-52251Y36524D01*
X-51792Y36579D01*
X-51349Y36671D01*
X-50922Y36800D01*
X-50524Y36960D01*
X-50165Y37146D01*
X-49846Y37359D01*
X-49567Y37598D01*
X-49567Y39377D01*
X-52516Y39377D01*
X-52516Y40498D01*
X-48335Y40498D01*
X-48335Y37094D01*
X-48749Y36717D01*
X-49207Y36386D01*
X-49710Y36099D01*
X-50257Y35858D01*
X-50545Y35755D01*
X-50838Y35666D01*
X-51138Y35591D01*
X-51443Y35529D01*
X-51755Y35482D01*
X-52073Y35447D01*
X-52396Y35427D01*
X-52726Y35420D01*
G37*
G36*
X-41093Y35560D02*
X-42284Y35560D01*
X-42284Y37794D01*
X-46935Y37794D01*
X-46935Y38775D01*
X-42417Y45428D01*
X-41093Y45428D01*
X-41093Y38789D01*
X-39707Y38789D01*
X-39707Y37794D01*
X-41093Y37794D01*
X-41093Y35560D01*
G37*
%LPC*%
G36*
X-42284Y38789D02*
X-42284Y44007D01*
X-42480Y43635D01*
X-42753Y43173D01*
X-45282Y39447D01*
X-45660Y38929D01*
X-45772Y38789D01*
X-42284Y38789D01*
G37*
%LPD*%
G36*
X43577Y10160D02*
X42190Y10160D01*
X38163Y20028D01*
X39571Y20028D01*
X42302Y13081D01*
X42891Y11337D01*
X43479Y13081D01*
X46196Y20028D01*
X47604Y20028D01*
X43577Y10160D01*
G37*
G36*
X54918Y10160D02*
X48384Y10160D01*
X48384Y11049D01*
X48572Y11447D01*
X48780Y11821D01*
X49008Y12170D01*
X49256Y12496D01*
X49784Y13093D01*
X50338Y13630D01*
X50903Y14120D01*
X51462Y14572D01*
X51992Y15007D01*
X52467Y15441D01*
X52680Y15661D01*
X52872Y15886D01*
X53043Y16116D01*
X53192Y16351D01*
X53313Y16597D01*
X53399Y16859D01*
X53451Y17137D01*
X53469Y17430D01*
X53461Y17627D01*
X53439Y17813D01*
X53402Y17988D01*
X53350Y18151D01*
X53283Y18303D01*
X53201Y18444D01*
X53104Y18573D01*
X52992Y18691D01*
X52868Y18796D01*
X52731Y18887D01*
X52583Y18964D01*
X52423Y19027D01*
X52252Y19076D01*
X52069Y19111D01*
X51875Y19132D01*
X51669Y19139D01*
X51472Y19132D01*
X51284Y19111D01*
X51104Y19077D01*
X50934Y19029D01*
X50773Y18968D01*
X50620Y18893D01*
X50341Y18701D01*
X50218Y18586D01*
X50107Y18460D01*
X50011Y18323D01*
X49927Y18175D01*
X49857Y18016D01*
X49801Y17846D01*
X49758Y17664D01*
X49729Y17472D01*
X48440Y17591D01*
X48486Y17879D01*
X48555Y18153D01*
X48647Y18411D01*
X48761Y18654D01*
X48898Y18882D01*
X49058Y19095D01*
X49240Y19292D01*
X49445Y19475D01*
X49669Y19639D01*
X49908Y19781D01*
X50163Y19902D01*
X50433Y20000D01*
X50719Y20077D01*
X51020Y20132D01*
X51337Y20164D01*
X51669Y20175D01*
X52031Y20164D01*
X52371Y20131D01*
X52691Y20076D01*
X52988Y19999D01*
X53264Y19900D01*
X53518Y19779D01*
X53751Y19637D01*
X53962Y19472D01*
X54150Y19286D01*
X54313Y19083D01*
X54451Y18860D01*
X54564Y18620D01*
X54652Y18361D01*
X54714Y18083D01*
X54752Y17787D01*
X54764Y17472D01*
X54748Y17185D01*
X54699Y16899D01*
X54617Y16614D01*
X54502Y16330D01*
X54354Y16047D01*
X54175Y15763D01*
X53964Y15479D01*
X53721Y15196D01*
X53403Y14873D01*
X52966Y14473D01*
X52412Y13994D01*
X51739Y13438D01*
X51016Y12812D01*
X50716Y12523D01*
X50457Y12251D01*
X50236Y11989D01*
X50047Y11731D01*
X49892Y11479D01*
X49771Y11232D01*
X54918Y11232D01*
X54918Y10160D01*
G37*
G36*
X-52943Y10160D02*
X-54330Y10160D01*
X-58357Y20028D01*
X-56949Y20028D01*
X-54218Y13081D01*
X-53629Y11337D01*
X-53041Y13081D01*
X-50324Y20028D01*
X-48916Y20028D01*
X-52943Y10160D01*
G37*
G36*
X-41602Y10160D02*
X-48136Y10160D01*
X-48136Y11049D01*
X-47948Y11447D01*
X-47740Y11821D01*
X-47512Y12170D01*
X-47264Y12496D01*
X-46736Y13093D01*
X-46182Y13630D01*
X-45617Y14120D01*
X-45058Y14572D01*
X-44528Y15007D01*
X-44053Y15441D01*
X-43840Y15661D01*
X-43648Y15886D01*
X-43477Y16116D01*
X-43328Y16351D01*
X-43207Y16597D01*
X-43121Y16859D01*
X-43069Y17137D01*
X-43051Y17430D01*
X-43059Y17627D01*
X-43081Y17813D01*
X-43118Y17988D01*
X-43170Y18151D01*
X-43237Y18303D01*
X-43319Y18444D01*
X-43416Y18573D01*
X-43528Y18691D01*
X-43653Y18796D01*
X-43789Y18887D01*
X-43937Y18964D01*
X-44097Y19027D01*
X-44268Y19076D01*
X-44451Y19111D01*
X-44645Y19132D01*
X-44851Y19139D01*
X-45048Y19132D01*
X-45236Y19111D01*
X-45416Y19077D01*
X-45586Y19029D01*
X-45747Y18968D01*
X-45900Y18893D01*
X-46179Y18701D01*
X-46302Y18586D01*
X-46413Y18460D01*
X-46509Y18323D01*
X-46593Y18175D01*
X-46663Y18016D01*
X-46719Y17846D01*
X-46762Y17664D01*
X-46791Y17472D01*
X-48080Y17591D01*
X-48034Y17879D01*
X-47965Y18153D01*
X-47873Y18411D01*
X-47759Y18654D01*
X-47622Y18882D01*
X-47462Y19095D01*
X-47280Y19292D01*
X-47075Y19475D01*
X-46851Y19639D01*
X-46612Y19781D01*
X-46357Y19902D01*
X-46087Y20000D01*
X-45801Y20077D01*
X-45500Y20132D01*
X-45183Y20164D01*
X-44851Y20175D01*
X-44489Y20164D01*
X-44149Y20131D01*
X-43830Y20076D01*
X-43532Y19999D01*
X-43256Y19900D01*
X-43002Y19779D01*
X-42769Y19637D01*
X-42558Y19472D01*
X-42370Y19286D01*
X-42207Y19083D01*
X-42069Y18860D01*
X-41956Y18620D01*
X-41868Y18361D01*
X-41806Y18083D01*
X-41768Y17787D01*
X-41756Y17472D01*
X-41772Y17185D01*
X-41821Y16899D01*
X-41903Y16614D01*
X-42018Y16330D01*
X-42166Y16047D01*
X-42345Y15763D01*
X-42556Y15479D01*
X-42799Y15196D01*
X-43117Y14873D01*
X-43554Y14473D01*
X-44109Y13994D01*
X-44781Y13438D01*
X-45504Y12812D01*
X-45804Y12523D01*
X-46063Y12251D01*
X-46285Y11989D01*
X-46473Y11731D01*
X-46628Y11479D01*
X-46749Y11232D01*
X-41602Y11232D01*
X-41602Y10160D01*
G37*
G36*
X-52943Y-15240D02*
X-54330Y-15240D01*
X-58357Y-5372D01*
X-56949Y-5372D01*
X-54218Y-12319D01*
X-53629Y-14063D01*
X-53041Y-12319D01*
X-50324Y-5372D01*
X-48916Y-5372D01*
X-52943Y-15240D01*
G37*
G36*
X-41602Y-15240D02*
X-48136Y-15240D01*
X-48136Y-14351D01*
X-47948Y-13953D01*
X-47740Y-13579D01*
X-47512Y-13230D01*
X-47264Y-12904D01*
X-46736Y-12307D01*
X-46182Y-11770D01*
X-45617Y-11280D01*
X-45058Y-10828D01*
X-44528Y-10393D01*
X-44053Y-9959D01*
X-43840Y-9739D01*
X-43648Y-9514D01*
X-43477Y-9284D01*
X-43328Y-9049D01*
X-43207Y-8803D01*
X-43121Y-8541D01*
X-43069Y-8263D01*
X-43051Y-7970D01*
X-43059Y-7773D01*
X-43081Y-7587D01*
X-43118Y-7412D01*
X-43170Y-7249D01*
X-43237Y-7097D01*
X-43319Y-6956D01*
X-43416Y-6827D01*
X-43528Y-6709D01*
X-43653Y-6604D01*
X-43789Y-6513D01*
X-43937Y-6436D01*
X-44097Y-6373D01*
X-44268Y-6324D01*
X-44451Y-6289D01*
X-44645Y-6268D01*
X-44851Y-6261D01*
X-45048Y-6268D01*
X-45236Y-6289D01*
X-45416Y-6323D01*
X-45586Y-6371D01*
X-45747Y-6432D01*
X-45900Y-6507D01*
X-46179Y-6699D01*
X-46302Y-6814D01*
X-46413Y-6940D01*
X-46509Y-7077D01*
X-46593Y-7225D01*
X-46663Y-7384D01*
X-46719Y-7554D01*
X-46762Y-7736D01*
X-46791Y-7928D01*
X-48080Y-7809D01*
X-48034Y-7521D01*
X-47965Y-7247D01*
X-47873Y-6989D01*
X-47759Y-6746D01*
X-47622Y-6518D01*
X-47462Y-6305D01*
X-47280Y-6108D01*
X-47075Y-5925D01*
X-46851Y-5761D01*
X-46612Y-5619D01*
X-46357Y-5498D01*
X-46087Y-5400D01*
X-45801Y-5323D01*
X-45500Y-5268D01*
X-45183Y-5236D01*
X-44851Y-5225D01*
X-44489Y-5236D01*
X-44149Y-5269D01*
X-43830Y-5324D01*
X-43532Y-5401D01*
X-43256Y-5500D01*
X-43002Y-5621D01*
X-42769Y-5764D01*
X-42558Y-5929D01*
X-42370Y-6114D01*
X-42207Y-6317D01*
X-42069Y-6540D01*
X-41956Y-6780D01*
X-41868Y-7040D01*
X-41806Y-7317D01*
X-41768Y-7613D01*
X-41756Y-7928D01*
X-41772Y-8215D01*
X-41821Y-8501D01*
X-41903Y-8786D01*
X-42018Y-9070D01*
X-42166Y-9353D01*
X-42345Y-9637D01*
X-42556Y-9921D01*
X-42799Y-10204D01*
X-43117Y-10527D01*
X-43554Y-10927D01*
X-44109Y-11406D01*
X-44781Y-11962D01*
X-45504Y-12588D01*
X-45804Y-12877D01*
X-46063Y-13149D01*
X-46285Y-13411D01*
X-46473Y-13669D01*
X-46628Y-13921D01*
X-46749Y-14168D01*
X-41602Y-14168D01*
X-41602Y-15240D01*
G37*
G36*
X43577Y-15240D02*
X42190Y-15240D01*
X38163Y-5372D01*
X39571Y-5372D01*
X42302Y-12319D01*
X42891Y-14063D01*
X43479Y-12319D01*
X46196Y-5372D01*
X47604Y-5372D01*
X43577Y-15240D01*
G37*
G36*
X54939Y-15240D02*
X48755Y-15240D01*
X48755Y-14168D01*
X51269Y-14168D01*
X51269Y-6576D01*
X49042Y-8166D01*
X49042Y-6976D01*
X51375Y-5372D01*
X52537Y-5372D01*
X52537Y-14168D01*
X54939Y-14168D01*
X54939Y-15240D01*
G37*
G36*
X43577Y-40640D02*
X42190Y-40640D01*
X38163Y-30772D01*
X39571Y-30772D01*
X42302Y-37719D01*
X42891Y-39463D01*
X43479Y-37719D01*
X46196Y-30772D01*
X47604Y-30772D01*
X43577Y-40640D01*
G37*
G36*
X54939Y-40640D02*
X48755Y-40640D01*
X48755Y-39568D01*
X51269Y-39568D01*
X51269Y-31976D01*
X49042Y-33566D01*
X49042Y-32376D01*
X51375Y-30772D01*
X52537Y-30772D01*
X52537Y-39568D01*
X54939Y-39568D01*
X54939Y-40640D01*
G37*
G36*
X43577Y-66040D02*
X42190Y-66040D01*
X38163Y-56172D01*
X39571Y-56172D01*
X42302Y-63119D01*
X42891Y-64863D01*
X43479Y-63119D01*
X46196Y-56172D01*
X47604Y-56172D01*
X43577Y-66040D01*
G37*
G36*
X54939Y-66040D02*
X48755Y-66040D01*
X48755Y-64968D01*
X51269Y-64968D01*
X51269Y-57376D01*
X49042Y-58966D01*
X49042Y-57776D01*
X51375Y-56172D01*
X52537Y-56172D01*
X52537Y-64968D01*
X54939Y-64968D01*
X54939Y-66040D01*
G37*
G36*
X-44039Y-66040D02*
X-45696Y-66040D01*
X-45696Y-61611D01*
X-44231Y-61611D01*
X-43958Y-61620D01*
X-43700Y-61646D01*
X-43459Y-61690D01*
X-43234Y-61752D01*
X-43025Y-61832D01*
X-42832Y-61928D01*
X-42655Y-62043D01*
X-42494Y-62175D01*
X-42351Y-62324D01*
X-42227Y-62487D01*
X-42122Y-62665D01*
X-42036Y-62859D01*
X-41969Y-63067D01*
X-41921Y-63290D01*
X-41892Y-63527D01*
X-41883Y-63780D01*
X-41900Y-64112D01*
X-41950Y-64422D01*
X-42033Y-64711D01*
X-42150Y-64979D01*
X-42298Y-65221D01*
X-42473Y-65433D01*
X-42676Y-65615D01*
X-42908Y-65767D01*
X-43162Y-65886D01*
X-43436Y-65972D01*
X-43728Y-66023D01*
X-44039Y-66040D01*
G37*
%LPC*%
G36*
X-44108Y-65559D02*
X-43872Y-65546D01*
X-43651Y-65506D01*
X-43444Y-65439D01*
X-43252Y-65345D01*
X-43078Y-65227D01*
X-42925Y-65084D01*
X-42794Y-64919D01*
X-42684Y-64729D01*
X-42598Y-64519D01*
X-42536Y-64291D01*
X-42499Y-64044D01*
X-42486Y-63780D01*
X-42493Y-63580D01*
X-42515Y-63393D01*
X-42550Y-63217D01*
X-42599Y-63054D01*
X-42663Y-62903D01*
X-42740Y-62765D01*
X-42832Y-62638D01*
X-42937Y-62524D01*
X-43057Y-62423D01*
X-43188Y-62335D01*
X-43333Y-62261D01*
X-43489Y-62200D01*
X-43659Y-62153D01*
X-43841Y-62119D01*
X-44036Y-62099D01*
X-44243Y-62092D01*
X-45095Y-62092D01*
X-45095Y-65559D01*
X-44108Y-65559D01*
G37*
%LPD*%
G36*
X-49818Y-66040D02*
X-50352Y-66040D01*
X-50352Y-61611D01*
X-49654Y-61611D01*
X-47259Y-65408D01*
X-47297Y-64516D01*
X-47297Y-61611D01*
X-46756Y-61611D01*
X-46756Y-66040D01*
X-47479Y-66040D01*
X-49849Y-62268D01*
X-49833Y-62573D01*
X-49818Y-63098D01*
X-49818Y-66040D01*
G37*
G36*
X-53325Y-66103D02*
X-53660Y-66086D01*
X-53971Y-66034D01*
X-54259Y-65947D01*
X-54522Y-65826D01*
X-54759Y-65673D01*
X-54966Y-65489D01*
X-55143Y-65274D01*
X-55291Y-65029D01*
X-55407Y-64758D01*
X-55490Y-64463D01*
X-55540Y-64146D01*
X-55556Y-63805D01*
X-55547Y-63543D01*
X-55520Y-63297D01*
X-55475Y-63065D01*
X-55412Y-62849D01*
X-55330Y-62648D01*
X-55231Y-62462D01*
X-55113Y-62291D01*
X-54978Y-62136D01*
X-54826Y-61998D01*
X-54659Y-61878D01*
X-54478Y-61776D01*
X-54282Y-61693D01*
X-54072Y-61628D01*
X-53847Y-61582D01*
X-53607Y-61554D01*
X-53353Y-61545D01*
X-53002Y-61561D01*
X-52686Y-61607D01*
X-52405Y-61685D01*
X-52158Y-61793D01*
X-51942Y-61936D01*
X-51752Y-62116D01*
X-51588Y-62334D01*
X-51451Y-62589D01*
X-52023Y-62758D01*
X-52126Y-62583D01*
X-52248Y-62432D01*
X-52387Y-62308D01*
X-52543Y-62208D01*
X-52719Y-62133D01*
X-52915Y-62079D01*
X-53132Y-62046D01*
X-53369Y-62035D01*
X-53555Y-62043D01*
X-53729Y-62064D01*
X-53893Y-62101D01*
X-54045Y-62151D01*
X-54186Y-62217D01*
X-54316Y-62296D01*
X-54434Y-62390D01*
X-54541Y-62499D01*
X-54636Y-62621D01*
X-54718Y-62755D01*
X-54788Y-62900D01*
X-54845Y-63057D01*
X-54889Y-63227D01*
X-54921Y-63408D01*
X-54940Y-63600D01*
X-54946Y-63805D01*
X-54940Y-64009D01*
X-54920Y-64203D01*
X-54886Y-64385D01*
X-54839Y-64556D01*
X-54778Y-64716D01*
X-54704Y-64865D01*
X-54617Y-65003D01*
X-54516Y-65130D01*
X-54403Y-65244D01*
X-54280Y-65343D01*
X-54146Y-65426D01*
X-54003Y-65494D01*
X-53849Y-65547D01*
X-53684Y-65585D01*
X-53510Y-65608D01*
X-53325Y-65616D01*
X-53111Y-65607D01*
X-52905Y-65583D01*
X-52707Y-65541D01*
X-52515Y-65484D01*
X-52336Y-65412D01*
X-52175Y-65328D01*
X-52032Y-65233D01*
X-51907Y-65125D01*
X-51907Y-64327D01*
X-53230Y-64327D01*
X-53230Y-63824D01*
X-51354Y-63824D01*
X-51354Y-65352D01*
X-51540Y-65521D01*
X-51745Y-65670D01*
X-51971Y-65798D01*
X-52217Y-65906D01*
X-52477Y-65992D01*
X-52749Y-66054D01*
X-53031Y-66091D01*
X-53325Y-66103D01*
G37*
G36*
X-41499Y-91440D02*
X-43156Y-91440D01*
X-43156Y-87011D01*
X-41691Y-87011D01*
X-41418Y-87020D01*
X-41160Y-87046D01*
X-40919Y-87090D01*
X-40694Y-87152D01*
X-40485Y-87232D01*
X-40292Y-87328D01*
X-40115Y-87443D01*
X-39954Y-87575D01*
X-39811Y-87724D01*
X-39687Y-87887D01*
X-39582Y-88065D01*
X-39496Y-88259D01*
X-39429Y-88467D01*
X-39381Y-88690D01*
X-39352Y-88927D01*
X-39343Y-89180D01*
X-39360Y-89512D01*
X-39410Y-89822D01*
X-39493Y-90111D01*
X-39610Y-90379D01*
X-39758Y-90621D01*
X-39933Y-90833D01*
X-40136Y-91015D01*
X-40368Y-91167D01*
X-40622Y-91286D01*
X-40896Y-91372D01*
X-41188Y-91423D01*
X-41499Y-91440D01*
G37*
%LPC*%
G36*
X-41568Y-90959D02*
X-41332Y-90946D01*
X-41111Y-90906D01*
X-40904Y-90839D01*
X-40712Y-90745D01*
X-40538Y-90627D01*
X-40385Y-90484D01*
X-40254Y-90319D01*
X-40144Y-90129D01*
X-40058Y-89919D01*
X-39996Y-89691D01*
X-39959Y-89444D01*
X-39946Y-89180D01*
X-39953Y-88980D01*
X-39975Y-88793D01*
X-40010Y-88617D01*
X-40059Y-88454D01*
X-40123Y-88303D01*
X-40200Y-88165D01*
X-40292Y-88038D01*
X-40397Y-87924D01*
X-40517Y-87823D01*
X-40648Y-87735D01*
X-40793Y-87661D01*
X-40949Y-87600D01*
X-41119Y-87553D01*
X-41301Y-87519D01*
X-41496Y-87499D01*
X-41703Y-87492D01*
X-42555Y-87492D01*
X-42555Y-90959D01*
X-41568Y-90959D01*
G37*
%LPD*%
G36*
X-47278Y-91440D02*
X-47812Y-91440D01*
X-47812Y-87011D01*
X-47114Y-87011D01*
X-44719Y-90808D01*
X-44757Y-89916D01*
X-44757Y-87011D01*
X-44216Y-87011D01*
X-44216Y-91440D01*
X-44939Y-91440D01*
X-47309Y-87668D01*
X-47293Y-87973D01*
X-47278Y-88498D01*
X-47278Y-91440D01*
G37*
G36*
X-50785Y-91503D02*
X-51120Y-91486D01*
X-51431Y-91434D01*
X-51719Y-91347D01*
X-51982Y-91226D01*
X-52219Y-91073D01*
X-52426Y-90889D01*
X-52603Y-90674D01*
X-52751Y-90429D01*
X-52867Y-90158D01*
X-52950Y-89863D01*
X-53000Y-89546D01*
X-53016Y-89205D01*
X-53007Y-88943D01*
X-52980Y-88697D01*
X-52935Y-88465D01*
X-52872Y-88249D01*
X-52790Y-88048D01*
X-52691Y-87862D01*
X-52573Y-87691D01*
X-52438Y-87536D01*
X-52286Y-87398D01*
X-52119Y-87278D01*
X-51938Y-87176D01*
X-51742Y-87093D01*
X-51532Y-87028D01*
X-51307Y-86982D01*
X-51067Y-86954D01*
X-50813Y-86945D01*
X-50462Y-86961D01*
X-50146Y-87007D01*
X-49865Y-87085D01*
X-49618Y-87193D01*
X-49402Y-87336D01*
X-49212Y-87516D01*
X-49048Y-87734D01*
X-48911Y-87989D01*
X-49483Y-88158D01*
X-49586Y-87983D01*
X-49708Y-87832D01*
X-49847Y-87708D01*
X-50003Y-87608D01*
X-50179Y-87533D01*
X-50375Y-87479D01*
X-50592Y-87446D01*
X-50829Y-87435D01*
X-51015Y-87443D01*
X-51189Y-87464D01*
X-51353Y-87501D01*
X-51505Y-87551D01*
X-51646Y-87617D01*
X-51776Y-87696D01*
X-51894Y-87790D01*
X-52001Y-87899D01*
X-52096Y-88021D01*
X-52178Y-88155D01*
X-52248Y-88300D01*
X-52305Y-88457D01*
X-52349Y-88627D01*
X-52381Y-88808D01*
X-52400Y-89000D01*
X-52406Y-89205D01*
X-52400Y-89409D01*
X-52380Y-89603D01*
X-52346Y-89785D01*
X-52299Y-89956D01*
X-52238Y-90116D01*
X-52164Y-90265D01*
X-52077Y-90403D01*
X-51976Y-90530D01*
X-51863Y-90644D01*
X-51740Y-90743D01*
X-51606Y-90826D01*
X-51463Y-90894D01*
X-51309Y-90947D01*
X-51144Y-90985D01*
X-50970Y-91008D01*
X-50785Y-91016D01*
X-50571Y-91007D01*
X-50365Y-90983D01*
X-50167Y-90941D01*
X-49975Y-90884D01*
X-49796Y-90812D01*
X-49635Y-90728D01*
X-49492Y-90633D01*
X-49367Y-90525D01*
X-49367Y-89727D01*
X-50690Y-89727D01*
X-50690Y-89224D01*
X-48814Y-89224D01*
X-48814Y-90752D01*
X-49000Y-90921D01*
X-49205Y-91070D01*
X-49431Y-91198D01*
X-49677Y-91306D01*
X-49937Y-91392D01*
X-50209Y-91454D01*
X-50491Y-91491D01*
X-50785Y-91503D01*
G37*
G36*
X-38959Y-114300D02*
X-40616Y-114300D01*
X-40616Y-109871D01*
X-39151Y-109871D01*
X-38878Y-109880D01*
X-38620Y-109906D01*
X-38379Y-109950D01*
X-38154Y-110012D01*
X-37945Y-110092D01*
X-37752Y-110188D01*
X-37575Y-110303D01*
X-37414Y-110435D01*
X-37271Y-110584D01*
X-37147Y-110747D01*
X-37042Y-110925D01*
X-36956Y-111119D01*
X-36889Y-111327D01*
X-36841Y-111550D01*
X-36812Y-111787D01*
X-36803Y-112040D01*
X-36820Y-112372D01*
X-36870Y-112682D01*
X-36953Y-112971D01*
X-37070Y-113239D01*
X-37218Y-113481D01*
X-37393Y-113693D01*
X-37596Y-113875D01*
X-37828Y-114027D01*
X-38082Y-114146D01*
X-38356Y-114232D01*
X-38648Y-114283D01*
X-38959Y-114300D01*
G37*
%LPC*%
G36*
X-39028Y-113819D02*
X-38792Y-113806D01*
X-38571Y-113766D01*
X-38364Y-113699D01*
X-38172Y-113605D01*
X-37998Y-113487D01*
X-37845Y-113344D01*
X-37714Y-113179D01*
X-37604Y-112989D01*
X-37518Y-112779D01*
X-37456Y-112551D01*
X-37419Y-112304D01*
X-37406Y-112040D01*
X-37413Y-111840D01*
X-37435Y-111653D01*
X-37470Y-111477D01*
X-37519Y-111314D01*
X-37583Y-111163D01*
X-37660Y-111025D01*
X-37752Y-110898D01*
X-37857Y-110784D01*
X-37977Y-110683D01*
X-38108Y-110595D01*
X-38253Y-110521D01*
X-38409Y-110460D01*
X-38579Y-110413D01*
X-38761Y-110379D01*
X-38956Y-110359D01*
X-39163Y-110352D01*
X-40015Y-110352D01*
X-40015Y-113819D01*
X-39028Y-113819D01*
G37*
%LPD*%
G36*
X-44738Y-114300D02*
X-45272Y-114300D01*
X-45272Y-109871D01*
X-44574Y-109871D01*
X-42179Y-113668D01*
X-42217Y-112776D01*
X-42217Y-109871D01*
X-41676Y-109871D01*
X-41676Y-114300D01*
X-42399Y-114300D01*
X-44769Y-110528D01*
X-44753Y-110833D01*
X-44738Y-111358D01*
X-44738Y-114300D01*
G37*
G36*
X-48245Y-114363D02*
X-48580Y-114346D01*
X-48891Y-114294D01*
X-49179Y-114207D01*
X-49442Y-114086D01*
X-49679Y-113933D01*
X-49886Y-113749D01*
X-50063Y-113534D01*
X-50211Y-113289D01*
X-50327Y-113018D01*
X-50410Y-112723D01*
X-50460Y-112406D01*
X-50476Y-112065D01*
X-50467Y-111803D01*
X-50440Y-111557D01*
X-50395Y-111325D01*
X-50332Y-111109D01*
X-50250Y-110908D01*
X-50151Y-110722D01*
X-50033Y-110551D01*
X-49898Y-110396D01*
X-49746Y-110258D01*
X-49579Y-110138D01*
X-49398Y-110036D01*
X-49202Y-109953D01*
X-48992Y-109888D01*
X-48767Y-109842D01*
X-48527Y-109814D01*
X-48273Y-109805D01*
X-47922Y-109821D01*
X-47606Y-109867D01*
X-47325Y-109945D01*
X-47078Y-110053D01*
X-46862Y-110196D01*
X-46672Y-110376D01*
X-46508Y-110594D01*
X-46371Y-110849D01*
X-46943Y-111018D01*
X-47046Y-110843D01*
X-47168Y-110692D01*
X-47307Y-110568D01*
X-47463Y-110468D01*
X-47639Y-110393D01*
X-47835Y-110339D01*
X-48052Y-110306D01*
X-48289Y-110295D01*
X-48475Y-110303D01*
X-48649Y-110324D01*
X-48813Y-110361D01*
X-48965Y-110411D01*
X-49106Y-110477D01*
X-49236Y-110556D01*
X-49354Y-110650D01*
X-49461Y-110759D01*
X-49556Y-110881D01*
X-49638Y-111015D01*
X-49708Y-111160D01*
X-49765Y-111317D01*
X-49809Y-111487D01*
X-49841Y-111668D01*
X-49860Y-111860D01*
X-49866Y-112065D01*
X-49860Y-112269D01*
X-49840Y-112463D01*
X-49806Y-112645D01*
X-49759Y-112816D01*
X-49698Y-112976D01*
X-49624Y-113125D01*
X-49537Y-113263D01*
X-49436Y-113390D01*
X-49323Y-113504D01*
X-49200Y-113603D01*
X-49066Y-113686D01*
X-48923Y-113754D01*
X-48769Y-113807D01*
X-48604Y-113845D01*
X-48430Y-113868D01*
X-48245Y-113876D01*
X-48031Y-113867D01*
X-47825Y-113843D01*
X-47627Y-113801D01*
X-47435Y-113744D01*
X-47256Y-113672D01*
X-47095Y-113588D01*
X-46952Y-113493D01*
X-46827Y-113385D01*
X-46827Y-112587D01*
X-48150Y-112587D01*
X-48150Y-112084D01*
X-46274Y-112084D01*
X-46274Y-113612D01*
X-46460Y-113781D01*
X-46665Y-113930D01*
X-46891Y-114058D01*
X-47137Y-114166D01*
X-47397Y-114252D01*
X-47669Y-114314D01*
X-47951Y-114351D01*
X-48245Y-114363D01*
G37*
G36*
X-38959Y-142240D02*
X-40616Y-142240D01*
X-40616Y-137811D01*
X-39151Y-137811D01*
X-38878Y-137820D01*
X-38620Y-137846D01*
X-38379Y-137890D01*
X-38154Y-137952D01*
X-37945Y-138032D01*
X-37752Y-138128D01*
X-37575Y-138243D01*
X-37414Y-138375D01*
X-37271Y-138524D01*
X-37147Y-138687D01*
X-37042Y-138865D01*
X-36956Y-139059D01*
X-36889Y-139267D01*
X-36841Y-139490D01*
X-36812Y-139727D01*
X-36803Y-139980D01*
X-36820Y-140312D01*
X-36870Y-140622D01*
X-36953Y-140911D01*
X-37070Y-141179D01*
X-37218Y-141421D01*
X-37393Y-141633D01*
X-37596Y-141815D01*
X-37828Y-141967D01*
X-38082Y-142086D01*
X-38356Y-142172D01*
X-38648Y-142223D01*
X-38959Y-142240D01*
G37*
%LPC*%
G36*
X-39028Y-141759D02*
X-38792Y-141746D01*
X-38571Y-141706D01*
X-38364Y-141639D01*
X-38172Y-141545D01*
X-37998Y-141427D01*
X-37845Y-141284D01*
X-37714Y-141119D01*
X-37604Y-140929D01*
X-37518Y-140719D01*
X-37456Y-140491D01*
X-37419Y-140244D01*
X-37406Y-139980D01*
X-37413Y-139780D01*
X-37435Y-139593D01*
X-37470Y-139417D01*
X-37519Y-139254D01*
X-37583Y-139103D01*
X-37660Y-138965D01*
X-37752Y-138838D01*
X-37857Y-138724D01*
X-37977Y-138623D01*
X-38108Y-138535D01*
X-38253Y-138461D01*
X-38409Y-138400D01*
X-38579Y-138353D01*
X-38761Y-138319D01*
X-38956Y-138299D01*
X-39163Y-138292D01*
X-40015Y-138292D01*
X-40015Y-141759D01*
X-39028Y-141759D01*
G37*
%LPD*%
G36*
X-44738Y-142240D02*
X-45272Y-142240D01*
X-45272Y-137811D01*
X-44574Y-137811D01*
X-42179Y-141608D01*
X-42217Y-140716D01*
X-42217Y-137811D01*
X-41676Y-137811D01*
X-41676Y-142240D01*
X-42399Y-142240D01*
X-44769Y-138468D01*
X-44753Y-138773D01*
X-44738Y-139298D01*
X-44738Y-142240D01*
G37*
G36*
X-48245Y-142303D02*
X-48580Y-142286D01*
X-48891Y-142234D01*
X-49179Y-142147D01*
X-49442Y-142026D01*
X-49679Y-141873D01*
X-49886Y-141689D01*
X-50063Y-141474D01*
X-50211Y-141229D01*
X-50327Y-140958D01*
X-50410Y-140663D01*
X-50460Y-140346D01*
X-50476Y-140005D01*
X-50467Y-139743D01*
X-50440Y-139497D01*
X-50395Y-139265D01*
X-50332Y-139049D01*
X-50250Y-138848D01*
X-50151Y-138662D01*
X-50033Y-138491D01*
X-49898Y-138336D01*
X-49746Y-138198D01*
X-49579Y-138078D01*
X-49398Y-137976D01*
X-49202Y-137893D01*
X-48992Y-137828D01*
X-48767Y-137782D01*
X-48527Y-137754D01*
X-48273Y-137745D01*
X-47922Y-137761D01*
X-47606Y-137807D01*
X-47325Y-137885D01*
X-47078Y-137993D01*
X-46862Y-138136D01*
X-46672Y-138316D01*
X-46508Y-138534D01*
X-46371Y-138789D01*
X-46943Y-138958D01*
X-47046Y-138783D01*
X-47168Y-138632D01*
X-47307Y-138508D01*
X-47463Y-138408D01*
X-47639Y-138333D01*
X-47835Y-138279D01*
X-48052Y-138246D01*
X-48289Y-138235D01*
X-48475Y-138243D01*
X-48649Y-138264D01*
X-48813Y-138301D01*
X-48965Y-138351D01*
X-49106Y-138417D01*
X-49236Y-138496D01*
X-49354Y-138590D01*
X-49461Y-138699D01*
X-49556Y-138821D01*
X-49638Y-138955D01*
X-49708Y-139100D01*
X-49765Y-139257D01*
X-49809Y-139427D01*
X-49841Y-139608D01*
X-49860Y-139800D01*
X-49866Y-140005D01*
X-49860Y-140209D01*
X-49840Y-140403D01*
X-49806Y-140585D01*
X-49759Y-140756D01*
X-49698Y-140916D01*
X-49624Y-141065D01*
X-49537Y-141203D01*
X-49436Y-141330D01*
X-49323Y-141444D01*
X-49200Y-141543D01*
X-49066Y-141626D01*
X-48923Y-141694D01*
X-48769Y-141747D01*
X-48604Y-141785D01*
X-48430Y-141808D01*
X-48245Y-141816D01*
X-48031Y-141807D01*
X-47825Y-141783D01*
X-47627Y-141741D01*
X-47435Y-141684D01*
X-47256Y-141612D01*
X-47095Y-141528D01*
X-46952Y-141433D01*
X-46827Y-141325D01*
X-46827Y-140527D01*
X-48150Y-140527D01*
X-48150Y-140024D01*
X-46274Y-140024D01*
X-46274Y-141552D01*
X-46460Y-141721D01*
X-46665Y-141870D01*
X-46891Y-141998D01*
X-47137Y-142106D01*
X-47397Y-142192D01*
X-47669Y-142254D01*
X-47951Y-142291D01*
X-48245Y-142303D01*
G37*
G36*
X52481Y-139700D02*
X50824Y-139700D01*
X50824Y-135271D01*
X52289Y-135271D01*
X52562Y-135280D01*
X52820Y-135306D01*
X53061Y-135350D01*
X53286Y-135412D01*
X53495Y-135492D01*
X53688Y-135588D01*
X53865Y-135703D01*
X54026Y-135835D01*
X54169Y-135984D01*
X54293Y-136147D01*
X54398Y-136325D01*
X54484Y-136519D01*
X54551Y-136727D01*
X54599Y-136950D01*
X54628Y-137187D01*
X54637Y-137440D01*
X54620Y-137772D01*
X54570Y-138082D01*
X54487Y-138371D01*
X54370Y-138639D01*
X54222Y-138881D01*
X54047Y-139093D01*
X53844Y-139275D01*
X53612Y-139427D01*
X53358Y-139546D01*
X53084Y-139632D01*
X52792Y-139683D01*
X52481Y-139700D01*
G37*
%LPC*%
G36*
X52412Y-139219D02*
X52648Y-139206D01*
X52869Y-139166D01*
X53076Y-139099D01*
X53268Y-139005D01*
X53442Y-138887D01*
X53595Y-138744D01*
X53726Y-138579D01*
X53836Y-138389D01*
X53922Y-138179D01*
X53984Y-137951D01*
X54021Y-137704D01*
X54034Y-137440D01*
X54027Y-137240D01*
X54005Y-137053D01*
X53970Y-136877D01*
X53921Y-136714D01*
X53857Y-136563D01*
X53780Y-136425D01*
X53688Y-136298D01*
X53583Y-136184D01*
X53464Y-136083D01*
X53332Y-135995D01*
X53187Y-135921D01*
X53031Y-135860D01*
X52861Y-135813D01*
X52679Y-135779D01*
X52484Y-135759D01*
X52277Y-135752D01*
X51425Y-135752D01*
X51425Y-139219D01*
X52412Y-139219D01*
G37*
%LPD*%
G36*
X46702Y-139700D02*
X46168Y-139700D01*
X46168Y-135271D01*
X46866Y-135271D01*
X49261Y-139068D01*
X49223Y-138176D01*
X49223Y-135271D01*
X49764Y-135271D01*
X49764Y-139700D01*
X49041Y-139700D01*
X46671Y-135928D01*
X46687Y-136233D01*
X46702Y-136758D01*
X46702Y-139700D01*
G37*
G36*
X43196Y-139763D02*
X42860Y-139746D01*
X42549Y-139694D01*
X42261Y-139607D01*
X41998Y-139486D01*
X41761Y-139333D01*
X41554Y-139149D01*
X41377Y-138934D01*
X41229Y-138689D01*
X41113Y-138418D01*
X41030Y-138123D01*
X40980Y-137806D01*
X40964Y-137465D01*
X40973Y-137203D01*
X41000Y-136957D01*
X41045Y-136725D01*
X41108Y-136509D01*
X41190Y-136308D01*
X41289Y-136122D01*
X41407Y-135951D01*
X41542Y-135796D01*
X41694Y-135658D01*
X41861Y-135538D01*
X42042Y-135436D01*
X42238Y-135353D01*
X42448Y-135288D01*
X42673Y-135242D01*
X42913Y-135214D01*
X43167Y-135205D01*
X43518Y-135221D01*
X43834Y-135267D01*
X44115Y-135345D01*
X44362Y-135453D01*
X44578Y-135596D01*
X44768Y-135776D01*
X44932Y-135994D01*
X45069Y-136249D01*
X44497Y-136418D01*
X44394Y-136243D01*
X44272Y-136092D01*
X44133Y-135968D01*
X43977Y-135868D01*
X43801Y-135793D01*
X43605Y-135739D01*
X43388Y-135706D01*
X43152Y-135695D01*
X42965Y-135703D01*
X42791Y-135724D01*
X42627Y-135761D01*
X42475Y-135811D01*
X42334Y-135877D01*
X42204Y-135956D01*
X42086Y-136050D01*
X41979Y-136159D01*
X41884Y-136281D01*
X41802Y-136415D01*
X41732Y-136560D01*
X41675Y-136717D01*
X41631Y-136887D01*
X41599Y-137068D01*
X41580Y-137260D01*
X41574Y-137465D01*
X41580Y-137669D01*
X41600Y-137863D01*
X41634Y-138045D01*
X41681Y-138216D01*
X41742Y-138376D01*
X41816Y-138525D01*
X41903Y-138663D01*
X42004Y-138790D01*
X42117Y-138904D01*
X42240Y-139003D01*
X42374Y-139086D01*
X42517Y-139154D01*
X42671Y-139207D01*
X42836Y-139245D01*
X43010Y-139268D01*
X43196Y-139276D01*
X43409Y-139267D01*
X43615Y-139243D01*
X43813Y-139201D01*
X44005Y-139144D01*
X44184Y-139072D01*
X44345Y-138988D01*
X44488Y-138893D01*
X44613Y-138785D01*
X44613Y-137987D01*
X43290Y-137987D01*
X43290Y-137484D01*
X45166Y-137484D01*
X45166Y-139012D01*
X44980Y-139181D01*
X44775Y-139330D01*
X44549Y-139458D01*
X44304Y-139566D01*
X44043Y-139652D01*
X43771Y-139714D01*
X43489Y-139751D01*
X43196Y-139763D01*
G37*
G36*
X52481Y-114300D02*
X50824Y-114300D01*
X50824Y-109871D01*
X52289Y-109871D01*
X52562Y-109880D01*
X52820Y-109906D01*
X53061Y-109950D01*
X53286Y-110012D01*
X53495Y-110092D01*
X53688Y-110188D01*
X53865Y-110303D01*
X54026Y-110435D01*
X54169Y-110584D01*
X54293Y-110747D01*
X54398Y-110925D01*
X54484Y-111119D01*
X54551Y-111327D01*
X54599Y-111550D01*
X54628Y-111787D01*
X54637Y-112040D01*
X54620Y-112372D01*
X54570Y-112682D01*
X54487Y-112971D01*
X54370Y-113239D01*
X54222Y-113481D01*
X54047Y-113693D01*
X53844Y-113875D01*
X53612Y-114027D01*
X53358Y-114146D01*
X53084Y-114232D01*
X52792Y-114283D01*
X52481Y-114300D01*
G37*
%LPC*%
G36*
X52412Y-113819D02*
X52648Y-113806D01*
X52869Y-113766D01*
X53076Y-113699D01*
X53268Y-113605D01*
X53442Y-113487D01*
X53595Y-113344D01*
X53726Y-113179D01*
X53836Y-112989D01*
X53922Y-112779D01*
X53984Y-112551D01*
X54021Y-112304D01*
X54034Y-112040D01*
X54027Y-111840D01*
X54005Y-111653D01*
X53970Y-111477D01*
X53921Y-111314D01*
X53857Y-111163D01*
X53780Y-111025D01*
X53688Y-110898D01*
X53583Y-110784D01*
X53464Y-110683D01*
X53332Y-110595D01*
X53187Y-110521D01*
X53031Y-110460D01*
X52861Y-110413D01*
X52679Y-110379D01*
X52484Y-110359D01*
X52277Y-110352D01*
X51425Y-110352D01*
X51425Y-113819D01*
X52412Y-113819D01*
G37*
%LPD*%
G36*
X46702Y-114300D02*
X46168Y-114300D01*
X46168Y-109871D01*
X46866Y-109871D01*
X49261Y-113668D01*
X49223Y-112776D01*
X49223Y-109871D01*
X49764Y-109871D01*
X49764Y-114300D01*
X49041Y-114300D01*
X46671Y-110528D01*
X46687Y-110833D01*
X46702Y-111358D01*
X46702Y-114300D01*
G37*
G36*
X43196Y-114363D02*
X42860Y-114346D01*
X42549Y-114294D01*
X42261Y-114207D01*
X41998Y-114086D01*
X41761Y-113933D01*
X41554Y-113749D01*
X41377Y-113534D01*
X41229Y-113289D01*
X41113Y-113018D01*
X41030Y-112723D01*
X40980Y-112406D01*
X40964Y-112065D01*
X40973Y-111803D01*
X41000Y-111557D01*
X41045Y-111325D01*
X41108Y-111109D01*
X41190Y-110908D01*
X41289Y-110722D01*
X41407Y-110551D01*
X41542Y-110396D01*
X41694Y-110258D01*
X41861Y-110138D01*
X42042Y-110036D01*
X42238Y-109953D01*
X42448Y-109888D01*
X42673Y-109842D01*
X42913Y-109814D01*
X43167Y-109805D01*
X43518Y-109821D01*
X43834Y-109867D01*
X44115Y-109945D01*
X44362Y-110053D01*
X44578Y-110196D01*
X44768Y-110376D01*
X44932Y-110594D01*
X45069Y-110849D01*
X44497Y-111018D01*
X44394Y-110843D01*
X44272Y-110692D01*
X44133Y-110568D01*
X43977Y-110468D01*
X43801Y-110393D01*
X43605Y-110339D01*
X43388Y-110306D01*
X43152Y-110295D01*
X42965Y-110303D01*
X42791Y-110324D01*
X42627Y-110361D01*
X42475Y-110411D01*
X42334Y-110477D01*
X42204Y-110556D01*
X42086Y-110650D01*
X41979Y-110759D01*
X41884Y-110881D01*
X41802Y-111015D01*
X41732Y-111160D01*
X41675Y-111317D01*
X41631Y-111487D01*
X41599Y-111668D01*
X41580Y-111860D01*
X41574Y-112065D01*
X41580Y-112269D01*
X41600Y-112463D01*
X41634Y-112645D01*
X41681Y-112816D01*
X41742Y-112976D01*
X41816Y-113125D01*
X41903Y-113263D01*
X42004Y-113390D01*
X42117Y-113504D01*
X42240Y-113603D01*
X42374Y-113686D01*
X42517Y-113754D01*
X42671Y-113807D01*
X42836Y-113845D01*
X43010Y-113868D01*
X43196Y-113876D01*
X43409Y-113867D01*
X43615Y-113843D01*
X43813Y-113801D01*
X44005Y-113744D01*
X44184Y-113672D01*
X44345Y-113588D01*
X44488Y-113493D01*
X44613Y-113385D01*
X44613Y-112587D01*
X43290Y-112587D01*
X43290Y-112084D01*
X45166Y-112084D01*
X45166Y-113612D01*
X44980Y-113781D01*
X44775Y-113930D01*
X44549Y-114058D01*
X44304Y-114166D01*
X44043Y-114252D01*
X43771Y-114314D01*
X43489Y-114351D01*
X43196Y-114363D01*
G37*
G36*
X52481Y-88900D02*
X50824Y-88900D01*
X50824Y-84471D01*
X52289Y-84471D01*
X52562Y-84480D01*
X52820Y-84506D01*
X53061Y-84550D01*
X53286Y-84612D01*
X53495Y-84692D01*
X53688Y-84788D01*
X53865Y-84903D01*
X54026Y-85035D01*
X54169Y-85184D01*
X54293Y-85347D01*
X54398Y-85525D01*
X54484Y-85719D01*
X54551Y-85927D01*
X54599Y-86150D01*
X54628Y-86387D01*
X54637Y-86640D01*
X54620Y-86972D01*
X54570Y-87282D01*
X54487Y-87571D01*
X54370Y-87839D01*
X54222Y-88081D01*
X54047Y-88293D01*
X53844Y-88475D01*
X53612Y-88627D01*
X53358Y-88746D01*
X53084Y-88832D01*
X52792Y-88883D01*
X52481Y-88900D01*
G37*
%LPC*%
G36*
X52412Y-88419D02*
X52648Y-88406D01*
X52869Y-88366D01*
X53076Y-88299D01*
X53268Y-88205D01*
X53442Y-88087D01*
X53595Y-87944D01*
X53726Y-87779D01*
X53836Y-87589D01*
X53922Y-87379D01*
X53984Y-87151D01*
X54021Y-86904D01*
X54034Y-86640D01*
X54027Y-86440D01*
X54005Y-86253D01*
X53970Y-86077D01*
X53921Y-85914D01*
X53857Y-85763D01*
X53780Y-85625D01*
X53688Y-85498D01*
X53583Y-85384D01*
X53464Y-85283D01*
X53332Y-85195D01*
X53187Y-85121D01*
X53031Y-85060D01*
X52861Y-85013D01*
X52679Y-84979D01*
X52484Y-84959D01*
X52277Y-84952D01*
X51425Y-84952D01*
X51425Y-88419D01*
X52412Y-88419D01*
G37*
%LPD*%
G36*
X46702Y-88900D02*
X46168Y-88900D01*
X46168Y-84471D01*
X46866Y-84471D01*
X49261Y-88268D01*
X49223Y-87376D01*
X49223Y-84471D01*
X49764Y-84471D01*
X49764Y-88900D01*
X49041Y-88900D01*
X46671Y-85128D01*
X46687Y-85433D01*
X46702Y-85958D01*
X46702Y-88900D01*
G37*
G36*
X43196Y-88963D02*
X42860Y-88946D01*
X42549Y-88894D01*
X42261Y-88807D01*
X41998Y-88686D01*
X41761Y-88533D01*
X41554Y-88349D01*
X41377Y-88134D01*
X41229Y-87889D01*
X41113Y-87618D01*
X41030Y-87323D01*
X40980Y-87006D01*
X40964Y-86665D01*
X40973Y-86403D01*
X41000Y-86157D01*
X41045Y-85925D01*
X41108Y-85709D01*
X41190Y-85508D01*
X41289Y-85322D01*
X41407Y-85151D01*
X41542Y-84996D01*
X41694Y-84858D01*
X41861Y-84738D01*
X42042Y-84636D01*
X42238Y-84553D01*
X42448Y-84488D01*
X42673Y-84442D01*
X42913Y-84414D01*
X43167Y-84405D01*
X43518Y-84421D01*
X43834Y-84467D01*
X44115Y-84545D01*
X44362Y-84653D01*
X44578Y-84796D01*
X44768Y-84976D01*
X44932Y-85194D01*
X45069Y-85449D01*
X44497Y-85618D01*
X44394Y-85443D01*
X44272Y-85292D01*
X44133Y-85168D01*
X43977Y-85068D01*
X43801Y-84993D01*
X43605Y-84939D01*
X43388Y-84906D01*
X43152Y-84895D01*
X42965Y-84903D01*
X42791Y-84924D01*
X42627Y-84961D01*
X42475Y-85011D01*
X42334Y-85077D01*
X42204Y-85156D01*
X42086Y-85250D01*
X41979Y-85359D01*
X41884Y-85481D01*
X41802Y-85615D01*
X41732Y-85760D01*
X41675Y-85917D01*
X41631Y-86087D01*
X41599Y-86268D01*
X41580Y-86460D01*
X41574Y-86665D01*
X41580Y-86869D01*
X41600Y-87063D01*
X41634Y-87245D01*
X41681Y-87416D01*
X41742Y-87576D01*
X41816Y-87725D01*
X41903Y-87863D01*
X42004Y-87990D01*
X42117Y-88104D01*
X42240Y-88203D01*
X42374Y-88286D01*
X42517Y-88354D01*
X42671Y-88407D01*
X42836Y-88445D01*
X43010Y-88468D01*
X43196Y-88476D01*
X43409Y-88467D01*
X43615Y-88443D01*
X43813Y-88401D01*
X44005Y-88344D01*
X44184Y-88272D01*
X44345Y-88188D01*
X44488Y-88093D01*
X44613Y-87985D01*
X44613Y-87187D01*
X43290Y-87187D01*
X43290Y-86684D01*
X45166Y-86684D01*
X45166Y-88212D01*
X44980Y-88381D01*
X44775Y-88530D01*
X44549Y-88658D01*
X44304Y-88766D01*
X44043Y-88852D01*
X43771Y-88914D01*
X43489Y-88951D01*
X43196Y-88963D01*
G37*
G36*
X-44039Y-38100D02*
X-45696Y-38100D01*
X-45696Y-33671D01*
X-44231Y-33671D01*
X-43958Y-33680D01*
X-43700Y-33706D01*
X-43459Y-33750D01*
X-43234Y-33812D01*
X-43025Y-33892D01*
X-42832Y-33988D01*
X-42655Y-34103D01*
X-42494Y-34235D01*
X-42351Y-34384D01*
X-42227Y-34547D01*
X-42122Y-34725D01*
X-42036Y-34919D01*
X-41969Y-35127D01*
X-41921Y-35350D01*
X-41892Y-35587D01*
X-41883Y-35840D01*
X-41900Y-36172D01*
X-41950Y-36482D01*
X-42033Y-36771D01*
X-42150Y-37039D01*
X-42298Y-37281D01*
X-42473Y-37493D01*
X-42676Y-37675D01*
X-42908Y-37827D01*
X-43162Y-37946D01*
X-43436Y-38032D01*
X-43728Y-38083D01*
X-44039Y-38100D01*
G37*
%LPC*%
G36*
X-44108Y-37619D02*
X-43872Y-37606D01*
X-43651Y-37566D01*
X-43444Y-37499D01*
X-43252Y-37405D01*
X-43078Y-37287D01*
X-42925Y-37144D01*
X-42794Y-36979D01*
X-42684Y-36789D01*
X-42598Y-36579D01*
X-42536Y-36351D01*
X-42499Y-36104D01*
X-42486Y-35840D01*
X-42493Y-35640D01*
X-42515Y-35453D01*
X-42550Y-35277D01*
X-42599Y-35114D01*
X-42663Y-34963D01*
X-42740Y-34825D01*
X-42832Y-34698D01*
X-42937Y-34584D01*
X-43057Y-34483D01*
X-43188Y-34395D01*
X-43333Y-34321D01*
X-43489Y-34260D01*
X-43659Y-34213D01*
X-43841Y-34179D01*
X-44036Y-34159D01*
X-44243Y-34152D01*
X-45095Y-34152D01*
X-45095Y-37619D01*
X-44108Y-37619D01*
G37*
%LPD*%
G36*
X-49818Y-38100D02*
X-50352Y-38100D01*
X-50352Y-33671D01*
X-49654Y-33671D01*
X-47259Y-37468D01*
X-47297Y-36576D01*
X-47297Y-33671D01*
X-46756Y-33671D01*
X-46756Y-38100D01*
X-47479Y-38100D01*
X-49849Y-34328D01*
X-49833Y-34633D01*
X-49818Y-35158D01*
X-49818Y-38100D01*
G37*
G36*
X-53325Y-38163D02*
X-53660Y-38146D01*
X-53971Y-38094D01*
X-54259Y-38007D01*
X-54522Y-37886D01*
X-54759Y-37733D01*
X-54966Y-37549D01*
X-55143Y-37334D01*
X-55291Y-37089D01*
X-55407Y-36818D01*
X-55490Y-36523D01*
X-55540Y-36206D01*
X-55556Y-35865D01*
X-55547Y-35603D01*
X-55520Y-35357D01*
X-55475Y-35125D01*
X-55412Y-34909D01*
X-55330Y-34708D01*
X-55231Y-34522D01*
X-55113Y-34351D01*
X-54978Y-34196D01*
X-54826Y-34058D01*
X-54659Y-33938D01*
X-54478Y-33836D01*
X-54282Y-33753D01*
X-54072Y-33688D01*
X-53847Y-33642D01*
X-53607Y-33614D01*
X-53353Y-33605D01*
X-53002Y-33621D01*
X-52686Y-33667D01*
X-52405Y-33745D01*
X-52158Y-33853D01*
X-51942Y-33996D01*
X-51752Y-34176D01*
X-51588Y-34394D01*
X-51451Y-34649D01*
X-52023Y-34818D01*
X-52126Y-34643D01*
X-52248Y-34492D01*
X-52387Y-34368D01*
X-52543Y-34268D01*
X-52719Y-34193D01*
X-52915Y-34139D01*
X-53132Y-34106D01*
X-53369Y-34095D01*
X-53555Y-34103D01*
X-53729Y-34124D01*
X-53893Y-34161D01*
X-54045Y-34211D01*
X-54186Y-34277D01*
X-54316Y-34356D01*
X-54434Y-34450D01*
X-54541Y-34559D01*
X-54636Y-34681D01*
X-54718Y-34815D01*
X-54788Y-34960D01*
X-54845Y-35117D01*
X-54889Y-35287D01*
X-54921Y-35468D01*
X-54940Y-35660D01*
X-54946Y-35865D01*
X-54940Y-36069D01*
X-54920Y-36263D01*
X-54886Y-36445D01*
X-54839Y-36616D01*
X-54778Y-36776D01*
X-54704Y-36925D01*
X-54617Y-37063D01*
X-54516Y-37190D01*
X-54403Y-37304D01*
X-54280Y-37403D01*
X-54146Y-37486D01*
X-54003Y-37554D01*
X-53849Y-37607D01*
X-53684Y-37645D01*
X-53510Y-37668D01*
X-53325Y-37676D01*
X-53111Y-37667D01*
X-52905Y-37643D01*
X-52707Y-37601D01*
X-52515Y-37544D01*
X-52336Y-37472D01*
X-52175Y-37388D01*
X-52032Y-37293D01*
X-51907Y-37185D01*
X-51907Y-36387D01*
X-53230Y-36387D01*
X-53230Y-35884D01*
X-51354Y-35884D01*
X-51354Y-37412D01*
X-51540Y-37581D01*
X-51745Y-37730D01*
X-51971Y-37858D01*
X-52217Y-37966D01*
X-52477Y-38052D01*
X-52749Y-38114D01*
X-53031Y-38151D01*
X-53325Y-38163D01*
G37*
G36*
X-33879Y175260D02*
X-35536Y175260D01*
X-35536Y179689D01*
X-34071Y179689D01*
X-33798Y179680D01*
X-33540Y179654D01*
X-33299Y179610D01*
X-33074Y179548D01*
X-32865Y179469D01*
X-32672Y179372D01*
X-32495Y179257D01*
X-32334Y179125D01*
X-32191Y178976D01*
X-32067Y178813D01*
X-31962Y178635D01*
X-31876Y178441D01*
X-31809Y178233D01*
X-31761Y178010D01*
X-31732Y177773D01*
X-31723Y177520D01*
X-31740Y177188D01*
X-31790Y176878D01*
X-31873Y176589D01*
X-31990Y176321D01*
X-32138Y176079D01*
X-32313Y175867D01*
X-32516Y175685D01*
X-32748Y175533D01*
X-33002Y175414D01*
X-33276Y175328D01*
X-33568Y175277D01*
X-33879Y175260D01*
G37*
%LPC*%
G36*
X-33948Y175741D02*
X-33712Y175754D01*
X-33491Y175794D01*
X-33284Y175861D01*
X-33092Y175955D01*
X-32918Y176073D01*
X-32765Y176216D01*
X-32634Y176381D01*
X-32524Y176571D01*
X-32438Y176781D01*
X-32376Y177009D01*
X-32339Y177256D01*
X-32326Y177520D01*
X-32333Y177720D01*
X-32355Y177907D01*
X-32390Y178083D01*
X-32439Y178246D01*
X-32503Y178397D01*
X-32580Y178535D01*
X-32672Y178662D01*
X-32777Y178776D01*
X-32897Y178877D01*
X-33028Y178965D01*
X-33173Y179039D01*
X-33329Y179100D01*
X-33499Y179147D01*
X-33681Y179181D01*
X-33876Y179201D01*
X-34083Y179208D01*
X-34935Y179208D01*
X-34935Y175741D01*
X-33948Y175741D01*
G37*
%LPD*%
G36*
X-39658Y175260D02*
X-40192Y175260D01*
X-40192Y179689D01*
X-39494Y179689D01*
X-37099Y175892D01*
X-37137Y176785D01*
X-37137Y179689D01*
X-36596Y179689D01*
X-36596Y175260D01*
X-37319Y175260D01*
X-39689Y179032D01*
X-39673Y178727D01*
X-39658Y178202D01*
X-39658Y175260D01*
G37*
G36*
X-43165Y175197D02*
X-43500Y175214D01*
X-43811Y175266D01*
X-44099Y175353D01*
X-44362Y175474D01*
X-44599Y175627D01*
X-44806Y175811D01*
X-44983Y176026D01*
X-45131Y176271D01*
X-45247Y176542D01*
X-45330Y176837D01*
X-45380Y177154D01*
X-45396Y177495D01*
X-45387Y177757D01*
X-45360Y178004D01*
X-45315Y178235D01*
X-45252Y178451D01*
X-45170Y178652D01*
X-45071Y178838D01*
X-44953Y179009D01*
X-44818Y179164D01*
X-44666Y179302D01*
X-44499Y179423D01*
X-44318Y179524D01*
X-44122Y179607D01*
X-43912Y179672D01*
X-43687Y179718D01*
X-43447Y179746D01*
X-43193Y179755D01*
X-42842Y179739D01*
X-42526Y179693D01*
X-42245Y179615D01*
X-41998Y179507D01*
X-41782Y179364D01*
X-41592Y179184D01*
X-41428Y178966D01*
X-41291Y178711D01*
X-41863Y178542D01*
X-41966Y178717D01*
X-42088Y178868D01*
X-42227Y178992D01*
X-42383Y179092D01*
X-42559Y179167D01*
X-42755Y179221D01*
X-42972Y179254D01*
X-43209Y179265D01*
X-43395Y179257D01*
X-43569Y179236D01*
X-43733Y179199D01*
X-43885Y179149D01*
X-44026Y179083D01*
X-44156Y179004D01*
X-44274Y178910D01*
X-44381Y178801D01*
X-44476Y178679D01*
X-44558Y178545D01*
X-44628Y178400D01*
X-44685Y178243D01*
X-44729Y178073D01*
X-44761Y177892D01*
X-44780Y177700D01*
X-44786Y177495D01*
X-44780Y177291D01*
X-44760Y177097D01*
X-44726Y176915D01*
X-44679Y176744D01*
X-44618Y176584D01*
X-44544Y176435D01*
X-44457Y176297D01*
X-44356Y176170D01*
X-44243Y176056D01*
X-44120Y175958D01*
X-43986Y175874D01*
X-43843Y175806D01*
X-43689Y175753D01*
X-43524Y175715D01*
X-43350Y175692D01*
X-43165Y175684D01*
X-42951Y175693D01*
X-42745Y175717D01*
X-42547Y175759D01*
X-42355Y175816D01*
X-42176Y175888D01*
X-42015Y175972D01*
X-41872Y176067D01*
X-41747Y176175D01*
X-41747Y176973D01*
X-43070Y176973D01*
X-43070Y177476D01*
X-41194Y177476D01*
X-41194Y175948D01*
X-41380Y175779D01*
X-41585Y175631D01*
X-41811Y175502D01*
X-42057Y175394D01*
X-42317Y175308D01*
X-42589Y175246D01*
X-42871Y175209D01*
X-43165Y175197D01*
G37*
G36*
X20462Y-190500D02*
X18789Y-190500D01*
X18789Y-178159D01*
X23983Y-178159D01*
X24487Y-178174D01*
X24962Y-178220D01*
X25408Y-178296D01*
X25824Y-178402D01*
X26211Y-178539D01*
X26569Y-178706D01*
X26898Y-178904D01*
X27197Y-179131D01*
X27464Y-179387D01*
X27695Y-179667D01*
X27891Y-179973D01*
X28051Y-180303D01*
X28176Y-180658D01*
X28265Y-181038D01*
X28318Y-181443D01*
X28336Y-181873D01*
X28318Y-182300D01*
X28264Y-182704D01*
X28175Y-183086D01*
X28050Y-183445D01*
X27889Y-183782D01*
X27693Y-184096D01*
X27461Y-184388D01*
X27193Y-184658D01*
X26894Y-184900D01*
X26570Y-185110D01*
X26220Y-185288D01*
X25845Y-185433D01*
X25444Y-185546D01*
X25018Y-185627D01*
X24566Y-185675D01*
X24088Y-185692D01*
X20462Y-185692D01*
X20462Y-190500D01*
G37*
%LPC*%
G36*
X23851Y-184369D02*
X24191Y-184359D01*
X24508Y-184330D01*
X24804Y-184282D01*
X25078Y-184214D01*
X25329Y-184127D01*
X25559Y-184020D01*
X25767Y-183895D01*
X25953Y-183749D01*
X26118Y-183585D01*
X26260Y-183401D01*
X26380Y-183197D01*
X26479Y-182975D01*
X26556Y-182733D01*
X26610Y-182471D01*
X26643Y-182191D01*
X26654Y-181890D01*
X26643Y-181601D01*
X26609Y-181330D01*
X26553Y-181078D01*
X26475Y-180844D01*
X26374Y-180629D01*
X26250Y-180433D01*
X26104Y-180256D01*
X25936Y-180097D01*
X25745Y-179957D01*
X25532Y-179836D01*
X25296Y-179733D01*
X25038Y-179649D01*
X24758Y-179583D01*
X24455Y-179537D01*
X24129Y-179509D01*
X23781Y-179499D01*
X20462Y-179499D01*
X20462Y-184369D01*
X23851Y-184369D01*
G37*
%LPD*%
G36*
X7118Y-190500D02*
X5384Y-190500D01*
X10420Y-178159D01*
X12321Y-178159D01*
X17278Y-190500D01*
X15570Y-190500D01*
X14160Y-186892D01*
X8537Y-186892D01*
X7118Y-190500D01*
G37*
%LPC*%
G36*
X13661Y-185586D02*
X12075Y-181514D01*
X11830Y-180870D01*
X11585Y-180147D01*
X11348Y-179420D01*
X11270Y-179666D01*
X10998Y-180496D01*
X10621Y-181531D01*
X9045Y-185586D01*
X13661Y-185586D01*
G37*
%LPD*%
G36*
X-692Y-190675D02*
X-1151Y-190663D01*
X-1593Y-190627D01*
X-2020Y-190566D01*
X-2432Y-190481D01*
X-2827Y-190372D01*
X-3207Y-190239D01*
X-3571Y-190082D01*
X-3920Y-189900D01*
X-4250Y-189696D01*
X-4560Y-189471D01*
X-4850Y-189225D01*
X-5119Y-188959D01*
X-5369Y-188671D01*
X-5598Y-188363D01*
X-5807Y-188034D01*
X-5995Y-187684D01*
X-6163Y-187316D01*
X-6308Y-186931D01*
X-6430Y-186529D01*
X-6531Y-186111D01*
X-6609Y-185676D01*
X-6665Y-185225D01*
X-6698Y-184757D01*
X-6709Y-184273D01*
X-6703Y-183909D01*
X-6684Y-183555D01*
X-6653Y-183211D01*
X-6610Y-182877D01*
X-6553Y-182553D01*
X-6485Y-182239D01*
X-6404Y-181935D01*
X-6311Y-181641D01*
X-6205Y-181357D01*
X-6086Y-181083D01*
X-5812Y-180565D01*
X-5489Y-180086D01*
X-5115Y-179648D01*
X-4697Y-179256D01*
X-4241Y-178916D01*
X-3999Y-178766D01*
X-3747Y-178629D01*
X-3486Y-178505D01*
X-3214Y-178394D01*
X-2934Y-178296D01*
X-2644Y-178211D01*
X-2344Y-178139D01*
X-2034Y-178080D01*
X-1715Y-178034D01*
X-1387Y-178001D01*
X-1049Y-177982D01*
X-701Y-177975D01*
X-218Y-177987D01*
X244Y-178023D01*
X686Y-178084D01*
X1108Y-178168D01*
X1509Y-178276D01*
X1891Y-178409D01*
X2252Y-178565D01*
X2592Y-178746D01*
X2912Y-178950D01*
X3210Y-179178D01*
X3486Y-179429D01*
X3740Y-179703D01*
X3972Y-180000D01*
X4182Y-180321D01*
X4370Y-180665D01*
X4537Y-181032D01*
X2952Y-181558D01*
X2836Y-181296D01*
X2704Y-181051D01*
X2556Y-180821D01*
X2392Y-180607D01*
X2212Y-180409D01*
X2015Y-180227D01*
X1802Y-180061D01*
X1572Y-179911D01*
X1329Y-179778D01*
X1075Y-179662D01*
X809Y-179564D01*
X533Y-179484D01*
X246Y-179422D01*
X-53Y-179377D01*
X-363Y-179351D01*
X-683Y-179342D01*
X-1181Y-179362D01*
X-1651Y-179424D01*
X-2092Y-179527D01*
X-2505Y-179671D01*
X-2889Y-179857D01*
X-3245Y-180083D01*
X-3572Y-180351D01*
X-3871Y-180660D01*
X-4138Y-181005D01*
X-4370Y-181380D01*
X-4565Y-181786D01*
X-4725Y-182222D01*
X-4850Y-182689D01*
X-4939Y-183186D01*
X-4992Y-183714D01*
X-5010Y-184273D01*
X-4991Y-184826D01*
X-4936Y-185351D01*
X-4843Y-185849D01*
X-4713Y-186319D01*
X-4546Y-186761D01*
X-4342Y-187175D01*
X-4101Y-187562D01*
X-3823Y-187921D01*
X-3513Y-188244D01*
X-3178Y-188524D01*
X-2815Y-188761D01*
X-2427Y-188955D01*
X-2013Y-189106D01*
X-1573Y-189214D01*
X-1106Y-189279D01*
X-613Y-189300D01*
X-294Y-189290D01*
X15Y-189260D01*
X314Y-189210D01*
X603Y-189140D01*
X881Y-189049D01*
X1150Y-188939D01*
X1409Y-188809D01*
X1657Y-188659D01*
X1896Y-188488D01*
X2125Y-188298D01*
X2343Y-188087D01*
X2551Y-187857D01*
X2750Y-187606D01*
X2938Y-187335D01*
X3116Y-187045D01*
X3284Y-186734D01*
X4651Y-187417D01*
X4451Y-187804D01*
X4231Y-188166D01*
X3992Y-188505D01*
X3734Y-188821D01*
X3457Y-189112D01*
X3160Y-189379D01*
X2844Y-189623D01*
X2509Y-189843D01*
X2157Y-190038D01*
X1792Y-190207D01*
X1412Y-190350D01*
X1019Y-190467D01*
X612Y-190558D01*
X191Y-190623D01*
X-243Y-190662D01*
X-692Y-190675D01*
G37*
G36*
X38386Y-190500D02*
X30653Y-190500D01*
X30653Y-189160D01*
X33797Y-189160D01*
X33797Y-179666D01*
X31012Y-181654D01*
X31012Y-180165D01*
X33928Y-178159D01*
X35382Y-178159D01*
X35382Y-189160D01*
X38386Y-189160D01*
X38386Y-190500D01*
G37*
G36*
X12842Y180340D02*
X11169Y180340D01*
X11169Y192681D01*
X16363Y192681D01*
X16867Y192666D01*
X17342Y192620D01*
X17788Y192544D01*
X18204Y192438D01*
X18591Y192301D01*
X18949Y192134D01*
X19278Y191936D01*
X19577Y191709D01*
X19844Y191453D01*
X20075Y191173D01*
X20271Y190867D01*
X20431Y190537D01*
X20556Y190182D01*
X20645Y189802D01*
X20698Y189397D01*
X20716Y188967D01*
X20698Y188540D01*
X20644Y188136D01*
X20555Y187754D01*
X20430Y187395D01*
X20269Y187058D01*
X20073Y186744D01*
X19841Y186452D01*
X19573Y186182D01*
X19274Y185940D01*
X18950Y185730D01*
X18600Y185552D01*
X18225Y185407D01*
X17824Y185294D01*
X17398Y185213D01*
X16946Y185165D01*
X16468Y185148D01*
X12842Y185148D01*
X12842Y180340D01*
G37*
%LPC*%
G36*
X16231Y186471D02*
X16571Y186481D01*
X16888Y186510D01*
X17184Y186558D01*
X17458Y186626D01*
X17709Y186713D01*
X17939Y186820D01*
X18147Y186945D01*
X18333Y187091D01*
X18498Y187255D01*
X18640Y187439D01*
X18760Y187643D01*
X18859Y187865D01*
X18936Y188107D01*
X18990Y188369D01*
X19023Y188649D01*
X19034Y188950D01*
X19023Y189239D01*
X18989Y189510D01*
X18933Y189762D01*
X18855Y189996D01*
X18754Y190211D01*
X18630Y190407D01*
X18484Y190584D01*
X18316Y190743D01*
X18125Y190883D01*
X17912Y191004D01*
X17676Y191107D01*
X17418Y191191D01*
X17138Y191257D01*
X16835Y191303D01*
X16509Y191331D01*
X16161Y191341D01*
X12842Y191341D01*
X12842Y186471D01*
X16231Y186471D01*
G37*
%LPD*%
G36*
X-502Y180340D02*
X-2236Y180340D01*
X2800Y192681D01*
X4701Y192681D01*
X9658Y180340D01*
X7950Y180340D01*
X6540Y183949D01*
X917Y183949D01*
X-502Y180340D01*
G37*
%LPC*%
G36*
X6041Y185254D02*
X4455Y189326D01*
X4210Y189970D01*
X3965Y190693D01*
X3728Y191420D01*
X3650Y191174D01*
X3378Y190344D01*
X3001Y189309D01*
X1425Y185254D01*
X6041Y185254D01*
G37*
%LPD*%
G36*
X-8312Y180165D02*
X-8771Y180177D01*
X-9213Y180213D01*
X-9640Y180274D01*
X-10052Y180359D01*
X-10447Y180468D01*
X-10827Y180601D01*
X-11191Y180758D01*
X-11540Y180940D01*
X-11870Y181144D01*
X-12180Y181369D01*
X-12470Y181615D01*
X-12739Y181882D01*
X-12989Y182169D01*
X-13218Y182477D01*
X-13427Y182806D01*
X-13615Y183156D01*
X-13783Y183524D01*
X-13928Y183909D01*
X-14050Y184311D01*
X-14151Y184729D01*
X-14229Y185164D01*
X-14285Y185615D01*
X-14318Y186083D01*
X-14329Y186567D01*
X-14323Y186931D01*
X-14304Y187285D01*
X-14273Y187629D01*
X-14230Y187963D01*
X-14173Y188287D01*
X-14105Y188601D01*
X-14024Y188905D01*
X-13931Y189199D01*
X-13825Y189483D01*
X-13706Y189757D01*
X-13432Y190275D01*
X-13109Y190754D01*
X-12735Y191192D01*
X-12317Y191584D01*
X-11861Y191924D01*
X-11619Y192074D01*
X-11367Y192211D01*
X-11106Y192335D01*
X-10834Y192446D01*
X-10554Y192545D01*
X-10264Y192629D01*
X-9964Y192701D01*
X-9654Y192760D01*
X-9335Y192806D01*
X-9007Y192839D01*
X-8669Y192858D01*
X-8321Y192865D01*
X-7838Y192853D01*
X-7376Y192817D01*
X-6934Y192756D01*
X-6512Y192672D01*
X-6111Y192564D01*
X-5729Y192431D01*
X-5368Y192275D01*
X-5028Y192094D01*
X-4708Y191890D01*
X-4410Y191662D01*
X-4134Y191411D01*
X-3880Y191137D01*
X-3648Y190840D01*
X-3438Y190519D01*
X-3250Y190175D01*
X-3083Y189808D01*
X-4668Y189282D01*
X-4784Y189544D01*
X-4916Y189789D01*
X-5064Y190019D01*
X-5228Y190233D01*
X-5408Y190431D01*
X-5605Y190613D01*
X-5819Y190779D01*
X-6048Y190929D01*
X-6291Y191063D01*
X-6545Y191178D01*
X-6811Y191276D01*
X-7087Y191356D01*
X-7374Y191418D01*
X-7673Y191463D01*
X-7983Y191489D01*
X-8303Y191498D01*
X-8801Y191478D01*
X-9271Y191416D01*
X-9712Y191313D01*
X-10125Y191169D01*
X-10509Y190983D01*
X-10865Y190757D01*
X-11192Y190489D01*
X-11491Y190180D01*
X-11758Y189835D01*
X-11990Y189460D01*
X-12185Y189054D01*
X-12345Y188618D01*
X-12470Y188151D01*
X-12559Y187654D01*
X-12612Y187126D01*
X-12630Y186567D01*
X-12611Y186014D01*
X-12556Y185489D01*
X-12463Y184991D01*
X-12333Y184521D01*
X-12166Y184079D01*
X-11962Y183665D01*
X-11721Y183278D01*
X-11443Y182919D01*
X-11133Y182596D01*
X-10798Y182316D01*
X-10435Y182079D01*
X-10047Y181885D01*
X-9633Y181734D01*
X-9193Y181626D01*
X-8726Y181561D01*
X-8233Y181540D01*
X-7914Y181550D01*
X-7605Y181580D01*
X-7306Y181630D01*
X-7017Y181700D01*
X-6739Y181791D01*
X-6470Y181901D01*
X-6211Y182031D01*
X-5963Y182181D01*
X-5724Y182352D01*
X-5495Y182542D01*
X-5277Y182753D01*
X-5069Y182983D01*
X-4870Y183234D01*
X-4682Y183505D01*
X-4504Y183795D01*
X-4336Y184106D01*
X-2969Y183423D01*
X-3169Y183036D01*
X-3389Y182674D01*
X-3628Y182335D01*
X-3886Y182019D01*
X-4163Y181728D01*
X-4460Y181461D01*
X-4776Y181217D01*
X-5111Y180997D01*
X-5463Y180802D01*
X-5828Y180633D01*
X-6208Y180490D01*
X-6601Y180373D01*
X-7008Y180282D01*
X-7429Y180217D01*
X-7863Y180178D01*
X-8312Y180165D01*
G37*
G36*
X30740Y180340D02*
X22568Y180340D01*
X22568Y181452D01*
X22804Y181950D01*
X23064Y182417D01*
X23349Y182854D01*
X23659Y183261D01*
X23985Y183644D01*
X24319Y184008D01*
X24661Y184353D01*
X25012Y184680D01*
X25718Y185292D01*
X26418Y185858D01*
X27080Y186401D01*
X27675Y186944D01*
X27941Y187219D01*
X28182Y187500D01*
X28395Y187788D01*
X28581Y188083D01*
X28732Y188390D01*
X28841Y188718D01*
X28905Y189065D01*
X28927Y189431D01*
X28918Y189678D01*
X28890Y189911D01*
X28843Y190129D01*
X28778Y190333D01*
X28694Y190523D01*
X28592Y190699D01*
X28471Y190861D01*
X28332Y191008D01*
X28175Y191139D01*
X28005Y191253D01*
X27820Y191349D01*
X27620Y191428D01*
X27406Y191490D01*
X27177Y191533D01*
X26934Y191560D01*
X26676Y191568D01*
X26430Y191560D01*
X26195Y191534D01*
X25971Y191491D01*
X25758Y191432D01*
X25556Y191355D01*
X25365Y191261D01*
X25185Y191149D01*
X25016Y191021D01*
X24862Y190877D01*
X24724Y190720D01*
X24603Y190548D01*
X24499Y190363D01*
X24411Y190164D01*
X24341Y189951D01*
X24287Y189724D01*
X24250Y189484D01*
X22638Y189633D01*
X22696Y189993D01*
X22783Y190335D01*
X22897Y190658D01*
X23040Y190962D01*
X23212Y191247D01*
X23411Y191513D01*
X23639Y191760D01*
X23895Y191989D01*
X24175Y192194D01*
X24475Y192372D01*
X24793Y192523D01*
X25131Y192646D01*
X25489Y192742D01*
X25865Y192810D01*
X26261Y192851D01*
X26676Y192865D01*
X27129Y192851D01*
X27555Y192810D01*
X27954Y192741D01*
X28326Y192645D01*
X28671Y192521D01*
X28989Y192370D01*
X29280Y192191D01*
X29545Y191984D01*
X29780Y191753D01*
X29983Y191498D01*
X30156Y191220D01*
X30297Y190919D01*
X30406Y190595D01*
X30485Y190248D01*
X30532Y189877D01*
X30547Y189484D01*
X30527Y189125D01*
X30465Y188768D01*
X30363Y188412D01*
X30219Y188056D01*
X30035Y187702D01*
X29811Y187347D01*
X29546Y186992D01*
X29242Y186637D01*
X28844Y186234D01*
X28299Y185733D01*
X27605Y185135D01*
X26764Y184439D01*
X26286Y184037D01*
X25859Y183656D01*
X25484Y183295D01*
X25161Y182954D01*
X24884Y182627D01*
X24649Y182305D01*
X24455Y181990D01*
X24303Y181680D01*
X30740Y181680D01*
X30740Y180340D01*
G37*
G36*
X180920Y-68630D02*
X180597Y-68618D01*
X180288Y-68583D01*
X179994Y-68524D01*
X179715Y-68442D01*
X179450Y-68337D01*
X179200Y-68208D01*
X178965Y-68056D01*
X178744Y-67881D01*
X178535Y-67678D01*
X178336Y-67444D01*
X178147Y-67178D01*
X177968Y-66881D01*
X177798Y-66553D01*
X177638Y-66193D01*
X177488Y-65802D01*
X177347Y-65380D01*
X176921Y-65347D01*
X176510Y-65292D01*
X176113Y-65215D01*
X175732Y-65116D01*
X175366Y-64995D01*
X175014Y-64852D01*
X174678Y-64687D01*
X174356Y-64500D01*
X174051Y-64292D01*
X173765Y-64065D01*
X173497Y-63818D01*
X173248Y-63552D01*
X173017Y-63266D01*
X172806Y-62961D01*
X172612Y-62637D01*
X172438Y-62293D01*
X172283Y-61932D01*
X172148Y-61557D01*
X172035Y-61168D01*
X171942Y-60766D01*
X171869Y-60348D01*
X171818Y-59917D01*
X171787Y-59472D01*
X171776Y-59013D01*
X171783Y-58648D01*
X171802Y-58293D01*
X171833Y-57948D01*
X171878Y-57613D01*
X171935Y-57289D01*
X172004Y-56974D01*
X172087Y-56670D01*
X172182Y-56375D01*
X172289Y-56091D01*
X172409Y-55817D01*
X172542Y-55553D01*
X172688Y-55299D01*
X173017Y-54821D01*
X173397Y-54384D01*
X173822Y-53993D01*
X174049Y-53817D01*
X174286Y-53654D01*
X174534Y-53504D01*
X174791Y-53367D01*
X175058Y-53243D01*
X175335Y-53132D01*
X175621Y-53035D01*
X175918Y-52950D01*
X176225Y-52878D01*
X176542Y-52820D01*
X176868Y-52774D01*
X177205Y-52741D01*
X177551Y-52722D01*
X177907Y-52715D01*
X178370Y-52727D01*
X178818Y-52762D01*
X179250Y-52821D01*
X179666Y-52903D01*
X180066Y-53008D01*
X180451Y-53137D01*
X180821Y-53289D01*
X181174Y-53464D01*
X181510Y-53662D01*
X181826Y-53881D01*
X182121Y-54121D01*
X182395Y-54383D01*
X182649Y-54665D01*
X182883Y-54969D01*
X183097Y-55294D01*
X183290Y-55641D01*
X183461Y-56006D01*
X183610Y-56387D01*
X183735Y-56784D01*
X183838Y-57197D01*
X183918Y-57627D01*
X183975Y-58073D01*
X184009Y-58535D01*
X184021Y-59013D01*
X184000Y-59651D01*
X183939Y-60260D01*
X183836Y-60840D01*
X183692Y-61391D01*
X183508Y-61913D01*
X183282Y-62406D01*
X183015Y-62869D01*
X182707Y-63304D01*
X182363Y-63703D01*
X181986Y-64059D01*
X181578Y-64372D01*
X181137Y-64642D01*
X180665Y-64869D01*
X180160Y-65053D01*
X179623Y-65194D01*
X179055Y-65293D01*
X179248Y-65806D01*
X179470Y-66243D01*
X179591Y-66433D01*
X179719Y-66603D01*
X179854Y-66754D01*
X179996Y-66887D01*
X180147Y-67002D01*
X180307Y-67101D01*
X180477Y-67185D01*
X180657Y-67254D01*
X180846Y-67308D01*
X181045Y-67346D01*
X181254Y-67369D01*
X181472Y-67377D01*
X181716Y-67370D01*
X181965Y-67349D01*
X182479Y-67263D01*
X182479Y-68437D01*
X182077Y-68521D01*
X181682Y-68581D01*
X181297Y-68618D01*
X180920Y-68630D01*
G37*
%LPC*%
G36*
X177890Y-64058D02*
X178409Y-64037D01*
X178896Y-63975D01*
X179353Y-63872D01*
X179778Y-63728D01*
X180173Y-63543D01*
X180536Y-63316D01*
X180869Y-63048D01*
X181170Y-62739D01*
X181438Y-62393D01*
X181670Y-62012D01*
X181867Y-61598D01*
X182027Y-61149D01*
X182152Y-60666D01*
X182242Y-60149D01*
X182295Y-59598D01*
X182313Y-59013D01*
X182295Y-58452D01*
X182241Y-57923D01*
X182151Y-57424D01*
X182025Y-56957D01*
X181863Y-56520D01*
X181665Y-56114D01*
X181431Y-55739D01*
X181161Y-55395D01*
X180858Y-55088D01*
X180526Y-54821D01*
X180164Y-54595D01*
X179772Y-54410D01*
X179350Y-54266D01*
X178899Y-54164D01*
X178418Y-54102D01*
X177907Y-54082D01*
X177393Y-54102D01*
X176908Y-54163D01*
X176453Y-54264D01*
X176029Y-54406D01*
X175634Y-54588D01*
X175270Y-54811D01*
X174936Y-55074D01*
X174632Y-55378D01*
X174361Y-55718D01*
X174126Y-56091D01*
X173927Y-56497D01*
X173765Y-56935D01*
X173638Y-57405D01*
X173548Y-57909D01*
X173494Y-58444D01*
X173476Y-59013D01*
X173494Y-59578D01*
X173549Y-60113D01*
X173640Y-60619D01*
X173768Y-61094D01*
X173932Y-61539D01*
X174133Y-61955D01*
X174371Y-62340D01*
X174645Y-62696D01*
X174951Y-63015D01*
X175286Y-63292D01*
X175649Y-63526D01*
X176041Y-63717D01*
X176461Y-63866D01*
X176909Y-63973D01*
X177385Y-64036D01*
X177890Y-64058D01*
G37*
%LPD*%
G36*
X193965Y-65240D02*
X186231Y-65240D01*
X186231Y-63900D01*
X189375Y-63900D01*
X189375Y-54406D01*
X186590Y-56394D01*
X186590Y-54905D01*
X189506Y-52899D01*
X190960Y-52899D01*
X190960Y-63900D01*
X193965Y-63900D01*
X193965Y-65240D01*
G37*
G36*
X-189920Y-61010D02*
X-190243Y-60998D01*
X-190552Y-60963D01*
X-190846Y-60904D01*
X-191125Y-60822D01*
X-191390Y-60717D01*
X-191640Y-60588D01*
X-191875Y-60436D01*
X-192096Y-60261D01*
X-192305Y-60058D01*
X-192504Y-59824D01*
X-192693Y-59558D01*
X-192872Y-59261D01*
X-193042Y-58933D01*
X-193202Y-58573D01*
X-193353Y-58182D01*
X-193493Y-57760D01*
X-193919Y-57727D01*
X-194330Y-57672D01*
X-194727Y-57595D01*
X-195108Y-57496D01*
X-195474Y-57375D01*
X-195826Y-57232D01*
X-196163Y-57067D01*
X-196484Y-56880D01*
X-196789Y-56672D01*
X-197075Y-56445D01*
X-197343Y-56198D01*
X-197592Y-55932D01*
X-197823Y-55646D01*
X-198034Y-55341D01*
X-198228Y-55017D01*
X-198402Y-54673D01*
X-198557Y-54312D01*
X-198692Y-53937D01*
X-198805Y-53548D01*
X-198898Y-53146D01*
X-198971Y-52728D01*
X-199022Y-52297D01*
X-199053Y-51852D01*
X-199064Y-51393D01*
X-199057Y-51028D01*
X-199038Y-50673D01*
X-199007Y-50328D01*
X-198962Y-49993D01*
X-198905Y-49669D01*
X-198836Y-49354D01*
X-198753Y-49050D01*
X-198658Y-48755D01*
X-198551Y-48471D01*
X-198431Y-48197D01*
X-198298Y-47933D01*
X-198152Y-47679D01*
X-197823Y-47201D01*
X-197443Y-46764D01*
X-197018Y-46373D01*
X-196791Y-46197D01*
X-196554Y-46034D01*
X-196307Y-45884D01*
X-196049Y-45747D01*
X-195782Y-45623D01*
X-195505Y-45512D01*
X-195219Y-45415D01*
X-194922Y-45330D01*
X-194615Y-45258D01*
X-194298Y-45200D01*
X-193972Y-45154D01*
X-193635Y-45121D01*
X-193289Y-45102D01*
X-192933Y-45095D01*
X-192470Y-45107D01*
X-192022Y-45142D01*
X-191590Y-45201D01*
X-191174Y-45283D01*
X-190774Y-45388D01*
X-190389Y-45517D01*
X-190019Y-45669D01*
X-189666Y-45844D01*
X-189330Y-46042D01*
X-189015Y-46261D01*
X-188720Y-46501D01*
X-188445Y-46763D01*
X-188191Y-47045D01*
X-187957Y-47349D01*
X-187744Y-47674D01*
X-187550Y-48021D01*
X-187379Y-48386D01*
X-187231Y-48767D01*
X-187105Y-49164D01*
X-187002Y-49577D01*
X-186922Y-50007D01*
X-186865Y-50453D01*
X-186831Y-50915D01*
X-186819Y-51393D01*
X-186840Y-52031D01*
X-186901Y-52640D01*
X-187004Y-53220D01*
X-187148Y-53771D01*
X-187332Y-54293D01*
X-187558Y-54786D01*
X-187825Y-55249D01*
X-188133Y-55684D01*
X-188477Y-56083D01*
X-188854Y-56439D01*
X-189262Y-56752D01*
X-189703Y-57022D01*
X-190175Y-57249D01*
X-190680Y-57433D01*
X-191217Y-57574D01*
X-191785Y-57673D01*
X-191592Y-58186D01*
X-191370Y-58623D01*
X-191249Y-58813D01*
X-191121Y-58983D01*
X-190986Y-59134D01*
X-190844Y-59267D01*
X-190693Y-59382D01*
X-190533Y-59481D01*
X-190363Y-59565D01*
X-190184Y-59634D01*
X-189994Y-59688D01*
X-189795Y-59726D01*
X-189586Y-59749D01*
X-189368Y-59757D01*
X-189124Y-59750D01*
X-188875Y-59729D01*
X-188361Y-59643D01*
X-188361Y-60817D01*
X-188764Y-60901D01*
X-189158Y-60961D01*
X-189543Y-60998D01*
X-189920Y-61010D01*
G37*
%LPC*%
G36*
X-192950Y-56438D02*
X-192431Y-56417D01*
X-191944Y-56355D01*
X-191487Y-56252D01*
X-191062Y-56108D01*
X-190667Y-55923D01*
X-190304Y-55696D01*
X-189971Y-55428D01*
X-189670Y-55119D01*
X-189402Y-54773D01*
X-189170Y-54392D01*
X-188974Y-53978D01*
X-188813Y-53529D01*
X-188688Y-53046D01*
X-188598Y-52529D01*
X-188545Y-51978D01*
X-188527Y-51393D01*
X-188545Y-50832D01*
X-188599Y-50303D01*
X-188689Y-49804D01*
X-188815Y-49337D01*
X-188977Y-48900D01*
X-189175Y-48494D01*
X-189409Y-48119D01*
X-189679Y-47775D01*
X-189982Y-47468D01*
X-190314Y-47201D01*
X-190676Y-46975D01*
X-191068Y-46790D01*
X-191490Y-46646D01*
X-191941Y-46544D01*
X-192422Y-46482D01*
X-192933Y-46462D01*
X-193447Y-46482D01*
X-193932Y-46543D01*
X-194387Y-46644D01*
X-194811Y-46786D01*
X-195206Y-46968D01*
X-195570Y-47191D01*
X-195904Y-47454D01*
X-196208Y-47758D01*
X-196479Y-48098D01*
X-196714Y-48471D01*
X-196913Y-48877D01*
X-197075Y-49315D01*
X-197202Y-49785D01*
X-197292Y-50289D01*
X-197346Y-50824D01*
X-197364Y-51393D01*
X-197346Y-51958D01*
X-197291Y-52493D01*
X-197200Y-52999D01*
X-197072Y-53474D01*
X-196908Y-53919D01*
X-196707Y-54335D01*
X-196469Y-54720D01*
X-196195Y-55076D01*
X-195889Y-55395D01*
X-195554Y-55672D01*
X-195191Y-55906D01*
X-194799Y-56097D01*
X-194379Y-56246D01*
X-193931Y-56353D01*
X-193455Y-56416D01*
X-192950Y-56438D01*
G37*
%LPD*%
G36*
X-176902Y-57620D02*
X-185074Y-57620D01*
X-185074Y-56508D01*
X-184838Y-56010D01*
X-184578Y-55543D01*
X-184293Y-55106D01*
X-183983Y-54699D01*
X-183657Y-54316D01*
X-183323Y-53952D01*
X-182981Y-53607D01*
X-182630Y-53280D01*
X-181924Y-52668D01*
X-181224Y-52102D01*
X-180562Y-51559D01*
X-179967Y-51016D01*
X-179700Y-50741D01*
X-179460Y-50460D01*
X-179247Y-50172D01*
X-179061Y-49877D01*
X-178909Y-49570D01*
X-178801Y-49242D01*
X-178736Y-48895D01*
X-178715Y-48529D01*
X-178724Y-48282D01*
X-178752Y-48049D01*
X-178799Y-47831D01*
X-178864Y-47627D01*
X-178947Y-47437D01*
X-179050Y-47261D01*
X-179171Y-47099D01*
X-179310Y-46952D01*
X-179467Y-46821D01*
X-179637Y-46707D01*
X-179822Y-46611D01*
X-180022Y-46532D01*
X-180236Y-46470D01*
X-180465Y-46427D01*
X-180708Y-46400D01*
X-180966Y-46392D01*
X-181212Y-46400D01*
X-181447Y-46426D01*
X-181671Y-46469D01*
X-181884Y-46528D01*
X-182086Y-46605D01*
X-182277Y-46699D01*
X-182457Y-46811D01*
X-182626Y-46939D01*
X-182780Y-47083D01*
X-182918Y-47240D01*
X-183039Y-47412D01*
X-183143Y-47597D01*
X-183231Y-47796D01*
X-183301Y-48009D01*
X-183355Y-48236D01*
X-183392Y-48476D01*
X-185003Y-48327D01*
X-184946Y-47967D01*
X-184859Y-47625D01*
X-184745Y-47302D01*
X-184602Y-46998D01*
X-184430Y-46713D01*
X-184231Y-46447D01*
X-184003Y-46200D01*
X-183747Y-45971D01*
X-183467Y-45766D01*
X-183167Y-45588D01*
X-182849Y-45437D01*
X-182511Y-45314D01*
X-182153Y-45218D01*
X-181777Y-45150D01*
X-181381Y-45109D01*
X-180966Y-45095D01*
X-180513Y-45109D01*
X-180087Y-45150D01*
X-179688Y-45219D01*
X-179316Y-45315D01*
X-178971Y-45439D01*
X-178653Y-45590D01*
X-178362Y-45769D01*
X-178097Y-45976D01*
X-177862Y-46207D01*
X-177659Y-46462D01*
X-177486Y-46740D01*
X-177345Y-47041D01*
X-177236Y-47365D01*
X-177157Y-47712D01*
X-177110Y-48083D01*
X-177094Y-48476D01*
X-177115Y-48835D01*
X-177177Y-49192D01*
X-177279Y-49548D01*
X-177423Y-49904D01*
X-177607Y-50258D01*
X-177831Y-50613D01*
X-178095Y-50968D01*
X-178400Y-51323D01*
X-178797Y-51726D01*
X-179343Y-52227D01*
X-180037Y-52825D01*
X-180878Y-53521D01*
X-181356Y-53923D01*
X-181783Y-54304D01*
X-182157Y-54665D01*
X-182481Y-55006D01*
X-182758Y-55333D01*
X-182993Y-55655D01*
X-183187Y-55970D01*
X-183339Y-56280D01*
X-176902Y-56280D01*
X-176902Y-57620D01*
G37*
G36*
X180920Y118314D02*
X180597Y118326D01*
X180288Y118361D01*
X179994Y118420D01*
X179715Y118502D01*
X179450Y118607D01*
X179200Y118736D01*
X178965Y118888D01*
X178744Y119063D01*
X178535Y119266D01*
X178336Y119500D01*
X178147Y119766D01*
X177968Y120063D01*
X177798Y120391D01*
X177638Y120751D01*
X177488Y121142D01*
X177347Y121564D01*
X176921Y121597D01*
X176510Y121652D01*
X176113Y121729D01*
X175732Y121828D01*
X175366Y121949D01*
X175014Y122092D01*
X174678Y122257D01*
X174356Y122444D01*
X174051Y122652D01*
X173765Y122879D01*
X173497Y123126D01*
X173248Y123392D01*
X173017Y123678D01*
X172806Y123983D01*
X172612Y124307D01*
X172438Y124651D01*
X172283Y125012D01*
X172148Y125387D01*
X172035Y125776D01*
X171942Y126179D01*
X171869Y126596D01*
X171818Y127027D01*
X171787Y127472D01*
X171776Y127931D01*
X171783Y128296D01*
X171802Y128651D01*
X171833Y128996D01*
X171878Y129331D01*
X171935Y129655D01*
X172004Y129970D01*
X172087Y130274D01*
X172182Y130569D01*
X172289Y130853D01*
X172409Y131127D01*
X172542Y131391D01*
X172688Y131645D01*
X173017Y132123D01*
X173397Y132560D01*
X173822Y132951D01*
X174049Y133127D01*
X174286Y133290D01*
X174534Y133440D01*
X174791Y133577D01*
X175058Y133701D01*
X175335Y133812D01*
X175621Y133909D01*
X175918Y133994D01*
X176225Y134066D01*
X176542Y134124D01*
X176868Y134170D01*
X177205Y134203D01*
X177551Y134222D01*
X177907Y134229D01*
X178370Y134217D01*
X178818Y134182D01*
X179250Y134123D01*
X179666Y134042D01*
X180066Y133936D01*
X180451Y133807D01*
X180821Y133655D01*
X181174Y133480D01*
X181510Y133282D01*
X181826Y133063D01*
X182121Y132823D01*
X182395Y132561D01*
X182649Y132279D01*
X182883Y131975D01*
X183097Y131650D01*
X183290Y131303D01*
X183461Y130938D01*
X183610Y130557D01*
X183735Y130160D01*
X183838Y129747D01*
X183918Y129317D01*
X183975Y128871D01*
X184009Y128409D01*
X184021Y127931D01*
X184000Y127293D01*
X183939Y126684D01*
X183836Y126104D01*
X183692Y125553D01*
X183508Y125031D01*
X183282Y124538D01*
X183015Y124075D01*
X182707Y123640D01*
X182363Y123241D01*
X181986Y122885D01*
X181578Y122572D01*
X181137Y122302D01*
X180665Y122075D01*
X180160Y121891D01*
X179623Y121750D01*
X179055Y121651D01*
X179248Y121138D01*
X179470Y120701D01*
X179591Y120512D01*
X179719Y120341D01*
X179854Y120190D01*
X179996Y120057D01*
X180147Y119942D01*
X180307Y119843D01*
X180477Y119759D01*
X180657Y119690D01*
X180846Y119636D01*
X181045Y119598D01*
X181254Y119575D01*
X181472Y119567D01*
X181716Y119574D01*
X181965Y119595D01*
X182479Y119681D01*
X182479Y118507D01*
X182077Y118423D01*
X181682Y118363D01*
X181297Y118327D01*
X180920Y118314D01*
G37*
%LPC*%
G36*
X177890Y122886D02*
X178409Y122907D01*
X178896Y122969D01*
X179353Y123072D01*
X179778Y123216D01*
X180173Y123401D01*
X180536Y123628D01*
X180869Y123896D01*
X181170Y124205D01*
X181438Y124551D01*
X181670Y124932D01*
X181867Y125347D01*
X182027Y125795D01*
X182152Y126278D01*
X182242Y126795D01*
X182295Y127346D01*
X182313Y127931D01*
X182295Y128492D01*
X182241Y129021D01*
X182151Y129520D01*
X182025Y129987D01*
X181863Y130424D01*
X181665Y130830D01*
X181431Y131205D01*
X181161Y131549D01*
X180858Y131857D01*
X180526Y132123D01*
X180164Y132349D01*
X179772Y132534D01*
X179350Y132678D01*
X178899Y132780D01*
X178418Y132842D01*
X177907Y132862D01*
X177393Y132842D01*
X176908Y132781D01*
X176453Y132680D01*
X176029Y132538D01*
X175634Y132356D01*
X175270Y132133D01*
X174936Y131870D01*
X174632Y131566D01*
X174361Y131226D01*
X174126Y130853D01*
X173927Y130447D01*
X173765Y130009D01*
X173638Y129539D01*
X173548Y129035D01*
X173494Y128500D01*
X173476Y127931D01*
X173494Y127366D01*
X173549Y126831D01*
X173640Y126325D01*
X173768Y125850D01*
X173932Y125405D01*
X174133Y124989D01*
X174371Y124604D01*
X174645Y124248D01*
X174951Y123929D01*
X175286Y123653D01*
X175649Y123418D01*
X176041Y123227D01*
X176461Y123078D01*
X176909Y122972D01*
X177385Y122908D01*
X177890Y122886D01*
G37*
%LPD*%
G36*
X189866Y121529D02*
X189409Y121542D01*
X188976Y121582D01*
X188566Y121648D01*
X188181Y121740D01*
X187819Y121859D01*
X187480Y122004D01*
X187165Y122176D01*
X186874Y122374D01*
X186609Y122598D01*
X186373Y122847D01*
X186164Y123122D01*
X185984Y123422D01*
X185833Y123747D01*
X185709Y124098D01*
X185614Y124473D01*
X185548Y124875D01*
X187177Y125023D01*
X187224Y124758D01*
X187288Y124510D01*
X187367Y124279D01*
X187463Y124066D01*
X187575Y123869D01*
X187703Y123689D01*
X187846Y123527D01*
X188007Y123381D01*
X188183Y123253D01*
X188375Y123142D01*
X188583Y123048D01*
X188807Y122971D01*
X189048Y122911D01*
X189304Y122868D01*
X189577Y122842D01*
X189866Y122834D01*
X190155Y122843D01*
X190429Y122871D01*
X190687Y122916D01*
X190929Y122981D01*
X191154Y123063D01*
X191364Y123164D01*
X191558Y123283D01*
X191735Y123421D01*
X191895Y123576D01*
X192032Y123750D01*
X192149Y123941D01*
X192245Y124150D01*
X192319Y124377D01*
X192372Y124621D01*
X192404Y124883D01*
X192414Y125164D01*
X192402Y125409D01*
X192366Y125640D01*
X192305Y125857D01*
X192220Y126060D01*
X192111Y126250D01*
X191978Y126426D01*
X191821Y126588D01*
X191639Y126736D01*
X191435Y126868D01*
X191209Y126983D01*
X190961Y127080D01*
X190692Y127159D01*
X190402Y127221D01*
X190090Y127265D01*
X189756Y127292D01*
X189401Y127301D01*
X188508Y127301D01*
X188508Y128667D01*
X189366Y128667D01*
X189681Y128676D01*
X189978Y128702D01*
X190257Y128746D01*
X190517Y128808D01*
X190759Y128888D01*
X190983Y128985D01*
X191189Y129100D01*
X191376Y129232D01*
X191544Y129380D01*
X191689Y129542D01*
X191811Y129717D01*
X191912Y129905D01*
X191990Y130107D01*
X192046Y130323D01*
X192079Y130553D01*
X192090Y130795D01*
X192081Y131036D01*
X192054Y131264D01*
X192008Y131479D01*
X191945Y131681D01*
X191863Y131870D01*
X191763Y132046D01*
X191644Y132209D01*
X191508Y132359D01*
X191353Y132493D01*
X191181Y132610D01*
X190991Y132708D01*
X190784Y132789D01*
X190559Y132852D01*
X190316Y132897D01*
X190056Y132923D01*
X189778Y132932D01*
X189524Y132924D01*
X189282Y132899D01*
X189052Y132857D01*
X188835Y132799D01*
X188631Y132724D01*
X188439Y132632D01*
X188259Y132523D01*
X188092Y132398D01*
X187939Y132258D01*
X187804Y132104D01*
X187685Y131936D01*
X187583Y131754D01*
X187498Y131559D01*
X187429Y131350D01*
X187378Y131128D01*
X187343Y130892D01*
X185758Y131014D01*
X185816Y131383D01*
X185902Y131730D01*
X186017Y132057D01*
X186160Y132363D01*
X186331Y132648D01*
X186530Y132913D01*
X186758Y133156D01*
X187015Y133379D01*
X187295Y133578D01*
X187594Y133751D01*
X187913Y133897D01*
X188251Y134016D01*
X188608Y134109D01*
X188984Y134176D01*
X189380Y134215D01*
X189795Y134229D01*
X190247Y134215D01*
X190672Y134175D01*
X191072Y134107D01*
X191445Y134013D01*
X191793Y133892D01*
X192115Y133743D01*
X192411Y133568D01*
X192681Y133366D01*
X192923Y133140D01*
X193132Y132892D01*
X193309Y132624D01*
X193453Y132334D01*
X193566Y132022D01*
X193646Y131690D01*
X193694Y131337D01*
X193711Y130962D01*
X193700Y130673D01*
X193669Y130398D01*
X193618Y130137D01*
X193545Y129890D01*
X193452Y129657D01*
X193339Y129437D01*
X193204Y129231D01*
X193049Y129039D01*
X192875Y128862D01*
X192681Y128699D01*
X192469Y128551D01*
X192238Y128419D01*
X191988Y128301D01*
X191720Y128198D01*
X191433Y128110D01*
X191127Y128036D01*
X191127Y128001D01*
X191463Y127954D01*
X191780Y127888D01*
X192078Y127801D01*
X192357Y127695D01*
X192617Y127569D01*
X192858Y127423D01*
X193079Y127258D01*
X193281Y127073D01*
X193462Y126872D01*
X193619Y126658D01*
X193751Y126432D01*
X193859Y126193D01*
X193944Y125941D01*
X194004Y125677D01*
X194040Y125400D01*
X194052Y125111D01*
X194035Y124696D01*
X193984Y124305D01*
X193899Y123939D01*
X193781Y123596D01*
X193628Y123277D01*
X193441Y122983D01*
X193221Y122712D01*
X192966Y122466D01*
X192680Y122246D01*
X192365Y122056D01*
X192021Y121895D01*
X191648Y121763D01*
X191246Y121661D01*
X190815Y121587D01*
X190355Y121544D01*
X189866Y121529D01*
G37*
G36*
X-175950Y106630D02*
X-176273Y106642D01*
X-176582Y106677D01*
X-176876Y106736D01*
X-177155Y106818D01*
X-177420Y106923D01*
X-177670Y107052D01*
X-177905Y107204D01*
X-178126Y107379D01*
X-178335Y107582D01*
X-178534Y107816D01*
X-178723Y108082D01*
X-178902Y108379D01*
X-179072Y108707D01*
X-179232Y109067D01*
X-179383Y109458D01*
X-179523Y109880D01*
X-179949Y109913D01*
X-180360Y109968D01*
X-180757Y110045D01*
X-181138Y110144D01*
X-181504Y110265D01*
X-181856Y110408D01*
X-182193Y110573D01*
X-182514Y110760D01*
X-182819Y110968D01*
X-183105Y111195D01*
X-183373Y111442D01*
X-183622Y111708D01*
X-183853Y111994D01*
X-184064Y112299D01*
X-184258Y112623D01*
X-184432Y112967D01*
X-184587Y113328D01*
X-184722Y113703D01*
X-184835Y114092D01*
X-184928Y114495D01*
X-185001Y114912D01*
X-185052Y115343D01*
X-185083Y115788D01*
X-185094Y116247D01*
X-185087Y116612D01*
X-185068Y116967D01*
X-185037Y117312D01*
X-184992Y117647D01*
X-184935Y117971D01*
X-184866Y118286D01*
X-184783Y118590D01*
X-184688Y118885D01*
X-184581Y119169D01*
X-184461Y119443D01*
X-184328Y119707D01*
X-184182Y119961D01*
X-183853Y120439D01*
X-183473Y120876D01*
X-183048Y121267D01*
X-182821Y121443D01*
X-182584Y121606D01*
X-182337Y121756D01*
X-182079Y121893D01*
X-181812Y122017D01*
X-181535Y122128D01*
X-181249Y122225D01*
X-180952Y122310D01*
X-180645Y122382D01*
X-180328Y122440D01*
X-180002Y122486D01*
X-179665Y122519D01*
X-179319Y122538D01*
X-178963Y122545D01*
X-178500Y122533D01*
X-178052Y122498D01*
X-177620Y122439D01*
X-177204Y122358D01*
X-176804Y122252D01*
X-176419Y122123D01*
X-176049Y121971D01*
X-175696Y121796D01*
X-175360Y121598D01*
X-175045Y121379D01*
X-174750Y121139D01*
X-174475Y120877D01*
X-174221Y120595D01*
X-173987Y120291D01*
X-173774Y119966D01*
X-173580Y119619D01*
X-173409Y119254D01*
X-173261Y118873D01*
X-173135Y118476D01*
X-173032Y118063D01*
X-172952Y117633D01*
X-172895Y117187D01*
X-172861Y116725D01*
X-172849Y116247D01*
X-172870Y115609D01*
X-172931Y115000D01*
X-173034Y114420D01*
X-173178Y113869D01*
X-173362Y113347D01*
X-173588Y112854D01*
X-173855Y112391D01*
X-174163Y111956D01*
X-174507Y111557D01*
X-174884Y111201D01*
X-175292Y110888D01*
X-175733Y110618D01*
X-176205Y110391D01*
X-176710Y110207D01*
X-177247Y110066D01*
X-177815Y109967D01*
X-177622Y109454D01*
X-177400Y109017D01*
X-177279Y108828D01*
X-177151Y108657D01*
X-177016Y108506D01*
X-176874Y108373D01*
X-176723Y108258D01*
X-176563Y108159D01*
X-176393Y108075D01*
X-176214Y108006D01*
X-176024Y107952D01*
X-175825Y107914D01*
X-175616Y107891D01*
X-175398Y107883D01*
X-175154Y107890D01*
X-174905Y107911D01*
X-174391Y107997D01*
X-174391Y106823D01*
X-174794Y106739D01*
X-175188Y106679D01*
X-175573Y106643D01*
X-175950Y106630D01*
G37*
%LPC*%
G36*
X-178980Y111202D02*
X-178461Y111223D01*
X-177974Y111285D01*
X-177517Y111388D01*
X-177092Y111532D01*
X-176697Y111717D01*
X-176334Y111944D01*
X-176001Y112212D01*
X-175700Y112521D01*
X-175432Y112867D01*
X-175200Y113248D01*
X-175004Y113663D01*
X-174843Y114111D01*
X-174718Y114594D01*
X-174628Y115111D01*
X-174575Y115662D01*
X-174557Y116247D01*
X-174575Y116808D01*
X-174629Y117337D01*
X-174719Y117836D01*
X-174845Y118303D01*
X-175007Y118740D01*
X-175205Y119146D01*
X-175439Y119521D01*
X-175709Y119865D01*
X-176012Y120173D01*
X-176344Y120439D01*
X-176706Y120665D01*
X-177098Y120850D01*
X-177520Y120994D01*
X-177971Y121096D01*
X-178452Y121158D01*
X-178963Y121178D01*
X-179477Y121158D01*
X-179962Y121097D01*
X-180417Y120996D01*
X-180841Y120854D01*
X-181236Y120672D01*
X-181600Y120449D01*
X-181934Y120186D01*
X-182238Y119882D01*
X-182509Y119542D01*
X-182744Y119169D01*
X-182943Y118763D01*
X-183105Y118325D01*
X-183232Y117855D01*
X-183322Y117351D01*
X-183376Y116816D01*
X-183394Y116247D01*
X-183376Y115682D01*
X-183321Y115147D01*
X-183230Y114641D01*
X-183102Y114166D01*
X-182938Y113721D01*
X-182737Y113305D01*
X-182499Y112920D01*
X-182225Y112564D01*
X-181919Y112245D01*
X-181584Y111969D01*
X-181221Y111734D01*
X-180829Y111543D01*
X-180409Y111394D01*
X-179961Y111288D01*
X-179485Y111224D01*
X-178980Y111202D01*
G37*
%LPD*%
G36*
X-164289Y110020D02*
X-165778Y110020D01*
X-165778Y112814D01*
X-171594Y112814D01*
X-171594Y114040D01*
X-165945Y122361D01*
X-164289Y122361D01*
X-164289Y114058D01*
X-162555Y114058D01*
X-162555Y112814D01*
X-164289Y112814D01*
X-164289Y110020D01*
G37*
%LPC*%
G36*
X-165778Y114058D02*
X-165778Y120583D01*
X-166024Y120119D01*
X-166365Y119541D01*
X-169527Y114881D01*
X-170000Y114233D01*
X-170140Y114058D01*
X-165778Y114058D01*
G37*
%LPD*%
D10*
X-33020Y-200660D02*
X33020Y-200660D01*
X33020Y-231140D01*
X-33020Y-231140D01*
X-33020Y-200660D01*
X-33020Y231140D02*
X33020Y231140D01*
X33020Y200660D01*
X-33020Y200660D01*
X-33020Y231140D01*
D11*
X57150Y-111090D02*
X57150Y-146090D01*
X161290Y-146090D01*
X161290Y-111090D01*
D12*
X85220Y-200090D02*
X85218Y-200152D01*
X85212Y-200213D01*
X85203Y-200274D01*
X85190Y-200334D01*
X85173Y-200393D01*
X85152Y-200451D01*
X85128Y-200508D01*
X85101Y-200563D01*
X85070Y-200616D01*
X85036Y-200668D01*
X84999Y-200717D01*
X84959Y-200764D01*
X84916Y-200808D01*
X84871Y-200849D01*
X84823Y-200888D01*
X84772Y-200924D01*
X84720Y-200956D01*
X84666Y-200985D01*
X84610Y-201011D01*
X84552Y-201033D01*
X84494Y-201052D01*
X84434Y-201067D01*
X84373Y-201078D01*
X84312Y-201086D01*
X84251Y-201090D01*
X84189Y-201090D01*
X84128Y-201086D01*
X84067Y-201078D01*
X84006Y-201067D01*
X83946Y-201052D01*
X83888Y-201033D01*
X83830Y-201011D01*
X83774Y-200985D01*
X83720Y-200956D01*
X83668Y-200924D01*
X83617Y-200888D01*
X83569Y-200849D01*
X83524Y-200808D01*
X83481Y-200764D01*
X83441Y-200717D01*
X83404Y-200668D01*
X83370Y-200616D01*
X83339Y-200563D01*
X83312Y-200508D01*
X83288Y-200451D01*
X83267Y-200393D01*
X83250Y-200334D01*
X83237Y-200274D01*
X83228Y-200213D01*
X83222Y-200152D01*
X83220Y-200090D01*
X83222Y-200028D01*
X83228Y-199967D01*
X83237Y-199906D01*
X83250Y-199846D01*
X83267Y-199787D01*
X83288Y-199729D01*
X83312Y-199672D01*
X83339Y-199617D01*
X83370Y-199564D01*
X83404Y-199512D01*
X83441Y-199463D01*
X83481Y-199416D01*
X83524Y-199372D01*
X83569Y-199331D01*
X83617Y-199292D01*
X83668Y-199256D01*
X83720Y-199224D01*
X83774Y-199195D01*
X83830Y-199169D01*
X83888Y-199147D01*
X83946Y-199128D01*
X84006Y-199113D01*
X84067Y-199102D01*
X84128Y-199094D01*
X84189Y-199090D01*
X84251Y-199090D01*
X84312Y-199094D01*
X84373Y-199102D01*
X84434Y-199113D01*
X84494Y-199128D01*
X84552Y-199147D01*
X84610Y-199169D01*
X84666Y-199195D01*
X84720Y-199224D01*
X84772Y-199256D01*
X84823Y-199292D01*
X84871Y-199331D01*
X84916Y-199372D01*
X84959Y-199416D01*
X84999Y-199463D01*
X85036Y-199512D01*
X85070Y-199564D01*
X85101Y-199617D01*
X85128Y-199672D01*
X85152Y-199729D01*
X85173Y-199787D01*
X85190Y-199846D01*
X85203Y-199906D01*
X85212Y-199967D01*
X85218Y-200028D01*
X85220Y-200090D01*
D11*
X-158750Y-138470D02*
X-158750Y-103470D01*
X-158750Y-138470D02*
X-54610Y-138470D01*
X-54610Y-103470D01*
D12*
X-130680Y-192470D02*
X-130682Y-192532D01*
X-130688Y-192593D01*
X-130697Y-192654D01*
X-130710Y-192714D01*
X-130727Y-192773D01*
X-130748Y-192831D01*
X-130772Y-192888D01*
X-130799Y-192943D01*
X-130830Y-192996D01*
X-130864Y-193048D01*
X-130901Y-193097D01*
X-130941Y-193144D01*
X-130984Y-193188D01*
X-131029Y-193229D01*
X-131077Y-193268D01*
X-131128Y-193304D01*
X-131180Y-193336D01*
X-131234Y-193365D01*
X-131290Y-193391D01*
X-131348Y-193413D01*
X-131406Y-193432D01*
X-131466Y-193447D01*
X-131527Y-193458D01*
X-131588Y-193466D01*
X-131649Y-193470D01*
X-131711Y-193470D01*
X-131772Y-193466D01*
X-131833Y-193458D01*
X-131894Y-193447D01*
X-131954Y-193432D01*
X-132012Y-193413D01*
X-132070Y-193391D01*
X-132126Y-193365D01*
X-132180Y-193336D01*
X-132232Y-193304D01*
X-132283Y-193268D01*
X-132331Y-193229D01*
X-132376Y-193188D01*
X-132419Y-193144D01*
X-132459Y-193097D01*
X-132496Y-193048D01*
X-132530Y-192996D01*
X-132561Y-192943D01*
X-132588Y-192888D01*
X-132612Y-192831D01*
X-132633Y-192773D01*
X-132650Y-192714D01*
X-132663Y-192654D01*
X-132672Y-192593D01*
X-132678Y-192532D01*
X-132680Y-192470D01*
X-132678Y-192408D01*
X-132672Y-192347D01*
X-132663Y-192286D01*
X-132650Y-192226D01*
X-132633Y-192167D01*
X-132612Y-192109D01*
X-132588Y-192052D01*
X-132561Y-191997D01*
X-132530Y-191944D01*
X-132496Y-191892D01*
X-132459Y-191843D01*
X-132419Y-191796D01*
X-132376Y-191752D01*
X-132331Y-191711D01*
X-132283Y-191672D01*
X-132232Y-191636D01*
X-132180Y-191604D01*
X-132126Y-191575D01*
X-132070Y-191549D01*
X-132012Y-191527D01*
X-131954Y-191508D01*
X-131894Y-191493D01*
X-131833Y-191482D01*
X-131772Y-191474D01*
X-131711Y-191470D01*
X-131649Y-191470D01*
X-131588Y-191474D01*
X-131527Y-191482D01*
X-131466Y-191493D01*
X-131406Y-191508D01*
X-131348Y-191527D01*
X-131290Y-191549D01*
X-131234Y-191575D01*
X-131180Y-191604D01*
X-131128Y-191636D01*
X-131077Y-191672D01*
X-131029Y-191711D01*
X-130984Y-191752D01*
X-130941Y-191796D01*
X-130901Y-191843D01*
X-130864Y-191892D01*
X-130830Y-191944D01*
X-130799Y-191997D01*
X-130772Y-192052D01*
X-130748Y-192109D01*
X-130727Y-192167D01*
X-130710Y-192226D01*
X-130697Y-192286D01*
X-130688Y-192347D01*
X-130682Y-192408D01*
X-130680Y-192470D01*
D11*
X59690Y51014D02*
X59690Y86014D01*
X59690Y51014D02*
X163830Y51014D01*
X163830Y86014D01*
D12*
X87760Y-2986D02*
X87758Y-3048D01*
X87752Y-3109D01*
X87743Y-3170D01*
X87730Y-3230D01*
X87713Y-3289D01*
X87692Y-3347D01*
X87668Y-3404D01*
X87641Y-3459D01*
X87610Y-3512D01*
X87576Y-3564D01*
X87539Y-3613D01*
X87499Y-3660D01*
X87456Y-3704D01*
X87411Y-3745D01*
X87363Y-3784D01*
X87312Y-3820D01*
X87260Y-3852D01*
X87206Y-3881D01*
X87150Y-3907D01*
X87092Y-3929D01*
X87034Y-3948D01*
X86974Y-3963D01*
X86913Y-3974D01*
X86852Y-3982D01*
X86791Y-3986D01*
X86729Y-3986D01*
X86668Y-3982D01*
X86607Y-3974D01*
X86546Y-3963D01*
X86486Y-3948D01*
X86428Y-3929D01*
X86370Y-3907D01*
X86314Y-3881D01*
X86260Y-3852D01*
X86208Y-3820D01*
X86157Y-3784D01*
X86109Y-3745D01*
X86064Y-3704D01*
X86021Y-3660D01*
X85981Y-3613D01*
X85944Y-3564D01*
X85910Y-3512D01*
X85879Y-3459D01*
X85852Y-3404D01*
X85828Y-3347D01*
X85807Y-3289D01*
X85790Y-3230D01*
X85777Y-3170D01*
X85768Y-3109D01*
X85762Y-3048D01*
X85760Y-2986D01*
X85762Y-2924D01*
X85768Y-2863D01*
X85777Y-2802D01*
X85790Y-2742D01*
X85807Y-2683D01*
X85828Y-2625D01*
X85852Y-2568D01*
X85879Y-2513D01*
X85910Y-2460D01*
X85944Y-2408D01*
X85981Y-2359D01*
X86021Y-2312D01*
X86064Y-2268D01*
X86109Y-2227D01*
X86157Y-2188D01*
X86208Y-2152D01*
X86260Y-2120D01*
X86314Y-2091D01*
X86370Y-2065D01*
X86428Y-2043D01*
X86486Y-2024D01*
X86546Y-2009D01*
X86607Y-1998D01*
X86668Y-1990D01*
X86729Y-1986D01*
X86791Y-1986D01*
X86852Y-1990D01*
X86913Y-1998D01*
X86974Y-2009D01*
X87034Y-2024D01*
X87092Y-2043D01*
X87150Y-2065D01*
X87206Y-2091D01*
X87260Y-2120D01*
X87312Y-2152D01*
X87363Y-2188D01*
X87411Y-2227D01*
X87456Y-2268D01*
X87499Y-2312D01*
X87539Y-2359D01*
X87576Y-2408D01*
X87610Y-2460D01*
X87641Y-2513D01*
X87668Y-2568D01*
X87692Y-2625D01*
X87713Y-2683D01*
X87730Y-2742D01*
X87743Y-2802D01*
X87752Y-2863D01*
X87758Y-2924D01*
X87760Y-2986D01*
D11*
X-154940Y46950D02*
X-154940Y81950D01*
X-154940Y46950D02*
X-50800Y46950D01*
X-50800Y81950D01*
D12*
X-126870Y-7050D02*
X-126872Y-7112D01*
X-126878Y-7173D01*
X-126887Y-7234D01*
X-126900Y-7294D01*
X-126917Y-7353D01*
X-126938Y-7411D01*
X-126962Y-7468D01*
X-126989Y-7523D01*
X-127020Y-7576D01*
X-127054Y-7628D01*
X-127091Y-7677D01*
X-127131Y-7724D01*
X-127174Y-7768D01*
X-127219Y-7809D01*
X-127267Y-7848D01*
X-127318Y-7884D01*
X-127370Y-7916D01*
X-127424Y-7945D01*
X-127480Y-7971D01*
X-127538Y-7993D01*
X-127596Y-8012D01*
X-127656Y-8027D01*
X-127717Y-8038D01*
X-127778Y-8046D01*
X-127839Y-8050D01*
X-127901Y-8050D01*
X-127962Y-8046D01*
X-128023Y-8038D01*
X-128084Y-8027D01*
X-128144Y-8012D01*
X-128202Y-7993D01*
X-128260Y-7971D01*
X-128316Y-7945D01*
X-128370Y-7916D01*
X-128422Y-7884D01*
X-128473Y-7848D01*
X-128521Y-7809D01*
X-128566Y-7768D01*
X-128609Y-7724D01*
X-128649Y-7677D01*
X-128686Y-7628D01*
X-128720Y-7576D01*
X-128751Y-7523D01*
X-128778Y-7468D01*
X-128802Y-7411D01*
X-128823Y-7353D01*
X-128840Y-7294D01*
X-128853Y-7234D01*
X-128862Y-7173D01*
X-128868Y-7112D01*
X-128870Y-7050D01*
X-128868Y-6988D01*
X-128862Y-6927D01*
X-128853Y-6866D01*
X-128840Y-6806D01*
X-128823Y-6747D01*
X-128802Y-6689D01*
X-128778Y-6632D01*
X-128751Y-6577D01*
X-128720Y-6524D01*
X-128686Y-6472D01*
X-128649Y-6423D01*
X-128609Y-6376D01*
X-128566Y-6332D01*
X-128521Y-6291D01*
X-128473Y-6252D01*
X-128422Y-6216D01*
X-128370Y-6184D01*
X-128316Y-6155D01*
X-128260Y-6129D01*
X-128202Y-6107D01*
X-128144Y-6088D01*
X-128084Y-6073D01*
X-128023Y-6062D01*
X-127962Y-6054D01*
X-127901Y-6050D01*
X-127839Y-6050D01*
X-127778Y-6054D01*
X-127717Y-6062D01*
X-127656Y-6073D01*
X-127596Y-6088D01*
X-127538Y-6107D01*
X-127480Y-6129D01*
X-127424Y-6155D01*
X-127370Y-6184D01*
X-127318Y-6216D01*
X-127267Y-6252D01*
X-127219Y-6291D01*
X-127174Y-6332D01*
X-127131Y-6376D01*
X-127091Y-6423D01*
X-127054Y-6472D01*
X-127020Y-6524D01*
X-126989Y-6577D01*
X-126962Y-6632D01*
X-126938Y-6689D01*
X-126917Y-6747D01*
X-126900Y-6806D01*
X-126887Y-6866D01*
X-126878Y-6927D01*
X-126872Y-6988D01*
X-126870Y-7050D01*
D10*
X-14732Y-101600D02*
X-8382Y-107950D01*
X-8382Y-120650D01*
X-14732Y-127000D01*
X-27432Y-127000D01*
X-33782Y-120650D01*
X-33782Y-107950D01*
X-27432Y-101600D01*
X-8382Y-69850D02*
X-8382Y-57150D01*
X-8382Y-69850D02*
X-14732Y-76200D01*
X-27432Y-76200D01*
X-33782Y-69850D01*
X-14732Y-76200D02*
X-8382Y-82550D01*
X-8382Y-95250D01*
X-14732Y-101600D01*
X-27432Y-101600D01*
X-33782Y-95250D01*
X-33782Y-82550D01*
X-27432Y-76200D01*
X-8382Y-31750D02*
X-14732Y-25400D01*
X-8382Y-31750D02*
X-8382Y-44450D01*
X-14732Y-50800D01*
X-27432Y-50800D01*
X-33782Y-44450D01*
X-33782Y-31750D01*
X-27432Y-25400D01*
X-14732Y-50800D02*
X-8382Y-57150D01*
X-27432Y-50800D02*
X-33782Y-57150D01*
X-33782Y-69850D01*
X-8382Y6350D02*
X-8382Y19050D01*
X-8382Y6350D02*
X-14732Y0D01*
X-27432Y0D01*
X-33782Y6350D01*
X-14732Y0D02*
X-8382Y-6350D01*
X-8382Y-19050D01*
X-14732Y-25400D01*
X-27432Y-25400D01*
X-33782Y-19050D01*
X-33782Y-6350D01*
X-27432Y0D01*
X-8382Y44450D02*
X-14732Y50800D01*
X-8382Y44450D02*
X-8382Y31750D01*
X-14732Y25400D01*
X-27432Y25400D01*
X-33782Y31750D01*
X-33782Y44450D01*
X-27432Y50800D01*
X-14732Y25400D02*
X-8382Y19050D01*
X-27432Y25400D02*
X-33782Y19050D01*
X-33782Y6350D01*
X-8382Y82550D02*
X-8382Y95250D01*
X-8382Y82550D02*
X-14732Y76200D01*
X-27432Y76200D01*
X-33782Y82550D01*
X-14732Y76200D02*
X-8382Y69850D01*
X-8382Y57150D01*
X-14732Y50800D01*
X-27432Y50800D01*
X-33782Y57150D01*
X-33782Y69850D01*
X-27432Y76200D01*
X-8382Y120650D02*
X-14732Y127000D01*
X-8382Y120650D02*
X-8382Y107950D01*
X-14732Y101600D01*
X-27432Y101600D01*
X-33782Y107950D01*
X-33782Y120650D01*
X-27432Y127000D01*
X-14732Y101600D02*
X-8382Y95250D01*
X-27432Y101600D02*
X-33782Y95250D01*
X-33782Y82550D01*
X-8382Y158750D02*
X-8382Y171450D01*
X-8382Y158750D02*
X-14732Y152400D01*
X-27432Y152400D01*
X-33782Y158750D01*
X-14732Y152400D02*
X-8382Y146050D01*
X-8382Y133350D01*
X-14732Y127000D01*
X-27432Y127000D01*
X-33782Y133350D01*
X-33782Y146050D01*
X-27432Y152400D01*
X-27432Y177800D02*
X-14732Y177800D01*
X-8382Y171450D01*
X-27432Y177800D02*
X-33782Y171450D01*
X-33782Y158750D01*
X-14732Y-127000D02*
X-8382Y-133350D01*
X-8382Y-146050D01*
X-14732Y-152400D01*
X-27432Y-152400D01*
X-33782Y-146050D01*
X-33782Y-133350D01*
X-27432Y-127000D01*
X24130Y-101854D02*
X30480Y-108204D01*
X30480Y-120904D01*
X24130Y-127254D01*
X11430Y-127254D01*
X5080Y-120904D01*
X5080Y-108204D01*
X11430Y-101854D01*
X30480Y-70104D02*
X30480Y-57404D01*
X30480Y-70104D02*
X24130Y-76454D01*
X11430Y-76454D01*
X5080Y-70104D01*
X24130Y-76454D02*
X30480Y-82804D01*
X30480Y-95504D01*
X24130Y-101854D01*
X11430Y-101854D01*
X5080Y-95504D01*
X5080Y-82804D01*
X11430Y-76454D01*
X30480Y-32004D02*
X24130Y-25654D01*
X30480Y-32004D02*
X30480Y-44704D01*
X24130Y-51054D01*
X11430Y-51054D01*
X5080Y-44704D01*
X5080Y-32004D01*
X11430Y-25654D01*
X24130Y-51054D02*
X30480Y-57404D01*
X11430Y-51054D02*
X5080Y-57404D01*
X5080Y-70104D01*
X30480Y6096D02*
X30480Y18796D01*
X30480Y6096D02*
X24130Y-254D01*
X11430Y-254D01*
X5080Y6096D01*
X24130Y-254D02*
X30480Y-6604D01*
X30480Y-19304D01*
X24130Y-25654D01*
X11430Y-25654D01*
X5080Y-19304D01*
X5080Y-6604D01*
X11430Y-254D01*
X30480Y44196D02*
X24130Y50546D01*
X30480Y44196D02*
X30480Y31496D01*
X24130Y25146D01*
X11430Y25146D01*
X5080Y31496D01*
X5080Y44196D01*
X11430Y50546D01*
X24130Y25146D02*
X30480Y18796D01*
X11430Y25146D02*
X5080Y18796D01*
X5080Y6096D01*
X30480Y82296D02*
X30480Y94996D01*
X30480Y82296D02*
X24130Y75946D01*
X11430Y75946D01*
X5080Y82296D01*
X24130Y75946D02*
X30480Y69596D01*
X30480Y56896D01*
X24130Y50546D01*
X11430Y50546D01*
X5080Y56896D01*
X5080Y69596D01*
X11430Y75946D01*
X30480Y120396D02*
X24130Y126746D01*
X30480Y120396D02*
X30480Y107696D01*
X24130Y101346D01*
X11430Y101346D01*
X5080Y107696D01*
X5080Y120396D01*
X11430Y126746D01*
X24130Y101346D02*
X30480Y94996D01*
X11430Y101346D02*
X5080Y94996D01*
X5080Y82296D01*
X30480Y158496D02*
X30480Y171196D01*
X30480Y158496D02*
X24130Y152146D01*
X11430Y152146D01*
X5080Y158496D01*
X24130Y152146D02*
X30480Y145796D01*
X30480Y133096D01*
X24130Y126746D01*
X11430Y126746D01*
X5080Y133096D01*
X5080Y145796D01*
X11430Y152146D01*
X11430Y177546D02*
X24130Y177546D01*
X30480Y171196D01*
X11430Y177546D02*
X5080Y171196D01*
X5080Y158496D01*
X24130Y-127254D02*
X30480Y-133604D01*
X30480Y-146304D01*
X24130Y-152654D01*
X11430Y-152654D01*
X5080Y-146304D01*
X5080Y-133604D01*
X11430Y-127254D01*
M02*
