G04 EAGLE Gerber RS-274X export*
G75*
%MOMM*%
%FSLAX34Y34*%
%LPD*%
%INSoldermask Top*%
%IPPOS*%
%AMOC8*
5,1,8,0,0,1.08239X$1,22.5*%
G01*
G04 Define Apertures*
%ADD10R,6.654800X3.454400*%
%ADD11R,2.283200X4.013200*%
%ADD12R,11.633200X9.093200*%
%ADD13C,2.032000*%
%ADD14C,0.705600*%
D10*
X0Y-215900D03*
X0Y215900D03*
D11*
X83820Y-177040D03*
D12*
X109220Y-62740D03*
D11*
X134620Y-177040D03*
X-132080Y-169420D03*
D12*
X-106680Y-55120D03*
D11*
X-81280Y-169420D03*
X86360Y20064D03*
D12*
X111760Y134364D03*
D11*
X137160Y20064D03*
X-128270Y16000D03*
D12*
X-102870Y130300D03*
D11*
X-77470Y16000D03*
D13*
X-30226Y165100D02*
X-11938Y165100D01*
X-11938Y139700D02*
X-30226Y139700D01*
X-30226Y114300D02*
X-11938Y114300D01*
X-11938Y88900D02*
X-30226Y88900D01*
X-30226Y63500D02*
X-11938Y63500D01*
X-11938Y38100D02*
X-30226Y38100D01*
X-30226Y12700D02*
X-11938Y12700D01*
X-11938Y-12700D02*
X-30226Y-12700D01*
X-30226Y-38100D02*
X-11938Y-38100D01*
X-11938Y-63500D02*
X-30226Y-63500D01*
X-30226Y-88900D02*
X-11938Y-88900D01*
X-11938Y-114300D02*
X-30226Y-114300D01*
X-30226Y-139700D02*
X-11938Y-139700D01*
X8636Y164846D02*
X26924Y164846D01*
X26924Y139446D02*
X8636Y139446D01*
X8636Y114046D02*
X26924Y114046D01*
X26924Y88646D02*
X8636Y88646D01*
X8636Y63246D02*
X26924Y63246D01*
X26924Y37846D02*
X8636Y37846D01*
X8636Y12446D02*
X26924Y12446D01*
X26924Y-12954D02*
X8636Y-12954D01*
X8636Y-38354D02*
X26924Y-38354D01*
X26924Y-63754D02*
X8636Y-63754D01*
X8636Y-89154D02*
X26924Y-89154D01*
X26924Y-114554D02*
X8636Y-114554D01*
X8636Y-139954D02*
X26924Y-139954D01*
D14*
X91440Y-149860D03*
X-101600Y-139700D03*
X-71120Y-208280D03*
X48260Y157480D03*
X-175260Y-91440D03*
X63300Y64160D03*
X134620Y-7620D03*
X-83820Y-144780D03*
M02*
