M48
;GenerationSoftware,Autodesk,EAGLE,9.7.0*%
;CreationDate,2023-09-11T09:17:43Z*%
FMAT,2
ICI,OFF
METRIC,TZ,000.000
T2C0.350
T1C20.000
%
G90
M71
T1
X0Y0
T2
X0Y14000
X8000Y23500
X21000Y-10500
X-7000Y-19500
X-19000Y4500
X-8000Y14500
X15500Y7000
X8000Y-14500
X-13000Y-8000
X-11000Y10000
X10500Y-11000
X11500Y10000
X-10500Y-11000
X7000Y-28000
X-29000Y-9000
X28000Y5000
X17000Y24000
X24500Y-18000
X-25500Y13500
X-18500Y-24500
X0Y-15000
X14500Y-1500
X-15000Y-1500
X-6746Y29500
M30